<svg xmlns:dc="http://purl.org/dc/elements/1.1/" xmlns:cc="http://creativecommons.org/ns#" xmlns:rdf="http://www.w3.org/1999/02/22-rdf-syntax-ns#" xmlns:svg="http://www.w3.org/2000/svg" xmlns="http://www.w3.org/2000/svg" xmlns:sodipodi="http://sodipodi.sourceforge.net/DTD/sodipodi-0.dtd" xmlns:inkscape="http://www.inkscape.org/namespaces/inkscape" version="1.1" width="200" height="200" sodipodi:docname="the-boston-consulting-group-seeklogo.com.cdr"><rect id="backgroundrect" width="100%" height="100%" x="0" y="0" fill="none" stroke="none"/>
  <metadata id="metadata12">
    <rdf:RDF>
      <cc:Work rdf:about="">
        <dc:format>image/svg+xml</dc:format>
        <dc:type rdf:resource="http://purl.org/dc/dcmitype/StillImage"/>
      </cc:Work>
    </rdf:RDF>
  </metadata>
  <defs id="defs10"/>
  <sodipodi:namedview pagecolor="#ffffff" bordercolor="#666666" borderopacity="1" objecttolerance="10" gridtolerance="10" guidetolerance="10" inkscape:pageopacity="0" inkscape:pageshadow="2" inkscape:window-width="640" inkscape:window-height="480" id="namedview8"/>
  
  
<g class="currentLayer" style=""><title>Layer 1</title><path d="M0.0000046874999952706276,0.000006298828111539478 H200.0002046875 V200.0001062988281 H0.0000046874999952706276 z" style="fill:#15734e;fill-rule:evenodd" id="path2" class=""/><path d="m72.2801046875,83.6300062988281 c8.7301,-12.24 27.2302,-15.16 39.5799,-6.8298000000000005 c-2.0699,3.0498 -4,6.1999 -5.9998000000000005,9.299900000000001 c-6.0404,-4.35 -14.770199999999999,-4.4699 -20.7601,0.030100000000000005 c-7.17,4.8699 -9.5803,15.4 -4.8399,22.7596 c5.0097,8.6803 17.8098,11.3905 25.6399,4.9003 c6.6901,-4.9003 6.6498,-13.8498 8.8798,-21.0799 c2.6802,-9.11 10.0602,-16.9101 19.3,-19.4601 c8.3203,-2.3301 17.7401,-1.22 24.9301,3.7301 c-2.0298,3.0699 -3.95,6.1999 -5.9198,9.299900000000001 c-4.2801,-3.0699 -9.9502,-4.2899 -15.0602,-2.84 c-7.6198,1.9202 -13.18,9.6602 -12.64,17.49 c0.18000000000000002,8.7001 7.7899,16.5501 16.5901,16.5399 c7.2099,0.4 13.5198,-4.9802 15.639800000000001,-11.6498 c-5.58,-0.07 -11.1498,0.030000000000000006 -16.7198,-0.05020000000000001 c1.8898000000000001,-3.6 4.2899,-6.8899 6.44,-10.3297 c7.3001000000000005,0.029700000000000004 14.61,-0.09020000000000003 21.9098,0.07990000000000001 c1.3802,10.08 -2.4298,20.8902 -10.6798,27.0601 c-12.0501,9.6301 -31.5,6.3595 -40.07,-6.3502 c-4.5802,6.2802 -11.6501,10.8 -19.4198,11.6802 c-9.22,1.4 -18.87,-2.0999 -25.1904,-8.9204 c-3.0297,4.6205 -8.2199,7.85 -13.82,7.9203 c-9.7597,0.22960000000000003 -19.55,0.3399000000000001 -29.3097,-0.04020000000000001 c0.08980000000000002,-17.8699 0.05980000000000001,-35.7299 0.0198,-53.5998 c8.7803,-0.030000000000000006 17.5598,-0.07 26.3398,0.010000000000000002 c6.4602,0.1302 13.0201,4.07 15.1603,10.3499 zm-29.8301,-0.2599 c0.1301,3.8401 0.08020000000000002,7.6802 0.07,11.5302 c4.5198,-0.020200000000000003 9.0403,0.07990000000000001 13.5601,-0.020200000000000003 c3.1096,0.10010000000000001 5.9598,-2.7901 5.6999,-5.9099 c0.10970000000000002,-3.0501 -2.6901,-5.8 -5.7197000000000005,-5.7002 c-4.5403,-0.07990000000000001 -9.0803,-0.08990000000000002 -13.6103,0.10010000000000001 zm0.11030000000000001,21.38 c-0.060100000000000015,4.1102 -0.04990000000000001,8.2103 0,12.3199 c5.1596,-0.039700000000000006 10.3198,0.060100000000000015 15.4697,-0.010000000000000002 c3.07,0.16980000000000003 6.2003,-2.0103 6.659800000000001,-5.1205 c0.7704,-3.4699 -2.1898,-6.9398 -5.6597,-7.0795 c-5.4799,-0.20020000000000002 -10.98,0.039700000000000006 -16.4698,-0.11030000000000001 z" style="fill:#fefefe;fill-rule:evenodd" id="path4" class=""/></g></svg>