<?xml version="1.0" encoding="UTF-8" standalone="no"?>
<!-- Created with Inkscape (http://www.inkscape.org/) -->

<svg
   xmlns:dc="http://purl.org/dc/elements/1.1/"
   xmlns:cc="http://creativecommons.org/ns#"
   xmlns:rdf="http://www.w3.org/1999/02/22-rdf-syntax-ns#"
   xmlns:svg="http://www.w3.org/2000/svg"
   xmlns="http://www.w3.org/2000/svg"
   xmlns:sodipodi="http://sodipodi.sourceforge.net/DTD/sodipodi-0.dtd"
   xmlns:inkscape="http://www.inkscape.org/namespaces/inkscape"
   version="1.1"
   id="svg2"
   xml:space="preserve"
   width="200"
   height="50"
   viewBox="0 0 200 50"
   sodipodi:docname="אוניברסיטת בן-גוריון בנגב.svg"
   inkscape:version="0.92.5 (2060ec1f9f, 2020-04-08)"><metadata
     id="metadata8"><rdf:RDF><cc:Work
         rdf:about=""><dc:format>image/svg+xml</dc:format><dc:type
           rdf:resource="http://purl.org/dc/dcmitype/StillImage" /><dc:title></dc:title></cc:Work></rdf:RDF></metadata><defs
     id="defs6" /><sodipodi:namedview
     pagecolor="#ffffff"
     bordercolor="#666666"
     borderopacity="1"
     objecttolerance="10"
     gridtolerance="10"
     guidetolerance="10"
     inkscape:pageopacity="0"
     inkscape:pageshadow="2"
     inkscape:window-width="1366"
     inkscape:window-height="705"
     id="namedview4"
     showgrid="false"
     inkscape:zoom="3.825"
     inkscape:cx="104.16593"
     inkscape:cy="25.894951"
     inkscape:window-x="-8"
     inkscape:window-y="-8"
     inkscape:window-maximized="1"
     inkscape:current-layer="g10" /><g
     id="g10"
     inkscape:groupmode="layer"
     inkscape:label="TML2023"
     transform="matrix(1.3333333,0,0,-1.3333333,0,50)"><g
       id="g310"><path
         inkscape:connector-curvature="0"
         id="path64"
         style="fill:#f7941e;fill-opacity:1;fill-rule:nonzero;stroke:none;stroke-width:0.31604517"
         d="m 150.00001,18.750033 c 1e-5,-10.202139 -8.34122,-18.53235399 -18.55118,-18.53235261 -10.30481,1.39e-6 -18.5512,8.33021871 -18.55121,18.53235761 -1e-5,10.202456 8.24636,18.532285 18.55117,18.532284 10.20996,-10e-7 18.55121,-8.329833 18.55122,-18.532289" /><path
         inkscape:connector-curvature="0"
         id="path66"
         style="fill:#ffffff;fill-opacity:1;fill-rule:nonzero;stroke:none;stroke-width:0.31604517"
         d="m 138.85097,6.3950723 c -3.0007,1.6849834 -2.71929,4.9608127 -0.93911,7.4879707 -2.0616,1.029502 -2.0616,1.029502 -2.0616,1.029502 -2.62126,-1.778172 -2.80781,-6.177323 -1.12248,-8.5174722 z" /><path
         inkscape:connector-curvature="0"
         id="path68"
         style="fill:#ffffff;fill-opacity:1;fill-rule:nonzero;stroke:none;stroke-width:0.31604517"
         d="m 129.57379,6.3950735 c 3.93663,-5e-7 3.93663,-5e-7 3.93663,-5e-7 -1.0308,2.0593185 -0.9391,4.773487 -0.0949,6.92631 1.3122,2.714484 5.15398,4.305646 5.05912,7.768801 -0.18656,4.679982 -4.77773,9.079134 -8.61951,11.232589 2.81099,-5.4296 -12.64781,-12.075078 -0.46795,-18.252403 0,0 0.37628,0.935997 0.65453,1.497342 0.28141,0.561661 0.84424,1.310647 0.84424,1.310647 -7.30729,3.369335 0.74937,8.236642 0.18654,13.384464 1.78018,-1.965498 4.59116,-6.083819 4.30975,-8.891808 -0.28141,-2.807989 -2.90267,-3.931311 -4.30974,-5.990313 -1.49876,-2.152823 -1.78017,-5.9903136 -1.49875,-8.9856285" /><path
         inkscape:connector-curvature="0"
         id="path70"
         style="fill:#ffffff;fill-opacity:1;fill-rule:nonzero;stroke:none;stroke-width:0.31604517"
         d="m 129.10581,13.227879 c 0,0 -0.93594,0.374335 -1.49877,0.748671 -0.84424,0.561661 -2.06159,1.497657 -2.06159,1.497657 0.84424,-3.182324 0.93594,-6.9263098 -1.49876,-9.0791327 4.59116,-6e-7 4.59116,-6e-7 4.59116,-6e-7 -0.0949,2.6209794 -10e-6,4.5864773 0.46796,6.8328053" /><path
         inkscape:connector-curvature="0"
         id="path72"
         style="fill:#58595b;fill-opacity:1;fill-rule:nonzero;stroke:none;stroke-width:0.31604517"
         d="m 104.93583,7.7992294 c 1.40391,-3.8374906 1.40391,-3.8374906 1.40391,-3.8374906 0.56283,-10e-8 0.56283,-10e-8 0.56283,-10e-8 1.4039,3.8374902 1.4039,3.8374902 1.4039,3.8374902 -0.65452,1e-7 -0.65452,1e-7 -0.65452,1e-7 -0.65453,-2.1528232 -0.65453,-2.1528232 -0.65453,-2.1528232 -0.18971,-0.3743353 -0.28141,-0.6551658 -0.37627,-0.9359963 0,0 0,0 0,0 -0.0949,0.2808305 -0.18655,0.5616611 -0.28141,0.9359964 -0.65453,2.1528234 -0.65453,2.1528234 -0.65453,2.1528234 z m -2.90584,-1.497657 c 0.0949,0.4681561 0.37627,1.0295012 1.0308,1.0295011 0.74938,-10e-8 0.93594,-0.655166 0.93594,-1.0295014 z m 2.52956,-0.5616614 c 0,0.093821 0,0.1873257 0,0.3743354 0,0.6554818 -0.28141,1.778488 -1.40391,1.7784881 -1.12565,2e-7 -1.68848,-0.9359961 -1.68848,-2.0590023 0,-1.123322 0.65769,-1.9658136 1.68849,-1.9658137 0.55966,-10e-8 1.0308,0.1873255 1.21735,0.2808303 -0.0949,0.4681562 -0.0949,0.4681562 -0.0949,0.4681562 -0.28141,-0.093821 -0.56283,-0.1873256 -1.0308,-0.1873255 -0.65452,1e-7 -1.21735,0.3743355 -1.21735,1.3103319 z M 99.968395,5.646407 c 0,-0.1873256 0,-0.2808305 -0.0917,-0.3743354 -0.09486,-0.4681561 -0.467969,-0.7489865 -0.844242,-0.7489865 -0.749383,10e-8 -1.030798,0.655166 -1.030799,1.4041527 -10e-7,0.8424915 0.376271,1.4038365 1.030796,1.4038365 0.46797,-1e-7 0.749384,-0.2808306 0.93594,-0.7486709 0,-0.093505 0,-0.1873257 0,-0.2808305 z m 0.657685,1.1233219 c 0,0.4678403 0,0.7486708 0,1.0295013 -0.56283,10e-8 -0.56283,10e-8 -0.56283,10e-8 0,-0.5616611 0,-0.5616611 0,-0.5616611 0,0 0,0 0,0 -0.186554,0.2808306 -0.562827,0.655166 -1.125655,0.6551661 -0.84108,1e-7 -1.685322,-0.7486705 -1.68532,-2.0590023 10e-7,-1.0298171 0.654526,-1.778488 1.593627,-1.7784881 0.562828,-1e-7 0.935939,0.2808304 1.122494,0.5616609 0,0 0,0 0,0 0,-0.3743354 0,-0.3743354 0,-0.3743354 2e-6,-0.9359964 -0.467968,-1.3105213 -1.122492,-1.3105212 -0.46797,1e-7 -0.844243,0.0936 -1.030798,0.2807043 -0.186555,-0.561503 -0.186555,-0.561503 -0.186555,-0.561503 0.278252,-0.1871993 0.749384,-0.280799 1.217353,-0.2807991 0.373111,0 0.935939,0.093599 1.217356,0.467998 0.37311,0.2807989 0.56282,0.8424599 0.56282,1.6846355 z M 94.25474,6.3015735 c -10e-7,0.4681561 0.281413,1.0295012 0.935938,1.0295011 0.749383,-1e-7 0.935939,-0.655166 0.93594,-1.0295014 z m 2.434707,-0.5616614 c 0.09486,0.093821 0.09486,0.1873256 0.09486,0.3743354 -10e-7,0.6554817 -0.376275,1.7784879 -1.498769,1.7784881 -1.030798,1e-7 -1.688484,-0.9359962 -1.688482,-2.0590023 1e-6,-1.123322 0.657689,-1.9658136 1.780183,-1.9658138 0.562828,0 0.939101,0.1873255 1.220515,0.2808304 C 96.408036,4.616906 96.408036,4.616906 96.408036,4.616906 96.22148,4.523085 95.940066,4.4295805 95.472097,4.4295805 c -0.654525,1e-7 -1.217353,0.3743356 -1.217354,1.3103319 z m -7.120723,-1.778171 c -3e-6,2.2463281 -3e-6,2.2463281 -3e-6,2.2463281 -10e-7,0.9359964 -10e-7,1.5911623 -2e-6,2.2463282 0,0 0,0 0,0 0.281415,-0.5616611 0.562829,-1.216827 0.939103,-1.7784881 1.590467,-2.7141686 1.590467,-2.7141686 1.590467,-2.7141686 0.657686,-10e-8 0.657686,-10e-8 0.657686,-10e-8 -5e-6,5.3351478 -5e-6,5.3351478 -5e-6,5.3351478 -0.657687,10e-8 -0.657687,10e-8 -0.657687,10e-8 2e-6,-2.246644 2e-6,-2.246644 2e-6,-2.246644 10e-7,-0.8421756 0.09486,-1.4038366 0.09486,-2.1525074 0,0 0,0 0,0 -0.186556,0.5613451 -0.562829,1.1230062 -0.844244,1.6846672 -1.590467,2.7144845 -1.590467,2.7144845 -1.590467,2.7144845 -0.749383,1e-7 -0.749383,1e-7 -0.749383,1e-7 6e-6,-5.3351477 6e-6,-5.3351477 6e-6,-5.3351477 z m -5.527102,2.3398337 c 0.09486,0.4681562 0.376272,1.0295012 1.030797,1.0295011 0.749383,-1e-7 0.93594,-0.655166 0.93594,-1.0295013 z m 2.529566,-0.5616613 c 0,0.093821 0,0.1873256 -1e-6,0.3743354 0,0.6554817 -0.281416,1.7784879 -1.40391,1.778488 -1.125656,2e-7 -1.688483,-0.9359961 -1.688482,-2.0590022 10e-7,-1.123322 0.657689,-1.9658136 1.688486,-1.9658138 0.654525,-1e-7 1.030798,0.1873255 1.217353,0.2808304 -0.09486,0.4681561 -0.09486,0.4681561 -0.09486,0.4681561 -0.281414,-0.093821 -0.559666,-0.1873256 -1.030798,-0.1873255 -0.654524,1e-7 -1.217353,0.3743355 -1.217354,1.3103319 z M 79.640182,3.9617424 c 0.654525,-10e-8 0.654525,-10e-8 0.654525,-10e-8 -2e-6,2.339833 -2e-6,2.339833 -2e-6,2.339833 0,0.093505 -10e-7,0.1873257 -10e-7,0.2808305 0.09486,0.3743354 0.467969,0.7486707 0.844242,0.7486707 0.654525,-1e-7 0.841081,-0.5613452 0.841081,-1.1230063 3e-6,-2.2463281 3e-6,-2.2463281 3e-6,-2.2463281 0.657687,-10e-8 0.657687,-10e-8 0.657687,-10e-8 -3e-6,2.2463282 -3e-6,2.2463282 -3e-6,2.2463282 -10e-7,1.3103317 -0.749385,1.6846672 -1.217355,1.6846672 -0.281414,1e-7 -0.471131,-0.093505 -0.657686,-0.1873255 -0.186556,-0.1870097 -0.373111,-0.2805146 -0.467969,-0.561345 0,0 0,0 0,0 -3e-6,2.4333378 -3e-6,2.4333378 -3e-6,2.4333378 -0.654525,10e-8 -0.654525,10e-8 -0.654525,10e-8 z M 77.297168,8.454399 c 10e-7,-0.6551659 10e-7,-0.6551659 10e-7,-0.6551659 -0.562828,10e-8 -0.562828,10e-8 -0.562828,10e-8 0,-0.561661 0,-0.561661 0,-0.561661 0.562828,-10e-8 0.562828,-10e-8 0.562828,-10e-8 3e-6,-2.0593184 3e-6,-2.0593184 3e-6,-2.0593184 0,-0.4678402 0.09486,-0.7486707 0.281415,-0.9356805 0.0917,-0.1873256 0.373111,-0.3746513 0.654525,-0.3746513 0.281414,-10e-8 0.467969,0.093821 0.562828,0.093821 -10e-7,0.5613452 -10e-7,0.5613452 -10e-7,0.5613452 -0.09486,0 -0.186555,0 -0.376272,0 -0.373111,1e-7 -0.46797,0.1873257 -0.46797,0.6551659 -3e-6,2.0593184 -3e-6,2.0593184 -3e-6,2.0593184 0.939101,-1e-7 0.939101,-1e-7 0.939101,-1e-7 0,0.561661 0,0.561661 0,0.561661 -0.939101,1e-7 -0.939101,1e-7 -0.939101,1e-7 -10e-7,0.9359964 -10e-7,0.9359964 -10e-7,0.9359964 z M 74.113083,3.9617432 c -3e-6,3.2758294 -3e-6,3.2758294 -3e-6,3.2758294 0.935939,-2e-7 0.935939,-2e-7 0.935939,-2e-7 -10e-7,0.561661 -10e-7,0.561661 -10e-7,0.561661 -0.935939,2e-7 -0.935939,2e-7 -0.935939,2e-7 0,0.1870097 0,0.1870097 0,0.1870097 -10e-7,0.561661 0.186554,1.123322 0.749382,1.1233219 0.186556,0 0.278253,-0.093505 0.373111,-0.093505 0.09486,0.5613451 0.09486,0.5613451 0.09486,0.5613451 -0.09486,0 -0.281414,0.093821 -0.562828,0.093821 -0.281414,10e-8 -0.654525,-0.093821 -0.844242,-0.3743352 -0.281414,-0.2808305 -0.467968,-0.7489866 -0.467968,-1.3106476 0,-0.1870097 0,-0.1870097 0,-0.1870097 -0.467969,0 -0.467969,0 -0.467969,0 10e-7,-0.561661 10e-7,-0.561661 10e-7,-0.561661 0.467969,-10e-8 0.467969,-10e-8 0.467969,-10e-8 4e-6,-3.2758293 4e-6,-3.2758293 4e-6,-3.2758293 z M 70.83097,7.3310779 c 0.844242,-1e-7 1.125657,-0.7486709 1.125657,-1.4038368 10e-7,-0.8424915 -0.467968,-1.4976573 -1.125654,-1.4976572 -0.654525,0 -1.027637,0.655166 -1.027638,1.4976575 0,0.6551659 0.278251,1.4038366 1.027635,1.4038365 m 0.09486,0.561661 c -1.030798,10e-8 -1.780181,-0.7486705 -1.780179,-2.0590023 10e-7,-1.2168269 0.749385,-1.9658136 1.685324,-1.9658137 0.844243,-2e-7 1.780181,0.6551656 1.780179,2.0593181 -10e-7,1.1230061 -0.654527,1.9654977 -1.685324,1.9654979 M 63.805103,7.799235 c 1.312215,-3.4631552 1.312215,-3.4631552 1.312215,-3.4631552 0.09486,-0.093505 0.09486,-0.1873257 0.09486,-0.1873257 0,-0.093505 0,-0.093505 -0.09486,-0.1870097 C 65.022461,3.5870931 64.744209,3.3065786 64.64935,3.2127578 64.462795,3.0256533 64.181381,2.9320537 64.086522,2.8384541 c 0.09486,-0.5615978 0.09486,-0.5615978 0.09486,-0.5615978 0.186555,-10e-8 0.467969,0.1871992 0.84108,0.467998 0.471131,0.3743985 0.749382,1.0295644 1.220512,2.3398961 0.935936,2.7144841 0.935936,2.7144841 0.935936,2.7144841 -0.654525,1e-7 -0.654525,1e-7 -0.654525,1e-7 -0.752543,-2.246328 -0.752543,-2.246328 -0.752543,-2.246328 -0.0917,-0.2808305 -0.0917,-0.561661 -0.186555,-0.7489867 0,0 0,0 0,0 -0.0917,0.1873257 -0.186555,0.4681562 -0.281414,0.7489867 -0.749386,2.2463283 -0.749386,2.2463283 -0.749386,2.2463283 z m -1.871879,0.6551661 c 10e-7,-0.6551659 10e-7,-0.6551659 10e-7,-0.6551659 -0.562828,1e-7 -0.562828,1e-7 -0.562828,1e-7 1e-6,-0.561661 1e-6,-0.561661 1e-6,-0.561661 0.562828,-1e-7 0.562828,-1e-7 0.562828,-1e-7 2e-6,-2.0593184 2e-6,-2.0593184 2e-6,-2.0593184 0,-0.4678402 0.0917,-0.7486707 0.281415,-0.9356805 0.186556,-0.1873257 0.373111,-0.3746513 0.654525,-0.3746514 0.281414,0 0.46797,0.093821 0.654525,0.093821 -0.0917,0.5613451 -0.0917,0.5613451 -0.0917,0.5613451 -0.09486,0 -0.189718,1e-7 -0.376273,1e-7 -0.373111,0 -0.46797,0.1873257 -0.46797,0.6551659 -2e-6,2.0593184 -2e-6,2.0593184 -2e-6,2.0593184 0.935939,-10e-8 0.935939,-10e-8 0.935939,-10e-8 -1e-6,0.561661 -1e-6,0.561661 -1e-6,0.561661 -0.935939,10e-8 -0.935939,10e-8 -0.935939,10e-8 -10e-7,0.9359964 -10e-7,0.9359964 -10e-7,0.9359964 z m -1.498768,0.8424917 c -0.281414,0 -0.471131,-0.1873256 -0.471131,-0.4681561 1e-6,-0.1873256 0.189718,-0.3743354 0.376274,-0.3743354 0.281414,0 0.467969,0.1870097 0.467969,0.3743353 -1e-6,0.2808305 -0.186556,0.4681562 -0.373112,0.4681562 M 60.71271,7.7992354 c -0.654525,1e-7 -0.654525,1e-7 -0.654525,1e-7 4e-6,-3.8374904 4e-6,-3.8374904 4e-6,-3.8374904 0.654525,-10e-8 0.654525,-10e-8 0.654525,-10e-8 z M 56.8741,4.1487552 c 0.281414,-0.093505 0.654525,-0.2808305 1.030798,-0.2808306 0.84108,-10e-8 1.309049,0.468156 1.309048,1.2168267 -10e-7,0.561661 -0.278253,0.8424916 -0.93594,1.1233222 -0.46797,0.1870098 -0.654525,0.2808305 -0.654526,0.6551659 0,0.2808305 0.186555,0.4678402 0.559666,0.4678402 0.376273,-10e-8 0.657687,-0.093505 0.752546,-0.1870099 0.186554,0.4678403 0.186554,0.4678403 0.186554,0.4678403 -0.186555,0.1873256 -0.562828,0.2808305 -0.939101,0.2808306 -0.749383,1e-7 -1.217352,-0.5616608 -1.217352,-1.123006 1e-6,-0.4681561 0.281415,-0.8424915 0.939103,-1.1233221 0.467969,-0.1873257 0.654525,-0.2808306 0.654525,-0.655166 10e-7,-0.2808305 -0.186555,-0.561661 -0.654524,-0.5616609 -0.281414,0 -0.657687,0.093505 -0.844243,0.2808306 z M 54.717646,3.9617458 c 0.657687,-1e-7 0.657687,-1e-7 0.657687,-1e-7 -3e-6,2.0590025 -3e-6,2.0590025 -3e-6,2.0590025 0,0.093505 0,0.1873256 0,0.2808305 0.0917,0.561661 0.467969,0.9359963 0.935938,0.9359963 0,0 0.09486,0 0.186556,-10e-8 -1e-6,0.6551659 -1e-6,0.6551659 -1e-6,0.6551659 -0.0917,0 -0.0917,0 -0.186556,0 -0.467969,10e-8 -0.844241,-0.3743352 -1.030796,-0.8424913 0,0 0,0 0,0 -10e-7,0.7489866 -10e-7,0.7489866 -10e-7,0.7489866 -0.562828,1e-7 -0.562828,1e-7 -0.562828,1e-7 0,-0.3743354 1e-6,-0.7489866 1e-6,-1.2168269 z m -3.370648,2.3398335 c 0.0917,0.4681561 0.37311,1.0295012 1.027635,1.0295011 0.749383,-1e-7 0.939102,-0.655166 0.939102,-1.0295014 z m 2.529566,-0.5616614 c 0,0.093821 -1e-6,0.1873256 -1e-6,0.3743354 0,0.6554818 -0.281416,1.7784879 -1.407072,1.7784881 -1.122494,10e-8 -1.685321,-0.9359962 -1.68532,-2.0590023 10e-7,-1.123322 0.654527,-1.9658136 1.685324,-1.9658138 0.654525,-10e-8 1.030798,0.1873255 1.217353,0.2808304 -0.0917,0.4681561 -0.0917,0.4681561 -0.0917,0.4681561 -0.281414,-0.093821 -0.562828,-0.1873255 -1.030798,-0.1873255 -0.657686,10e-8 -1.217353,0.3743356 -1.217354,1.310332 z m -6.747616,2.0593193 c 1.312215,-3.8374906 1.312215,-3.8374906 1.312215,-3.8374906 0.654525,0 0.654525,0 0.654525,0 1.407067,3.8374902 1.407067,3.8374902 1.407067,3.8374902 -0.749384,1e-7 -0.749384,1e-7 -0.749384,1e-7 C 49.095686,5.6464137 49.095686,5.6464137 49.095686,5.6464137 49.00399,5.2720783 48.909132,4.9912478 48.817435,4.7104173 c 0,0 0,0 0,0 -0.09486,0.2808306 -0.189718,0.5616611 -0.376273,0.9359965 -0.654528,2.1528233 -0.654528,2.1528233 -0.654528,2.1528233 z m -1.0308,1.4976575 c -0.186555,1e-7 -0.37311,-0.1873255 -0.37311,-0.468156 0,-0.1873257 0.186556,-0.3743354 0.373111,-0.3743355 0.281414,0 0.467969,0.1870097 0.467969,0.3743353 0,0.2808306 -0.186556,0.4681562 -0.46797,0.4681562 m 0.376275,-1.4976574 c -0.657687,1e-7 -0.657687,1e-7 -0.657687,1e-7 4e-6,-3.8374904 4e-6,-3.8374904 4e-6,-3.8374904 0.657687,-10e-8 0.657687,-10e-8 0.657687,-10e-8 z M 41.696712,3.9617476 c 0.654524,-10e-8 0.654524,-10e-8 0.654524,-10e-8 -2e-6,2.339833 -2e-6,2.339833 -2e-6,2.339833 0,0.093505 0,0.1873256 0,0.2808305 0.186555,0.3743353 0.467968,0.7486707 0.935938,0.7486706 0.562828,-1e-7 0.844242,-0.5613452 0.844243,-1.1230062 3e-6,-2.2463282 3e-6,-2.2463282 3e-6,-2.2463282 0.654524,-10e-8 0.654524,-10e-8 0.654524,-10e-8 -2e-6,2.2463282 -2e-6,2.2463282 -2e-6,2.2463282 -10e-7,1.3103317 -0.841082,1.6846672 -1.309052,1.6846673 -0.562828,1e-7 -1.030797,-0.3743352 -1.220514,-0.7486706 0,0 0,0 0,0 0,0.6551659 0,0.6551659 0,0.6551659 -0.559667,1e-7 -0.559667,1e-7 -0.559667,1e-7 10e-7,-0.2808305 10e-7,-0.6551659 10e-7,-1.0295013 z M 36.91899,9.296896 c 4e-6,-3.0888197 4e-6,-3.0888197 4e-6,-3.0888197 2e-6,-1.684983 0.749386,-2.340149 1.780183,-2.3401491 1.122495,-10e-8 1.871878,0.6551656 1.871876,2.3401486 -4e-6,3.0888197 -4e-6,3.0888197 -4e-6,3.0888197 -0.654524,10e-8 -0.654524,10e-8 -0.654524,10e-8 3e-6,-3.1826404 3e-6,-3.1826404 3e-6,-3.1826404 10e-7,-1.1230061 -0.467968,-1.6846671 -1.217351,-1.684667 -0.657687,10e-8 -1.125657,0.5616612 -1.125658,1.6846673 -4e-6,3.1826404 -4e-6,3.1826404 -4e-6,3.1826404 z M 31.202496,3.961749 c 0.657371,-1e-7 0.657371,-1e-7 0.657371,-1e-7 -3e-6,2.339833 -3e-6,2.339833 -3e-6,2.339833 0,0.093505 0,0.1873256 0.0917,0.2808305 0.09486,0.3743354 0.467968,0.7486707 0.844241,0.7486706 0.654525,-10e-8 0.844243,-0.5613452 0.844243,-1.1230062 3e-6,-2.2463281 3e-6,-2.2463281 3e-6,-2.2463281 0.654525,-10e-8 0.654525,-10e-8 0.654525,-10e-8 -3e-6,2.2463281 -3e-6,2.2463281 -3e-6,2.2463281 -10e-7,1.3103318 -0.749385,1.6846672 -1.312213,1.6846673 -0.562828,10e-8 -0.935939,-0.3743352 -1.122494,-0.7486706 0,0 0,0 0,0 -0.09486,0.6551659 -0.09486,0.6551659 -0.09486,0.6551659 -0.562512,1e-7 -0.562512,1e-7 -0.562512,1e-7 0,-0.2808305 10e-7,-0.6551659 10e-7,-1.0295013 z m -2.529568,3.3693346 c 0.749699,-1e-7 1.030798,-0.7486709 1.030799,-1.4038368 1e-6,-0.8424915 -0.4686,-1.4976573 -1.030796,-1.4976572 -0.65579,1e-7 -1.124076,0.655166 -1.124077,1.4976575 -10e-7,0.6551659 0.37469,1.4038366 1.124074,1.4038365 m -10e-7,0.561661 c -0.936571,10e-8 -1.779864,-0.7486705 -1.779863,-2.0590023 2e-6,-1.2168269 0.749386,-1.9658136 1.779867,-1.9658137 0.843294,-2e-7 1.780181,0.6551656 1.780179,2.0593181 -10e-7,1.1230061 -0.749385,1.9654977 -1.780183,1.9654979 m -2.904258,1.4041529 c -0.281098,0 -0.374692,-0.1873256 -0.374691,-0.4681561 0,-0.1873256 0.09359,-0.3743354 0.374692,-0.3743354 0.281098,0 0.374692,0.1870097 0.374691,0.3743353 0,0.2808305 -0.09359,0.4681562 -0.374692,0.4681562 m 0.2811,-1.4976574 c -0.562196,0 -0.562196,0 -0.562196,0 4e-6,-3.8374903 4e-6,-3.8374903 4e-6,-3.8374903 0.562196,-1e-7 0.562196,-1e-7 0.562196,-1e-7 z m -3.091757,-3.83749 c 0.656106,-1e-7 0.656106,-1e-7 0.656106,-1e-7 -2e-6,2.0590025 -2e-6,2.0590025 -2e-6,2.0590025 0,0.093505 0,0.1873256 0.09359,0.2808305 0.09359,0.561661 0.374691,0.9359963 0.842977,0.9359963 0.09391,0 0.187504,-1e-7 0.187504,-1e-7 -1e-6,0.6551659 -1e-6,0.6551659 -1e-6,0.6551659 0,0 -0.09359,0 -0.187504,0 -0.374692,1e-7 -0.842977,-0.3743352 -0.93657,-0.8424913 -0.09391,0 -0.09391,0 -0.09391,0 -1e-6,0.7489866 -1e-6,0.7489866 -1e-6,0.7489866 -0.562196,10e-8 -0.562196,10e-8 -0.562196,10e-8 0,-0.3743354 1e-6,-0.7489866 1e-6,-1.2168269 z m -1.030485,3.8374905 c -0.65579,1e-7 -0.65579,1e-7 -0.65579,1e-7 3e-6,-2.3401489 3e-6,-2.3401489 3e-6,-2.3401489 0,-0.093505 0,-0.2808305 -0.09359,-0.3743353 -0.09359,-0.2808305 -0.374691,-0.561661 -0.843293,-0.5616609 -0.562196,0 -0.749384,0.4681562 -0.749385,1.216827 -2e-6,2.0593183 -2e-6,2.0593183 -2e-6,2.0593183 -0.65579,1e-7 -0.65579,1e-7 -0.65579,1e-7 3e-6,-2.2463281 3e-6,-2.2463281 3e-6,-2.2463281 1e-6,-1.3103318 0.655791,-1.6849831 1.217987,-1.6849832 0.65579,-10e-8 1.030481,0.468156 1.124074,0.7489865 0.09359,0 0.09359,0 0.09359,0 1e-6,-0.6551659 1e-6,-0.6551659 1e-6,-0.6551659 0.562196,-10e-8 0.562196,-10e-8 0.562196,-10e-8 -10e-7,0.3743354 -10e-7,0.6551659 -10e-7,1.1230062 z M 17.99279,6.7697399 c -1.686587,2e-7 -1.686587,2e-7 -1.686587,2e-7 0,-0.561661 0,-0.561661 0,-0.561661 1.030798,-1e-7 1.030798,-1e-7 1.030798,-1e-7 2e-6,-1.5911623 2e-6,-1.5911623 2e-6,-1.5911623 -0.187504,-0.093821 -0.468602,-0.093821 -0.843294,-0.093821 -1.217985,2e-7 -1.96737,0.7489869 -1.967371,2.1528235 -2e-6,1.3103318 0.842975,2.0593183 2.06096,2.0593181 0.468602,0 0.843294,-0.093821 1.030798,-0.1873257 0.187187,0.5616609 0.187187,0.5616609 0.187187,0.5616609 -0.187188,0.093505 -0.65579,0.1873258 -1.217985,0.1873258 -1.686271,3e-7 -2.716752,-1.1233216 -2.71675,-2.7144839 1e-6,-0.8424915 0.2811,-1.4976574 0.655792,-1.9654977 0.562196,-0.4681562 1.124076,-0.655166 1.873776,-0.6551661 0.655789,-10e-8 1.311579,0.1870095 1.592677,0.2808303 z M 11.434578,5.8337444 c 1.873775,-2e-7 1.873775,-2e-7 1.873775,-2e-7 0,0.5613451 0,0.5613451 0,0.5613451 -1.873775,2e-7 -1.873775,2e-7 -1.873775,2e-7 z M 7.68703,3.9617522 c 0.6557897,-10e-8 0.6557897,-10e-8 0.6557897,-10e-8 -2.5e-6,2.339833 -2.5e-6,2.339833 -2.5e-6,2.339833 -1e-7,0.093505 -3e-7,0.1873256 -4e-7,0.2808305 0.09391,0.3743353 0.4686011,0.7486707 0.8432929,0.7486706 0.6557896,-10e-8 0.8432943,-0.5613452 0.8432953,-1.1230062 2e-6,-2.2463282 2e-6,-2.2463282 2e-6,-2.2463282 0.65579,0 0.65579,0 0.65579,0 -3e-6,2.2463281 -3e-6,2.2463281 -3e-6,2.2463281 -10e-7,1.3103317 -0.7497014,1.6846672 -1.2179871,1.6846673 -0.6557896,1e-7 -1.030481,-0.3743352 -1.2179846,-0.7486706 0,0 0,0 0,0 -7e-7,0.6551659 -7e-7,0.6551659 -7e-7,0.6551659 -0.6557896,1e-7 -0.6557896,1e-7 -0.6557896,1e-7 C 7.687026,7.5184121 7.687027,7.1440767 7.687027,6.7697413 Z M 4.3141691,6.3015856 c 0.09391,0.4681562 0.3750069,1.0295012 1.0307965,1.0295011 0.7493836,-1e-7 0.8429782,-0.655166 0.8429786,-1.0295013 z M 6.8437345,5.7399243 c -1e-7,0.093821 -2e-7,0.1873256 -4e-7,0.3743354 -8e-7,0.6554817 -0.2807837,1.7784879 -1.4987691,1.778488 -1.0307976,2e-7 -1.6865862,-0.9359961 -1.686585,-2.0590022 1.2e-6,-1.123322 0.6557918,-1.9658136 1.7801833,-1.9658138 0.5621958,-1e-7 1.0304812,0.1873255 1.2179851,0.2808303 C 6.562954,4.6169182 6.562954,4.6169182 6.562954,4.6169182 6.2818562,4.5230975 6.0007585,4.4295926 5.5321566,4.4295927 4.8763669,4.4295928 4.3141708,4.8039282 4.3141698,5.7399246 Z M 0.56680852,6.4889118 c 0.56213248,-1e-7 0.56213248,-1e-7 0.56213248,-1e-7 0.6557897,-1e-7 1.3116113,-0.2808307 1.311612,-0.9359966 9e-7,-0.8424915 -0.6558202,-1.029817 -1.3116098,-1.0298169 -0.28106628,0 -0.37475503,0 -0.56213254,0 z m -2.45e-6,2.2463281 c 0.0936887,0 0.28106616,0.093505 0.56213243,0.093505 0.6557896,-10e-8 1.1242337,-0.2808307 1.1242344,-0.9359965 5e-7,-0.4678403 -0.3747224,-0.8424915 -1.1242325,-0.8424914 -0.56213249,10e-8 -0.56213249,10e-8 -0.56213249,10e-8 z M -0.08899745,4.0552581 c 0.28106004,-0.093505 0.56211997,-0.093505 1.03056374,-0.093505 0.84316711,-1e-7 1.40529951,0.1870095 1.68636541,0.46784 0.281066,0.2808305 0.4684431,0.6551658 0.4684427,1.0295012 -1e-6,0.8424915 -0.5621339,1.2168269 -1.0305779,1.4041526 0,0 0,0 0,0 0.4684436,0.1870097 0.8431981,0.6551658 0.8431976,1.123006 -5e-7,0.4681562 -0.1873783,0.7489867 -0.4684448,0.9359965 -0.2810349,0.2808305 -0.6558217,0.3746513 -1.3116113,0.3746514 -0.46844379,1e-7 -0.93688123,2e-7 -1.21794106,-0.093821 z" /><path
         inkscape:connector-curvature="0"
         id="path74"
         style="fill:#58595b;fill-opacity:1;fill-rule:nonzero;stroke:none;stroke-width:0.31604517"
         d="m 103.81016,13.415208 c 0.28142,-0.280831 0.56283,-0.468156 0.84425,-0.748987 0.28141,0.187326 0.46796,0.468156 0.65452,0.748987 -0.28141,0.280514 -0.56283,0.561345 -0.93594,0.748671 -0.18655,-0.187326 -0.37627,-0.468157 -0.56283,-0.748671 m -2.15329,2.807673 c -0.37627,0 -0.56283,-0.280514 -0.56283,-0.46784 0,-0.187325 0.0917,-0.468156 0.56283,-0.468156 0.37311,0 0.37311,0 0.37311,0 1.21735,0 2.24815,0.374651 3.27895,1.029817 1.21735,0.842175 1.21735,0.842175 1.21735,0.842175 0.28141,0.09382 0.65769,0.280831 1.31221,0.28083 0.37627,0.748987 0.37627,0.748987 0.37627,0.748987 0,0 0,0 0,0 -0.56283,0 -0.56283,0 -0.56283,0 -0.46797,0 -0.93593,0.0935 -1.31221,0.280831 -1.21735,0.46784 -1.96674,0.655166 -2.4347,0.655166 -0.93911,0 -1.59363,-0.561661 -1.68849,-1.404152 0.37628,-0.935997 0.37628,-0.935997 0.37628,-0.935997 0.0948,0 0.0948,0 0.0948,0 0.18656,0.655166 0.18656,0.655166 0.18656,0.655166 -0.0949,0.374335 -0.0949,0.374335 -0.0949,0.374335 0.28141,0.187326 0.56283,0.374652 1.0308,0.374652 0.65768,0 1.40707,-0.187326 2.34301,-0.561662 0,0 0,0 0,0 -1.59363,-0.935996 -2.81098,-1.404152 -4.02833,-1.404152 z m 0,0 c -0.0949,0 -0.0949,0 -0.0949,0 -0.0949,0 -0.28141,0 -0.46797,0.09382 -0.28141,0.09351 -0.56283,0.374336 -0.56283,0.842176 0,0.374651 0,0.374651 0,0.374651 0,1.871993 0,3.837491 -0.18656,5.428653 0,0.09351 0,0.09351 0,0.09351 -0.28142,-0.187326 -0.46797,-0.46784 -0.749384,-0.748671 0.0917,-1.591162 0.186559,-3.08882 0.18656,-4.492972 2e-6,-1.123006 2e-6,-1.591162 0.467974,-2.059003 0.37627,-0.374335 0.74938,-0.468156 1.31221,-0.468156 0.0949,0 0.0949,0 0.0949,0 z m -5.998234,1.123323 c 0.189717,0.46784 0.562828,0.748671 0.9391,0.748671 0.46797,0 1.030799,-0.561345 1.217355,-1.684667 0,-0.09351 -0.09486,-0.09351 -0.186555,-0.09351 -0.376273,0 -0.657687,0.09351 -0.939101,0.28083 -0.46797,0.18701 -0.841081,0.374336 -1.030799,0.748671 m -1.78018,-1.123322 c -0.37311,0 -0.467969,-0.280514 -0.467969,-0.46784 10e-7,-0.187325 0.09486,-0.468156 0.46797,-0.468156 0.189718,0 0.189718,0 0.189718,0 0.654525,0 1.030797,0.28083 1.217352,0.935996 0.0917,0 0.0917,0 0.0917,0 0.749385,-0.46784 1.50193,-0.842176 2.251314,-0.842176 0.373111,0 0.654525,0.280831 0.749383,0.935997 -0.09486,1.310331 -0.65769,2.620663 -1.593629,2.620663 -0.281414,0 -0.657687,-0.187325 -0.935939,-0.46784 -0.281413,-0.28083 -0.47113,-0.561661 -0.562827,-0.842491 -0.186554,-1.029501 -0.657685,-1.404153 -1.217351,-1.404153 z m -2.621262,0.748987 c -0.281414,0.280831 -0.657687,0.561662 -0.939102,0.748671 -0.0917,0.187326 -0.278252,0.280831 -0.373111,0.468156 0,0 0,0 0,0 0.373111,0.09351 0.844242,0.09351 1.312212,0.09351 0.562828,0 1.030797,-0.09351 1.403908,-0.187326 0,0 0,0 0,0 -0.467969,-0.46784 -0.935938,-0.74867 -1.31221,-1.123006 z m -2.997533,-0.748986 c -0.376273,0 -0.471131,-0.280514 -0.471131,-0.46784 0,-0.187326 0.09486,-0.468156 0.471132,-0.468156 0.278252,0 0.278252,0 0.278252,0 0.844242,0 1.688484,0.187325 2.624422,0.842491 0,0 0,0 0,0 0.749385,-0.561661 1.685324,-0.842492 2.529566,-0.842492 0.186555,0 0.186555,0 0.186555,0 -10e-7,0.935996 -10e-7,0.935996 -10e-7,0.935996 -0.281414,0 -0.281414,0 -0.281414,0 -0.654525,1e-6 -1.217353,0.187326 -1.685323,0.468157 0,0 0,0 0,0 1.312211,1.216827 1.312211,1.216827 1.312211,1.216827 0.186554,0.842175 0.186554,0.842175 0.186554,0.842175 -0.562828,0.187326 -1.312212,0.374652 -2.153292,0.374652 -0.749384,0 -1.40707,-0.187326 -1.966737,-0.280831 -0.281414,0 -0.281414,0 -0.281414,0 -0.281413,-0.842491 -0.281413,-0.842491 -0.281413,-0.842491 0,-0.09351 0,-0.09351 0,-0.09351 0.281414,0 0.281414,0 0.281414,0 0.0917,0 0.281415,-0.09382 0.46797,-0.28083 0.373111,-0.280831 0.749385,-0.748671 1.122496,-0.935997 0,-0.09351 0,-0.09351 0,-0.09351 -0.84108,-0.28083 -1.403908,-0.374651 -1.966736,-0.374651 z m -2.156461,6.08414 c -0.281414,0.374335 -0.562829,0.561345 -0.844243,0.842176 -0.186555,-0.18701 -0.467969,-0.467841 -0.654524,-0.748671 0.376273,-0.187326 0.562829,-0.46784 0.93594,-0.748671 0.189717,0.18701 0.376272,0.374335 0.562827,0.655166 m 1.40707,0.09351 c -0.281414,0.374335 -0.562828,0.561661 -0.844243,0.842491 -0.186555,-0.187325 -0.376272,-0.468156 -0.562827,-0.748986 0.281414,-0.18701 0.562829,-0.467841 0.844243,-0.748671 0.186555,0.187325 0.37311,0.374335 0.562827,0.655166 M 86.479479,17.15888 c -0.471132,-0.18701 -0.844242,-0.18701 -1.125657,-0.18701 -0.562828,0 -1.030797,0.09351 -1.030798,0.374336 0,0.374335 0.749383,0.935996 2.061594,1.684667 z m 0.0917,-0.842176 c 0.281415,-0.842491 0.844244,-1.029817 1.498768,-1.029817 0.189718,0 0.189718,0 0.189718,0 -10e-7,0.935996 -10e-7,0.935996 -10e-7,0.935996 -0.189718,0 -0.189718,0 -0.189718,0 -0.281414,0 -0.559666,0.09382 -0.749383,0.187326 -0.281415,0.187326 -0.281415,0.561661 -0.281416,1.123322 -10e-7,1.123006 -2e-6,2.339833 -0.0917,3.463155 -0.09486,0 -0.09486,0 -0.09486,0 -0.186555,-0.187326 -0.37311,-0.374651 -0.562827,-0.561661 0.09486,-0.655166 0.09486,-0.655166 0.09486,-0.655166 -1.312211,-0.655165 -2.15329,-1.404152 -2.434704,-2.059318 -0.189717,-0.28083 -0.281413,-0.655166 -0.281413,-0.842175 10e-7,-0.561661 0.654526,-0.842492 1.403909,-0.842492 0.562829,0 1.030798,0.09351 1.498767,0.28083 m -8.900902,-3.182323 c 0.376273,-0.280831 0.657687,-0.561661 0.939102,-0.842492 0.281413,0.280831 0.467969,0.46784 0.562827,0.748671 -0.281415,0.374651 -0.562829,0.655166 -0.844243,0.842492 -0.186555,-0.280831 -0.376272,-0.467841 -0.657686,-0.748671 m -0.935943,3.088504 c -0.37311,0 -0.467969,-0.280515 -0.467968,-0.46784 0,-0.187326 0.09486,-0.468157 0.467969,-0.468157 0.09486,0 0.09486,0 0.09486,0 1.217353,0 1.685323,0.09382 2.061595,0.468156 0.281414,0.374336 0.467968,0.842492 0.467968,1.403837 -10e-7,0.748986 -0.376275,1.684983 -0.749386,2.246644 0,0 0,0 0,0 -0.189717,-0.187326 -0.376272,-0.468156 -0.562827,-0.842492 0.373111,-0.748986 0.749385,-1.497657 0.749385,-1.871992 0,-0.0935 -0.186555,-0.187326 -0.376272,-0.280831 -0.373111,-0.09351 -0.84108,-0.187325 -1.498767,-0.187325 z m -4.401446,3.743986 c 0.278252,-0.280831 0.559666,-0.46784 0.841081,-0.748671 0.281414,0.187326 0.467969,0.46784 0.657686,0.748671 -0.281415,0.28083 -0.562829,0.561661 -0.939102,0.748986 -0.186555,-0.187325 -0.37311,-0.468156 -0.559665,-0.748986 m 2.339849,-1.497342 c -0.186555,-0.28083 -0.37311,-0.561661 -0.559665,-0.842491 0.186555,-0.280831 0.373111,-0.655166 0.654526,-1.216827 0.186556,-0.655166 0.186556,-0.935997 0.186556,-1.216827 10e-7,-0.280831 -0.186554,-0.561661 -0.467968,-0.748671 -0.467969,-0.374335 -1.217353,-0.655166 -1.875039,-0.655166 -0.559667,10e-7 -1.122495,0.18701 -1.403909,0.467841 -0.281415,0.28083 -0.46797,0.655166 -0.467971,1.310332 -10e-7,0.374651 0.0917,0.935996 0.373109,1.404152 -0.281414,0.18701 -0.281414,0.18701 -0.281414,0.18701 -0.37311,-0.561345 -0.654524,-1.216511 -0.654523,-2.246328 2e-6,-1.310332 0.935942,-2.246328 2.343012,-2.246329 0.84108,0 1.966736,0.561661 2.529564,1.216827 0.186555,0.28083 0.467968,1.029501 0.467967,1.778488 0,0 0,0 0,0 0.281414,-0.280831 0.654525,-0.374652 1.125657,-0.374652 0.0917,0 0.0917,0 0.0917,0 -1e-6,0.935997 -1e-6,0.935997 -1e-6,0.935997 -0.0917,0 -0.0917,0 -0.0917,0 -0.752546,0 -1.125657,0.09382 -1.312213,0.842491 -0.189718,0.468157 -0.376274,0.842492 -0.657688,1.404153 z M 60.994115,16.222887 c -0.373111,0 -0.467969,-0.280515 -0.467969,-0.46784 0,-0.187326 0.09486,-0.468156 0.46797,-0.468157 0.281414,0 0.281414,0 0.281414,0 0.562828,0 1.125656,0.187326 1.780181,0.374651 0.9391,0.374336 1.498767,0.374336 2.716119,0.842176 0.376272,0.935996 0.376272,0.935996 0.376272,0.935996 -0.09486,0 -0.09486,0 -0.09486,0 -0.84108,-0.28083 -1.498766,-0.561345 -2.058433,-0.561345 -0.281414,0 -0.657687,0.18701 -0.939101,0.467841 -0.46797,0.28083 -0.654526,0.655166 -0.654526,1.029501 0,0.28083 0.562827,0.655166 1.403908,0.655166 0.467969,0 0.939101,-0.18701 1.312212,-0.467841 0.186555,0.09351 0.186555,0.09351 0.186555,0.09351 -0.46797,0.748987 -1.030799,1.216827 -1.685324,1.216827 -0.654524,0 -1.217352,-0.374335 -1.593624,-0.935996 -0.186555,-0.374335 -0.281414,-0.655166 -0.281413,-1.029501 0,-0.655166 0.281415,-1.123322 0.844244,-1.497658 0,0 0,0 0,0 -0.46797,-0.09351 -0.844242,-0.187325 -1.122495,-0.187325 z m 1.220509,5.335147 c 0.278253,-0.28083 0.559667,-0.561345 0.841081,-0.842175 0.281414,0.28083 0.467969,0.46784 0.657686,0.74867 -0.281414,0.280831 -0.562828,0.561662 -0.939101,0.842492 -0.186556,-0.28083 -0.373111,-0.561661 -0.559666,-0.748987 m -2.343003,-5.335147 c -0.562828,0 -0.935939,0 -1.407071,0.187326 -0.467969,0.09351 -0.84108,0.28083 -0.841081,0.655166 0,0.374335 0.467969,0.748671 0.84108,0.74867 0.281414,0 0.562828,-0.187009 0.844242,-0.46784 0.281415,-0.28083 0.46797,-0.655166 0.56283,-1.123322 m 0.467969,0 c -0.186557,1.591162 -0.935942,2.527159 -1.593628,2.527159 -0.46797,0 -0.935939,-0.280515 -1.217353,-0.748671 -0.186555,-0.28083 -0.37311,-0.655166 -0.373109,-1.123006 10e-7,-1.123322 0.841082,-1.591478 2.339849,-1.591478 0.376273,0 0.376273,0 0.376273,0 -0.09486,-0.374336 -0.376272,-0.655166 -0.749383,-1.029501 -0.562827,-0.655166 -1.31221,-1.029502 -2.061594,-1.029501 -0.467969,0 -0.844242,0.09351 -1.125656,0.28083 -0.0917,-0.28083 -0.0917,-0.28083 -0.0917,-0.28083 0.749384,-0.468157 1.498768,-0.748671 2.153293,-0.748671 0.376273,0 1.217353,0.374335 1.78018,1.310331 0.376272,0.46784 0.562827,1.029501 0.562826,1.497342 0.654525,-1e-6 0.654525,-1e-6 0.654525,-1e-6 -10e-7,0.935997 -10e-7,0.935997 -10e-7,0.935997 z m -5.621961,2.995316 c -0.186555,-0.374336 -0.37311,-0.655166 -0.562827,-1.029502 0.376274,-0.468156 0.657688,-1.029817 0.939103,-1.591162 0,-0.187326 0.0917,-0.280831 0.0917,-0.374651 0,-0.09351 0,-0.280515 -0.0917,-0.374336 -0.467969,-1.123006 -1.593624,-1.965497 -2.624421,-2.059002 -0.373111,0 -0.654525,0.09351 -0.844243,0.18701 -0.0917,-0.28083 -0.0917,-0.28083 -0.0917,-0.28083 0.749384,-0.374336 1.403909,-0.561346 1.966737,-0.561346 0.376273,0 0.749383,0.18701 1.217352,0.655166 0.562828,0.748671 0.935938,1.403836 0.935937,2.152823 -1e-6,0.748671 -1e-6,0.748671 -1e-6,0.748671 -10e-7,0.655166 -0.186557,1.123006 -0.373112,1.497657 -0.56283,0.935997 -0.56283,0.935997 -0.56283,0.935997 z m -3.652052,-6.177639 c -0.281415,0.374651 -0.471132,0.655166 -0.844243,0.842491 -0.186555,-0.187325 -0.376272,-0.46784 -0.562828,-0.74867 0.281415,-0.187326 0.562829,-0.468157 0.844244,-0.748987 0.281413,0.187326 0.37311,0.374335 0.562827,0.655166 m -1.40707,-0.09351 c -0.281415,0.374335 -0.562829,0.561661 -0.841082,0.842492 -0.189717,-0.187326 -0.376272,-0.468156 -0.562827,-0.748987 0.281414,-0.18701 0.562829,-0.46784 0.841081,-0.748671 0.189717,0.187326 0.376273,0.374336 0.562828,0.655166 m -1.403912,3.27583 c -0.46797,0 -0.562828,-0.280515 -0.562828,-0.467841 0,-0.187325 0.09486,-0.468156 0.562829,-0.468156 0.0917,0 0.0917,0 0.0917,0 1.125657,0 1.688485,0.09382 1.969898,0.468156 0.278252,0.374335 0.559666,0.842492 0.559665,1.403837 -10e-7,0.748986 -0.467971,1.684983 -0.749386,2.246644 -0.0917,0 -0.0917,0 -0.0917,0 -0.189717,-0.187326 -0.376272,-0.468156 -0.562827,-0.842492 0.46797,-0.748986 0.749385,-1.497657 0.749386,-1.871993 0,-0.0935 -0.09486,-0.187325 -0.376273,-0.28083 -0.37311,-0.09351 -0.84108,-0.187325 -1.498767,-0.187325 z m -1.217353,0 c -0.471132,0 -0.939101,0 -1.312212,0.187326 -0.46797,0.09351 -0.844243,0.28083 -0.844243,0.655166 -10e-7,0.374335 0.376272,0.74867 0.844241,0.74867 0.281414,0 0.562829,-0.18701 0.749384,-0.46784 0.281415,-0.280831 0.46797,-0.655166 0.56283,-1.123322 m 0.559666,0 c -0.281416,1.591162 -0.935942,2.527158 -1.685325,2.527159 -0.46797,0 -0.844242,-0.280515 -1.125656,-0.748671 -0.186555,-0.280831 -0.37311,-0.655166 -0.373109,-1.123006 10e-7,-1.123322 0.749385,-1.591478 2.343011,-1.591479 0.281414,0 0.281414,0 0.281414,0 -0.09486,-0.374335 -0.281414,-0.655165 -0.657686,-1.029501 -0.654524,-0.655166 -1.312211,-1.029501 -2.061594,-1.029501 -0.46797,0 -0.841081,0.09351 -1.122495,0.280831 -0.09486,-0.280831 -0.09486,-0.280831 -0.09486,-0.280831 0.657687,-0.468156 1.407071,-0.748671 2.156455,-0.748671 0.37311,0 1.217352,0.374336 1.780179,1.310332 0.278252,0.46784 0.559665,1.029501 0.559665,1.497341 0.657687,0 0.657687,0 0.657687,0 -10e-7,0.935997 -10e-7,0.935997 -10e-7,0.935997 z m -8.338083,5.054318 c 0.281414,-0.280515 0.562828,-0.46784 0.844243,-0.748671 0.281414,0.187326 0.467969,0.468156 0.654524,0.748671 -0.281415,0.28083 -0.559667,0.561661 -0.93594,0.748987 -0.186555,-0.187326 -0.37311,-0.468156 -0.562827,-0.748987 M 41.88325,19.59254 c -0.281414,-0.280831 -0.467969,-0.561661 -0.654524,-0.935997 0.278253,-0.374335 0.46797,-0.842491 0.654527,-1.497657 0.09486,-0.374336 0.281414,-0.748671 0.281415,-1.310332 0,-0.09351 -0.186555,-0.374335 -0.562828,-0.561661 -0.467969,-0.374335 -1.217352,-0.655166 -1.78018,-0.655166 -0.562828,1e-6 -1.122495,0.187326 -1.403909,0.468157 -0.376273,0.28083 -0.562829,0.655166 -0.562829,1.310332 -1e-6,0.374335 0.186554,0.935996 0.467967,1.403836 -0.281414,0.187326 -0.281414,0.187326 -0.281414,0.187326 -0.37311,-0.561661 -0.654523,-1.310332 -0.654522,-2.246328 1e-6,-1.310332 0.841082,-2.246328 2.248153,-2.246329 0.935939,0 1.871877,0.46784 2.529563,1.123006 0.281414,0.374651 0.562827,1.216827 0.562826,1.965814 -10e-7,1.123006 -0.281416,2.059002 -0.844245,2.994999 z M 29.703721,11.449404 c -0.281098,0.374652 -0.562197,0.655166 -0.843295,0.842492 -0.187504,-0.187326 -0.374691,-0.46784 -0.562195,-0.748671 0.281098,-0.187325 0.562197,-0.468156 0.843295,-0.748986 0.187504,0.187325 0.374691,0.374335 0.562195,0.655165 m 1.498767,0.187326 c -0.374692,0.28083 -0.56188,0.561661 -0.936572,0.748671 -0.187504,-0.18701 -0.375008,-0.467841 -0.562195,-0.655166 0.281098,-0.280831 0.562196,-0.561661 0.842978,-0.842176 0.281098,0.18701 0.375007,0.374335 0.655789,0.748671 m 0.749059,7.019815 c -0.186555,0 -0.374059,0 -0.561563,0 -0.749384,0 -1.405173,0.28083 -1.405174,0.655166 0,0.28083 0.374691,0.655166 0.842977,0.655165 0.468602,0 0.842345,-0.46784 1.12376,-1.310331 m 0.186557,-1.029502 c 0,-0.374335 -0.654524,-0.655165 -1.872193,-0.74867 -0.375007,-0.842492 -0.375007,-0.842492 -0.375007,-0.842492 0,0 0,0 0,0 1.311579,0 2.718333,-0.280831 2.718334,-0.561661 -0.281414,-0.28083 -0.562828,-0.46784 -1.031746,-0.748671 -0.655789,-0.374335 -1.217984,-0.56166 -2.154872,-0.56166 -0.7497,0 -1.31158,0.28083 -1.780182,0.842491 -0.281098,0.467841 -0.468287,0.935997 -0.468287,1.497342 -10e-7,0.468156 0.09359,1.029817 0.37469,1.591162 -0.374692,0.09382 -0.374692,0.09382 -0.374692,0.09382 -0.281097,-0.748987 -0.4686,-1.497657 -0.4686,-2.340149 10e-7,-0.842175 0.2811,-1.497341 0.749702,-2.059002 0.468287,-0.374336 1.124076,-0.655166 1.873776,-0.655167 1.030482,0 1.779865,0.280831 2.622526,0.748671 0.376272,0.28083 0.749382,0.655166 0.844241,0.935996 0.186555,0.280831 0.281413,0.561661 0.281413,0.842492 -1e-6,0.561345 -0.09486,0.74867 -0.844243,0.935996 0.186555,0.374335 0.376272,0.748671 0.376271,1.123006 0,0.655166 -0.09486,1.310332 -0.281416,1.778488 -0.376273,0.842176 -0.844244,1.403837 -1.406123,1.403837 -0.281098,0 -0.562196,-0.18701 -0.843293,-0.46784 -0.374692,-0.374336 -0.562195,-0.935997 -0.562194,-1.404153 0,-0.187009 0,-0.374335 0.09359,-0.561345 0.281098,-0.468156 0.843295,-0.748987 1.686588,-0.748987 0.281098,0 0.563461,0.09351 0.750016,0.09351 0,-0.09351 0.0917,-0.18701 0.0917,-0.18701 m -2.247207,4.773487 c 0.375008,-0.28083 0.65579,-0.46784 0.936888,-0.74867 0.281098,0.187009 0.468601,0.46784 0.655789,0.74867 -0.374692,0.280831 -0.65579,0.561661 -0.936888,0.748671 -0.187188,-0.18701 -0.374692,-0.46784 -0.655789,-0.748671 m -8.33807,-7.300644 c 0.468285,0.46784 0.655789,0.842492 0.655788,1.216827 0.09359,0.374335 0.09359,0.748671 0.09359,1.216827 -2e-6,1.778172 -0.0936,3.650165 -0.187194,5.334832 -0.09391,0 -0.09391,0 -0.09391,0 -0.280781,-0.18701 -0.561879,-0.561345 -0.749383,-0.842176 0.0936,-1.216827 0.281102,-3.276145 0.281103,-4.586477 1e-6,-0.748671 1e-6,-0.748671 1e-6,-0.748671 10e-7,-0.561661 10e-7,-1.029501 -0.09359,-1.497657 z m -3.841145,1.123007 c -0.374692,0 -0.468602,-0.280515 -0.468602,-0.46784 10e-7,-0.187326 0.09391,-0.468157 0.468603,-0.468157 0.187187,0 0.187187,0 0.187187,0 0.281098,0 0.656106,0.09382 0.936888,0.187326 0.281097,0.187325 0.468601,0.561661 0.655788,0.935996 0.187504,0.468156 0.281097,1.029501 0.281096,1.871993 -1e-6,0.842491 -0.0936,1.684667 -0.0936,2.620663 0.187503,0.09382 0.374691,0.187326 0.468601,0.374336 -0.375009,0.655482 -0.562197,1.216827 -0.562198,1.684983 -0.09391,0.09351 -0.09391,0.09351 -0.09391,0.09351 -0.187187,-0.187326 -0.280781,-0.280831 -0.374691,-0.467841 -0.187188,-0.187325 -0.281098,-0.28083 -0.281097,-0.468156 0,-0.28083 0.09391,-0.655166 0.09391,-0.935996 0.0936,-1.403837 0.18719,-2.714168 0.187192,-3.930995 0,-0.374336 -0.09359,-0.655166 -0.374691,-0.842492 -0.281098,-0.09351 -0.562196,-0.187325 -0.843294,-0.187325 z m -3.372859,0 c -0.374691,0 -0.468285,-0.280514 -0.468285,-0.46784 0,-0.187326 0.0936,-0.468156 0.468286,-0.468156 0.187504,0 0.187504,0 0.187504,0 0.65579,0 1.217985,0.28083 1.499083,0.748986 0,0 0,0 0,0 0.280782,-0.561661 0.842978,-0.748987 1.592678,-0.748987 0.09359,0 0.09359,0 0.09359,0 -10e-7,0.935997 -10e-7,0.935997 -10e-7,0.935997 -0.09359,0 -0.09359,0 -0.09359,0 -0.375008,0 -0.656106,0.09382 -0.936888,0.374651 -0.187504,0.09351 -0.281098,0.280831 -0.281099,0.561345 0,0.187326 0.09359,0.468156 0.187187,0.842492 0,0.09351 0,0.09351 0,0.09351 -0.561879,-0.374336 -0.561879,-0.374336 -0.561879,-0.374336 -0.187503,-0.842175 -0.187503,-0.842175 -0.187503,-0.842175 -0.09359,-0.374651 -0.749383,-0.655482 -1.311579,-0.655482 z m 0.936884,3.837806 c 0.281098,-0.28083 0.562196,-0.561661 0.843294,-0.842491 0.281098,0.28083 0.468285,0.46784 0.655789,0.74867 -0.281098,0.280831 -0.65579,0.561661 -0.936888,0.842492 -0.187504,-0.28083 -0.374692,-0.561661 -0.562195,-0.748671 M 11.902852,16.69105 c -0.65579,0.187325 -0.936572,0.561661 -1.030482,0.935996 0.09391,0.561661 0.655788,1.310332 1.217984,1.310332 0.374691,0 0.562196,-0.280831 0.749384,-0.655166 0.09391,-0.187326 0.187504,-0.468156 0.187505,-0.748671 0,-0.28083 -0.655789,-0.748987 -1.124391,-0.842491 M 9.3732878,16.222894 c -0.3746918,0 -0.4682854,-0.280515 -0.4682852,-0.46784 2e-7,-0.187326 0.093594,-0.468156 0.4682862,-0.468157 0.187504,0 0.187504,0 0.187504,0 0.4686022,0 1.2179852,0.187326 2.1548722,0.468156 0.936888,-0.28083 1.686272,-0.468156 2.435972,-0.468156 0.187187,0 0.187187,0 0.187187,0 -1e-6,0.935996 -1e-6,0.935996 -1e-6,0.935996 -0.187187,0 -0.187187,0 -0.187187,0 -0.562196,0 -0.936888,0.09382 -1.217986,0.187326 0.281097,0.468156 0.562195,1.029501 0.562194,1.684667 -10e-7,0.374651 -0.187505,0.748987 -0.281099,1.123322 -0.281099,0.561661 -0.655791,0.842492 -0.936889,0.842492 -0.281098,0 -0.749699,-0.280831 -1.12439,-0.748987 -0.468286,-0.46784 -0.655789,-1.123006 -0.655788,-1.778172 0,-0.28083 10e-7,-0.655166 0.281099,-1.123322 -0.374692,-0.09351 -0.8432935,-0.187325 -1.2179853,-0.187325 z m 2.5295592,5.335147 c -0.280782,0.374652 -0.561881,0.561661 -0.842979,0.842492 -0.187503,-0.187326 -0.468601,-0.46784 -0.655789,-0.748671 0.281099,-0.187325 0.562197,-0.468156 0.936889,-0.748986 0.187187,0.187325 0.281097,0.374335 0.561879,0.655165 m 1.405489,0.09382 c -0.281098,0.374335 -0.562196,0.561345 -0.843295,0.842176 -0.187187,-0.18701 -0.374691,-0.467841 -0.562195,-0.748671 0.281099,-0.187326 0.562197,-0.468156 0.843295,-0.748671 0.187504,0.18701 0.374691,0.374335 0.562195,0.655166 M 3.2836806,12.85356 C 3.5647787,12.666235 3.8458768,12.385404 4.126975,12.104574 4.4080727,12.291899 4.5952602,12.57273 4.7827639,12.85356 4.5016657,13.134391 4.2205675,13.415221 3.8458754,13.695736 3.6583717,13.415221 3.4711842,13.134391 3.2836806,12.85356 m 6.0896072,3.369334 c -0.093594,0 -0.093594,0 -0.093594,0 -0.3746918,0 -0.6557898,0.09382 -0.9368879,0.280831 -0.187188,0.187325 -0.2810983,0.374651 -0.2810987,0.748986 -2e-7,0.18701 0.09391,0.561345 0.1875032,0.748671 -1e-7,0.09351 -1e-7,0.09351 -1e-7,0.09351 C 7.7806089,17.720551 7.7806089,17.720551 7.7806089,17.720551 7.4059183,16.69105 7.4059183,16.69105 7.4059183,16.69105 7.1248206,16.503725 6.7501289,16.41022 6.3754373,16.316715 5.5321438,16.12939 4.6891665,16.035885 3.8458729,16.035885 c -0.9368876,0 -1.7800865,0.09351 -2.4358765,0.46784 -0.56213295,0.374652 -0.93688857,0.935997 -0.93688939,1.684984 -3e-7,0.28083 0.093688,0.655165 0.18737629,1.123006 -0.28106637,0.09382 -0.28106637,0.09382 -0.28106637,0.09382 -0.28106564,-0.56166 -0.46842979,-1.216826 -0.46842918,-1.778487 1.02e-6,-0.935997 0.46843286,-1.591163 1.12425465,-2.059319 0.6558217,-0.374335 1.5926778,-0.561345 2.6231276,-0.561345 0.9368875,0 1.9676849,0.187009 2.9045722,0.46784 0.4682854,0.187325 0.9368872,0.28083 1.1240748,0.468155 0.2810984,-0.468156 0.8432943,-0.655481 1.5926779,-0.655482 0.093594,0 0.093594,0 0.093594,0 z" /><path
         inkscape:connector-curvature="0"
         id="path76"
         style="fill:#58595b;fill-opacity:1;fill-rule:nonzero;stroke:none;stroke-width:0.31604517"
         d="m 108.21475,26.425336 c -0.37627,0.655166 -0.84424,1.403837 -1.49877,2.246328 0.84108,0.935996 1.21735,1.871993 1.21735,2.901494 0,0.935996 0,0.935996 0,0.935996 -0.84424,0 -0.84424,0 -0.84424,0 0,-1.497657 0,-1.497657 0,-1.497657 0,-0.655166 -0.18655,-1.310332 -0.65452,-1.965497 -1.21736,1.591162 -2.15646,2.714484 -2.81098,3.463155 -0.93594,0 -0.93594,0 -0.93594,0 0,-0.09477 0,-0.09477 0,-0.09477 0.74938,-0.841228 1.21735,-1.402889 1.49877,-1.68372 -0.56283,-0.748671 -0.84424,-1.310332 -1.0308,-1.778172 -0.0949,-0.468156 -0.18972,-0.935996 -0.18971,-1.684983 0,-0.935996 0,-0.935996 0,-0.935996 0.84424,0 0.84424,0 0.84424,0 0,1.310647 0,1.310647 0,1.310647 0,1.123006 0.18655,2.059003 0.65768,2.714169 1.21736,-1.497658 2.1533,-2.80799 2.90268,-4.024817 0.84424,0 0.84424,0 0.84424,0 z m -6.83931,4.773488 c 0,0.466892 -0.0949,0.842807 -0.37628,1.029185 -0.18655,0.186378 -0.46797,0.281146 -0.74938,0.281146 0,0 0,0 0,0 -0.18656,0 -0.373111,0 -0.373111,-0.09477 10e-7,-0.559134 10e-7,-0.559134 10e-7,-0.559134 0,0 0,0 0,0 0.0917,0 0.0917,0 0.0917,0 0.37627,0 0.65768,-0.189537 0.65768,-0.749934 10e-6,-4.773803 10e-6,-4.773803 10e-6,-4.773803 0.74938,0 0.74938,0 0.74938,0 z m -2.810981,-0.655166 c 0,0.655166 -0.186556,1.216827 -0.562829,1.497973 -0.281415,0.372756 -0.749384,0.467525 -1.217354,0.467525 -0.281414,0 -0.467969,0 -0.562828,-0.09477 1e-6,-0.653903 1e-6,-0.653903 1e-6,-0.653903 0.09486,0 0.09486,0 0.09486,0 0.0917,0.09477 0.281414,0.09477 0.373111,0.09477 0.749384,0 1.125657,-0.46942 1.125658,-1.405417 4e-6,-3.462839 4e-6,-3.462839 4e-6,-3.462839 -1.780181,0 -1.780181,0 -1.780181,0 0,-0.655481 0,-0.655481 0,-0.655481 2.529565,-1e-6 2.529565,-1e-6 2.529565,-1e-6 z m -3.936635,0.655166 c -10e-7,0.466893 -0.0917,0.842808 -0.373112,1.029186 -0.186556,0.186378 -0.46797,0.281146 -0.749384,0.281146 0,0 0,0 0,0 -0.186556,0 -0.376273,0 -0.46797,-0.09477 10e-7,-0.559134 10e-7,-0.559134 10e-7,-0.559134 0,0 0.0917,0 0.0917,0 0.09486,0 0.09486,0 0.09486,0 0.373111,0 0.654526,-0.189537 0.654526,-0.749934 2e-6,-2.059319 2e-6,-2.059319 2e-6,-2.059319 0.749384,0 0.749384,0 0.749384,0 z m -2.248146,-4.211825 c -0.46797,0 -0.46797,0 -0.46797,0 -0.186555,0 -0.373111,0.18701 -0.373111,0.561345 -3e-6,2.340149 -3e-6,2.340149 -3e-6,2.340149 -10e-7,0.842176 -0.281416,1.591162 -0.749386,2.058371 -0.471132,0.375915 -1.125657,0.562293 -1.780181,0.562293 -0.562829,0 -0.939101,0 -1.312212,-0.186378 10e-7,-0.657061 10e-7,-0.657061 10e-7,-0.657061 0,0 0,0 0,0 0.37311,0.09477 0.654524,0.189537 1.122494,0.189537 1.312212,-1e-6 1.969899,-0.749935 1.969901,-2.247592 2e-6,-2.059319 2e-6,-2.059319 2e-6,-2.059319 0,-0.28083 0.0917,-0.46784 0.0917,-0.561345 -3.370645,10e-7 -3.370645,10e-7 -3.370645,10e-7 10e-7,-0.655482 10e-7,-0.655482 10e-7,-0.655482 4.869412,-10e-7 4.869412,-10e-7 4.869412,-10e-7 z m -6.276486,2.901495 c -1e-6,0.935996 -0.281416,1.591162 -0.935941,2.058371 -0.46797,0.375915 -1.125657,0.562293 -1.875041,0.562293 -0.467969,0 -0.935939,0 -1.312211,-0.09477 0,-0.74867 0,-0.74867 0,-0.74867 0.09486,0 0.09486,0 0.09486,0 0.281414,0.09477 0.654525,0.189536 1.125656,0.189536 1.403909,0 2.153293,-0.749934 2.153295,-2.154087 3e-6,-3.36965 3e-6,-3.36965 3e-6,-3.36965 0.749384,0 0.749384,0 0.749384,0 z m -6.371339,-2.433653 c -0.37311,-0.46784 -0.841079,-0.655166 -1.498766,-0.655166 -1.217353,0 -1.780182,0.748671 -1.780184,2.246329 0,0.842491 -1e-6,1.403836 0.09486,1.778488 0.09486,0.28083 0.186555,0.561345 0.37311,0.74867 0.189717,0.187326 0.281414,0.282094 0.471131,0.282094 0.841081,0 0.841081,0 0.841081,0 0.657686,0 1.125656,-0.189537 1.40707,-0.46942 0.373112,-0.46784 0.559668,-1.123006 0.559669,-2.059002 10e-7,-0.748671 -0.186554,-1.404153 -0.467968,-1.871993 m 0.562824,4.400415 c -0.46797,0.372756 -1.122495,0.653902 -1.875041,0.653902 -2.902675,10e-7 -2.902675,10e-7 -2.902675,10e-7 0,-0.653903 0,-0.653903 0,-0.653903 1.030798,0 1.030798,0 1.030798,0 -0.467969,-0.469419 -0.749382,-1.030764 -0.935937,-1.779751 0,-0.280831 10e-7,-0.561345 10e-7,-1.029501 2e-6,-1.965498 0.841084,-2.901494 2.621265,-2.901495 0.749383,0 1.40707,0.280831 1.966735,0.842492 0.562828,0.655165 0.844241,1.403836 0.84424,2.433337 -10e-7,1.123322 -0.281416,1.871993 -0.749386,2.434918 m -6.371341,-0.656429 c 0,0.466893 -0.186556,0.842808 -0.373112,1.029186 -0.189717,0.186378 -0.467969,0.281146 -0.749383,0.281146 0,0 0,0 0,0 -0.189718,0 -0.376273,0 -0.46797,-0.09477 10e-7,-0.559134 10e-7,-0.559134 10e-7,-0.559134 0,0 0.0917,0 0.0917,0 0.09486,0 0.09486,0 0.09486,0 0.373111,0 0.562829,-0.189537 0.562829,-0.749935 2e-6,-2.059318 2e-6,-2.059318 2e-6,-2.059318 0.841081,0 0.841081,0 0.841081,0 z m -2.997534,0.561662 c -0.373112,0.467524 -0.749385,0.74867 -1.312213,0.748671 -0.559666,0 -1.030797,-0.186378 -1.217352,-0.748671 10e-7,-0.748987 10e-7,-0.748987 10e-7,-0.748987 0.09486,0 0.09486,0 0.09486,0 0.281414,0.561661 0.654524,0.843755 1.030797,0.843755 0.749384,0 1.030798,-0.749934 1.0308,-2.341096 10e-7,-0.842492 -0.189715,-1.591479 -0.471129,-2.059319 -0.37311,-0.374335 -0.749383,-0.655166 -1.309049,-0.655165 -1.125656,0 -1.688485,0.842491 -1.688487,2.339833 -4e-6,3.36965 -4e-6,3.36965 -4e-6,3.36965 -0.84108,0 -0.84108,0 -0.84108,0 4e-6,-3.275829 4e-6,-3.275829 4e-6,-3.275829 2e-6,-2.059319 0.841083,-2.995315 2.529568,-2.995315 0.749383,-10e-7 1.309049,0.28083 1.871877,0.842491 0.467968,0.655166 0.749381,1.497657 0.74938,2.527158 -10e-7,0.935997 -0.186557,1.684667 -0.467971,2.152824 m -6.276481,-1.965813 c -10e-7,1.123322 -0.281416,1.778488 -0.935941,2.24696 -0.471132,0.372756 -1.125657,0.467525 -2.156455,0.467525 -0.844242,0 -1.685322,0 -2.343009,-0.186378 10e-7,-0.657061 10e-7,-0.657061 10e-7,-0.657061 0.471131,0.09477 0.844242,0.189537 1.125656,0.189537 -0.186555,-0.375599 -0.281413,-0.749935 -0.281413,-1.124586 3e-6,-2.620664 3e-6,-2.620664 3e-6,-2.620664 10e-7,-0.842491 -0.281413,-1.216826 -0.935938,-1.216826 -0.09486,0 -0.186555,0 -0.281414,0.09382 -0.09486,-0.09382 -0.09486,-0.09382 -0.09486,-0.09382 0,-0.374336 0,-0.374336 0,-0.374336 0.09486,-0.187325 0.281415,-0.28083 0.562829,-0.28083 0.467969,0 0.749383,0.187325 1.030797,0.468156 0.37311,0.374335 0.467968,0.842175 0.467968,1.497341 -4e-6,3.462208 -4e-6,3.462208 -4e-6,3.462208 0,0.09477 0.09486,0.189536 0.186555,0.189536 0.189717,0.09161 0.376273,0.09161 0.471131,0.09161 0.841081,0 1.403909,-0.186378 1.77702,-0.373704 0.376273,-0.374335 0.657688,-0.935996 0.657689,-1.684667 3e-6,-3.556976 3e-6,-3.556976 3e-6,-3.556976 0.749384,0 0.749384,0 0.749384,0 z m -9.368872,-2.807672 c -0.46797,0 -0.46797,0 -0.46797,0 -0.186555,0 -0.281414,0.18701 -0.281414,0.561345 -3e-6,2.340149 -3e-6,2.340149 -3e-6,2.340149 -10e-7,0.842176 -0.281416,1.591162 -0.844244,2.058371 -0.46797,0.375915 -1.030798,0.562293 -1.780182,0.562293 -0.467969,0 -0.935939,0 -1.312212,-0.186378 1e-6,-0.657061 1e-6,-0.657061 1e-6,-0.657061 0.09486,0 0.09486,0 0.09486,0 0.281414,0.09477 0.657687,0.189537 1.030797,0.189537 1.403909,0 2.061596,-0.749935 2.061598,-2.247592 2e-6,-2.059319 2e-6,-2.059319 2e-6,-2.059319 1e-6,-0.28083 1e-6,-0.46784 0.09486,-0.561345 -3.468666,1e-6 -3.468666,1e-6 -3.468666,1e-6 10e-7,-0.655482 10e-7,-0.655482 10e-7,-0.655482 4.872574,-1e-6 4.872574,-1e-6 4.872574,-1e-6 z m -6.276487,4.211827 c -1e-6,0.466892 -0.186556,0.842807 -0.376274,1.029185 -0.186556,0.186378 -0.46797,0.281146 -0.749384,0.281147 0,0 0,0 0,0 -0.281414,0 -0.373111,0 -0.467969,-0.09477 0,-0.559134 0,-0.559134 0,-0.559134 0,0 0,0 0.09486,0 0.0917,0 0.0917,0 0.0917,0 0.376273,0 0.562828,-0.189537 0.562829,-0.749934 7e-6,-6.92631 7e-6,-6.92631 7e-6,-6.92631 0.844243,0 0.844243,0 0.844243,0 z m -2.529563,-1.497657 c -2.905838,0 -2.905838,0 -2.905838,0 1e-6,-0.655166 1e-6,-0.655166 1e-6,-0.655166 2.905838,0 2.905838,0 2.905838,0 z m -4.309745,-1.123006 c -2e-6,1.684667 -2e-6,1.684667 -2e-6,1.684667 -10e-7,0.748671 -0.186557,1.310332 -0.56283,1.684036 -0.373111,0.375914 -0.844243,0.562292 -1.403909,0.562293 -0.189717,0 -0.471131,0 -0.657687,0 1e-6,-0.748671 1e-6,-0.748671 1e-6,-0.748671 0.09486,0 0.09486,0 0.09486,0 0.0917,0.09477 0.281414,0.09477 0.467969,0.09477 0.373111,0 0.749384,-0.09477 0.93594,-0.46942 0.189717,-0.280514 0.376273,-0.655166 0.376274,-1.216511 0,-0.09382 0,-0.09382 0,-0.09382 10e-7,-0.655166 -0.09486,-1.310332 -0.281412,-1.778172 -0.186555,-0.468156 -0.467969,-0.842492 -0.749383,-1.029817 -0.281413,-0.18701 -0.467969,-0.280515 -0.657686,-0.280515 -0.186556,0 -0.373111,0 -0.559666,0.09351 -0.09486,0 -0.09486,0 -0.09486,0 10e-7,-0.655166 10e-7,-0.655166 10e-7,-0.655166 0.186555,-0.187325 0.376273,-0.187326 0.562828,-0.187326 0.749384,0 1.312211,0.561661 1.685321,1.684667 0,0.09382 0,0.09382 0.09486,0.09382 0,0 0.0917,0 0.0917,-0.09382 1e-6,-0.655166 0.09486,-1.216511 0.189719,-1.591162 0.654525,0 0.654525,0 0.654525,0 0.09486,0.09382 0.09486,0.09382 0.09486,0.09382 -0.189718,0.655166 -0.281416,1.403836 -0.281417,2.152823 m -4.309749,2.620664 c 0,0.466893 -0.09486,0.842808 -0.376273,1.029186 -0.186556,0.186377 -0.46797,0.281146 -0.749384,0.281146 0,0 0,0 0,0 -0.186556,0 -0.373111,0 -0.373111,-0.09477 1e-6,-0.559134 1e-6,-0.559134 1e-6,-0.559134 0,0 0,0 0,0 0.0917,0 0.0917,0 0.0917,0 0.471132,0 0.657687,-0.189537 0.657688,-0.749935 5e-6,-4.773802 5e-6,-4.773802 5e-6,-4.773802 0.749384,0 0.749384,0 0.749384,0 z m -2.810977,-1.310331 c -1e-6,0.935996 -0.281416,1.591162 -0.844244,2.058371 -0.46797,0.375914 -1.122495,0.562293 -1.871879,0.562293 -0.562828,0 -0.937836,0 -1.312528,-0.09477 10e-7,-0.74867 10e-7,-0.74867 10e-7,-0.74867 0.09359,0 0.09359,0 0.09359,0 0.281098,0.09477 0.561247,0.189536 1.029216,0.189536 1.407071,0 2.156455,-0.749934 2.156457,-2.154087 3e-6,-3.36965 3e-6,-3.36965 3e-6,-3.36965 0.749384,0 0.749384,0 0.749384,0 z m -5.246635,1.310332 c 0,0.466893 -0.0936,0.842808 -0.374693,1.029186 -0.187504,0.186378 -0.468602,0.281146 -0.7497,0.281146 0,0 0,0 0,0 -0.187188,0 -0.374692,0 -0.468285,-0.09477 0,-0.559134 0,-0.559134 0,-0.559134 0.09359,0 0.09359,0 0.09359,0 0.09391,0 0.09391,0 0.09391,0 0.374692,0 0.65579,-0.189537 0.655791,-0.749935 2e-6,-2.059318 2e-6,-2.059318 2e-6,-2.059318 0.749384,0 0.749384,0 0.749384,0 z m -2.810662,1e-6 c -1e-6,0.466892 -0.0936,0.842807 -0.374693,1.029185 -0.187504,0.186378 -0.468602,0.281146 -0.749384,0.281146 0,0 0,0 0,0 -0.187504,10e-7 -0.375008,10e-7 -0.468602,-0.09477 1e-6,-0.559134 1e-6,-0.559134 1e-6,-0.559134 0.09359,0 0.09359,0 0.09359,0 0.09391,0 0.09391,0 0.09391,0 0.374691,0 0.65579,-0.189537 0.65579,-0.749934 5e-6,-4.773803 5e-6,-4.773803 5e-6,-4.773803 0.749384,0 0.749384,0 0.749384,0 z m -2.904257,0 c 0,0.466893 -0.0936,0.842807 -0.281099,1.029185 -0.187188,0.186378 -0.468286,0.281147 -0.749384,0.281147 -0.09391,0 -0.09391,0 -0.09391,0 -0.187188,0 -0.280782,0 -0.374692,-0.09477 10e-7,-0.559133 10e-7,-0.559133 10e-7,-0.559133 0,0 0,0 0.09391,0 0.09359,0 0.09359,0 0.09359,0 0.374692,0 0.562196,-0.189537 0.562197,-0.749935 7e-6,-6.92631 7e-6,-6.92631 7e-6,-6.92631 0.749384,0 0.749384,0 0.749384,0 z M 19.02326,26.987015 c -0.374692,0 -0.374692,0 -0.374692,0 -0.281097,0 -0.374692,0.18701 -0.374692,0.561345 -2e-6,2.340149 -2e-6,2.340149 -2e-6,2.340149 -1e-6,0.842176 -0.2811,1.591162 -0.843296,2.058371 -0.468603,0.375915 -1.030482,0.562293 -1.780182,0.562293 -0.468286,0 -0.936888,0 -1.311579,-0.186378 0,-0.657061 0,-0.657061 0,-0.657061 0.09359,0 0.09359,0 0.09359,0 0.281098,0.09477 0.656106,0.189537 1.124392,0.189537 1.311579,-10e-7 1.967369,-0.749935 1.967371,-2.247592 2e-6,-2.059319 2e-6,-2.059319 2e-6,-2.059319 1e-6,-0.28083 1e-6,-0.46784 0.09391,-0.561345 -3.466452,1e-6 -3.466452,1e-6 -3.466452,1e-6 10e-7,-0.655482 10e-7,-0.655482 10e-7,-0.655482 4.871625,-1e-6 4.871625,-1e-6 4.871625,-1e-6 z m -6.277118,3.556661 c -1e-6,0.655166 -0.18719,1.216827 -0.562198,1.497973 -0.281098,0.372756 -0.65579,0.467524 -1.21767,0.467525 -0.281097,0 -0.468601,0 -0.562195,-0.09477 0,-0.653902 0,-0.653902 0,-0.653902 0.09359,0 0.09359,0 0.09359,0 0.09359,0.09477 0.281098,0.09477 0.374692,0.09477 0.7497,0 1.124392,-0.46942 1.124393,-1.405416 4e-6,-3.462839 4e-6,-3.462839 4e-6,-3.462839 -1.686587,0 -1.686587,0 -1.686587,0 0,-0.655482 0,-0.655482 0,-0.655482 2.435971,0 2.435971,0 2.435971,0 z M 8.7174846,28.578173 c -1.8e-6,1.684667 -1.8e-6,1.684667 -1.8e-6,1.684667 -8e-7,0.74867 -0.1871892,1.310331 -0.5618814,1.684035 -0.3750084,0.375915 -0.7497004,0.562293 -1.40549,0.562293 -0.1871878,0 -0.3746918,0 -0.5621958,0 9e-7,-0.748671 9e-7,-0.748671 9e-7,-0.748671 0.09391,0 0.09391,0 0.09391,0 0.093594,0.09477 0.1871877,0.09477 0.3746917,0.09477 0.4682857,0 0.7493837,-0.09477 0.9368881,-0.46942 0.2810981,-0.280515 0.3746924,-0.655166 0.3746931,-1.216511 1e-7,-0.09382 1e-7,-0.09382 1e-7,-0.09382 7e-7,-0.655166 -0.093592,-1.310332 -0.281096,-1.778172 C 7.4998162,27.829186 7.2187188,27.454851 6.9376211,27.267525 6.7501173,27.080515 6.4690195,26.987011 6.2818317,26.987011 c -0.1875039,0 -0.3746917,0 -0.5621958,0.09351 0,0 0,0 0,0 7e-7,-0.655166 7e-7,-0.655166 7e-7,-0.655166 0.093594,-0.187326 0.2810981,-0.187326 0.4682859,-0.187326 0.7496997,0 1.3118949,0.561661 1.6865854,1.684667 -1e-7,0.09382 0.093594,0.09382 0.093594,0.09382 0.093594,0 0.093594,0 0.093594,-0.09382 7e-7,-0.655166 0.093911,-1.216511 0.1875057,-1.591162 0.7493836,-1e-6 0.7493836,-1e-6 0.7493836,-1e-6 -1e-7,0.09382 -1e-7,0.09382 -1e-7,0.09382 -0.1871885,0.655166 -0.2810994,1.403837 -0.2811003,2.152824 M 4.9702524,26.987011 c -0.3750079,0 -0.3750079,0 -0.3750079,0 -0.2810979,0 -0.374692,0.18701 -0.3746924,0.561345 -2.6e-6,2.340149 -2.6e-6,2.340149 -2.6e-6,2.340149 -9e-7,0.842176 -0.2810996,1.591162 -0.8429797,2.058371 -0.4686022,0.375915 -1.030735,0.562293 -1.7802134,0.562293 -0.4684437,0 -0.93688749,0 -1.31162649,-0.186378 7.1e-7,-0.657061 7.1e-7,-0.657061 7.1e-7,-0.657061 0.093673,0 0.093673,0 0.093673,0 0.28106615,0.09477 0.65582098,0.189537 1.12426478,0.189536 1.311611,0 1.9674963,-0.749934 1.9674979,-2.247591 2.2e-6,-2.059319 2.2e-6,-2.059319 2.2e-6,-2.059319 3e-7,-0.28083 6e-7,-0.46784 0.093595,-0.561345 -3.46642064,0 -3.46642064,0 -3.46642064,0 7.1e-7,-0.655481 7.1e-7,-0.655481 7.1e-7,-0.655481 4.87191013,-1e-6 4.87191013,-1e-6 4.87191013,-1e-6 z" /></g></g></svg>