<?xml version="1.0" encoding="UTF-8" standalone="no"?>
<!-- Created with Inkscape (http://www.inkscape.org/) -->

<svg
   xmlns:dc="http://purl.org/dc/elements/1.1/"
   xmlns:cc="http://creativecommons.org/ns#"
   xmlns:rdf="http://www.w3.org/1999/02/22-rdf-syntax-ns#"
   xmlns:svg="http://www.w3.org/2000/svg"
   xmlns="http://www.w3.org/2000/svg"
   xmlns:sodipodi="http://sodipodi.sourceforge.net/DTD/sodipodi-0.dtd"
   xmlns:inkscape="http://www.inkscape.org/namespaces/inkscape"
   width="207.19186"
   height="25.90494"
   viewBox="0 0 54.819514 6.8540153"
   version="1.1"
   id="svg50518"
   inkscape:version="0.92.0 r15299"
   sodipodi:docname="charlesbank.svg">
  <defs
     id="defs50512">
    <clipPath
       id="clipPath49509"
       clipPathUnits="userSpaceOnUse">
      <path
         inkscape:connector-curvature="0"
         id="path49507"
         d="M 76.264,724.788 H 237.801 V 759.24 H 76.264 Z" />
    </clipPath>
    <clipPath
       id="clipPath49433"
       clipPathUnits="userSpaceOnUse">
      <path
         inkscape:connector-curvature="0"
         id="path49431"
         d="M 73.08,724.788 H 263.873 V 759.24 H 73.08 Z" />
    </clipPath>
  </defs>
  <sodipodi:namedview
     id="base"
     pagecolor="#ffffff"
     bordercolor="#666666"
     borderopacity="1.0"
     inkscape:pageopacity="0.0"
     inkscape:pageshadow="2"
     inkscape:zoom="3.9085371"
     inkscape:cx="102.59593"
     inkscape:cy="11.952468"
     inkscape:document-units="mm"
     inkscape:current-layer="layer1"
     showgrid="false"
     fit-margin-top="0"
     fit-margin-left="0"
     fit-margin-right="0"
     fit-margin-bottom="0"
     units="px"
     inkscape:window-width="1280"
     inkscape:window-height="744"
     inkscape:window-x="-4"
     inkscape:window-y="-4"
     inkscape:window-maximized="1" />
  <metadata
     id="metadata50515">
    <rdf:RDF>
      <cc:Work
         rdf:about="">
        <dc:format>image/svg+xml</dc:format>
        <dc:type
           rdf:resource="http://purl.org/dc/dcmitype/StillImage" />
        <dc:title></dc:title>
      </cc:Work>
    </rdf:RDF>
  </metadata>
  <g
     inkscape:label="Layer 1"
     inkscape:groupmode="layer"
     id="layer1"
     transform="translate(50.579521,-143.33496)">
    <g
       id="g50718"
       transform="translate(0.26458321,-0.26457874)">
      <g
         transform="matrix(0.35277777,0,0,-0.35277777,-40.30896,143.92787)"
         id="g49443">
        <path
           inkscape:connector-curvature="0"
           id="path49445"
           style="fill:#4c4e52;fill-opacity:1;fill-rule:nonzero;stroke:none"
           d="m 0,0 h -0.541 c -0.85,-2.087 -2.138,0.026 -5.667,0.026 -5.178,0 -8.81,-3.787 -8.81,-8.913 0,-5.641 3.839,-8.861 8.862,-8.861 2.472,0 5.125,1.287 6.697,3.22 l -0.438,0.515 c -1.777,-1.752 -3.503,-2.576 -6.028,-2.576 -4.224,0 -6.105,3.889 -6.105,7.496 0,4.636 1.829,8.062 6.08,8.062 2.936,0 4.817,-1.932 5.564,-4.765 h 0.618 z" />
      </g>
      <g
         transform="matrix(0.35277777,0,0,-0.35277777,-39.099109,149.335)"
         id="g49447">
        <path
           inkscape:connector-curvature="0"
           id="path49449"
           style="fill:#4c4e52;fill-opacity:1;fill-rule:nonzero;stroke:none"
           d="M 0,0 C 0,-1.134 -0.387,-1.596 -1.623,-1.7 V -2.061 H 3.812 V -1.7 C 2.576,-1.596 2.189,-1.134 2.189,0 v 6.826 c 0.747,0.799 1.365,1.546 2.809,1.546 1.854,0 1.957,-1.52 1.957,-3.014 V 0 c 0,-1.134 -0.386,-1.596 -1.622,-1.7 v -0.361 h 5.435 V -1.7 C 9.531,-1.596 9.145,-1.134 9.145,0 v 5.384 c 0,2.859 -0.644,4.354 -3.246,4.354 -1.546,0 -2.834,-0.927 -3.71,-2.061 v 7.831 L 0.567,14.967 c -0.644,-0.233 -1.314,-0.361 -2.19,-0.593 V 13.885 C -0.258,13.936 0,14.014 0,12.365 Z" />
      </g>
      <g
         transform="matrix(0.35277777,0,0,-0.35277777,-32.727837,149.21689)"
         id="g49451">
        <path
           inkscape:connector-curvature="0"
           id="path49453"
           style="fill:#4c4e52;fill-opacity:1;fill-rule:evenodd;stroke:none"
           d="m 0,0 c -0.258,-0.566 -1.752,-1.133 -2.267,-1.133 -1.237,0 -1.803,0.979 -1.803,2.112 0,2.319 2.447,2.757 4.07,3.426 z m 2.19,5.024 c 0,3.168 -0.851,4.379 -3.684,4.379 -1.623,0 -3.246,-0.413 -4.096,-1.932 -0.541,-0.98 -0.309,-2.01 0.876,-2.01 0.592,0 1.133,0.542 1.133,1.134 0,0.67 -0.129,1.184 0.026,1.494 0.258,0.489 1.159,0.721 1.674,0.721 C -0.258,8.81 0,7.805 0,5.101 -2.19,4.199 -6.337,3.143 -6.337,0.052 c 0,-1.494 1.185,-2.705 2.704,-2.705 1.134,0 2.577,0.901 3.761,1.958 0.026,-0.979 0.516,-1.958 1.855,-1.958 0.722,0 1.727,0.901 2.113,1.366 v 0.669 C 3.503,-1.03 3.039,-1.211 2.731,-1.211 2.37,-1.211 2.19,-0.902 2.19,-0.412 Z" />
      </g>
      <g
         transform="matrix(0.35277777,0,0,-0.35277777,-30.275008,149.335)"
         id="g49455">
        <path
           inkscape:connector-curvature="0"
           id="path49457"
           style="fill:#4c4e52;fill-opacity:1;fill-rule:nonzero;stroke:none"
           d="M 0,0 C 0,-1.134 -0.386,-1.596 -1.932,-1.7 V -2.061 H 4.122 V -1.7 C 2.576,-1.596 2.19,-1.134 2.19,0 v 6.131 c 0,0.747 1.081,2.009 1.597,2.009 0.644,0 0.824,-0.901 1.726,-0.901 0.541,0 0.979,0.257 1.056,0.798 C 6.723,9.145 6.131,9.738 5.126,9.738 3.838,9.738 2.705,8.295 2.19,7.419 V 9.738 L -1.932,8.372 V 7.96 C -0.386,8.398 0,8.089 0,5.616 Z" />
      </g>
      <g
         transform="matrix(0.35277777,0,0,-0.35277777,-27.178466,149.335)"
         id="g49459">
        <path
           inkscape:connector-curvature="0"
           id="path49461"
           style="fill:#4c4e52;fill-opacity:1;fill-rule:nonzero;stroke:none"
           d="M 0,0 C 0,-1.134 -0.387,-1.596 -1.984,-1.7 V -2.061 H 4.173 V -1.7 C 2.576,-1.596 2.189,-1.134 2.189,0 V 15.508 C 1.056,15.095 -0.748,14.606 -1.984,14.374 v -0.36 C -0.206,14.014 0,14.245 0,12.365 Z" />
      </g>
      <g
         transform="matrix(0.35277777,0,0,-0.35277777,-24.86248,147.26303)"
         id="g49463">
        <path
           inkscape:connector-curvature="0"
           id="path49465"
           style="fill:#4c4e52;fill-opacity:1;fill-rule:evenodd;stroke:none"
           d="M 0,0 C 0.232,1.623 1.03,2.963 2.834,2.963 4.534,2.963 5.229,1.494 5.307,0 Z M 7.933,-0.824 C 7.856,1.855 6.182,3.865 3.4,3.865 c -3.194,0 -5.254,-2.628 -5.254,-6.286 0,-3.065 1.931,-5.77 4.893,-5.77 2.576,0 4.586,2.009 5.384,4.328 L 8.012,-3.71 C 7.213,-5.126 5.795,-6.466 4.096,-6.466 c -2.911,0 -4.147,3.195 -4.173,5.642 z" />
      </g>
      <g
         transform="matrix(0.35277777,0,0,-0.35277777,-21.219097,150.07996)"
         id="g49467">
        <path
           inkscape:connector-curvature="0"
           id="path49469"
           style="fill:#4c4e52;fill-opacity:1;fill-rule:nonzero;stroke:none"
           d="m 0,0 h 0.36 c 0.052,0.206 0.104,0.618 1.598,0.18 0.696,-0.206 1.133,-0.386 1.854,-0.386 2.087,0 3.839,1.236 3.839,3.452 0,3.245 -6.054,3.76 -6.054,6.336 0,1.056 0.979,1.675 1.957,1.675 1.727,0 2.371,-1.366 2.834,-3.143 H 6.8 v 3.503 H 6.466 C 6.414,11.489 6.362,11.102 5.513,11.385 4.662,11.695 4.172,11.849 3.606,11.849 1.7,11.849 0,10.69 0,8.681 0,5.049 5.847,4.945 5.847,2.241 c 0,-1.159 -0.953,-1.855 -2.06,-1.855 -2.139,0 -3.04,1.752 -3.35,3.607 L 0,3.993 Z" />
      </g>
      <g
         transform="matrix(0.35277777,0,0,-0.35277777,-17.657876,149.44398)"
         id="g49471">
        <path
           inkscape:connector-curvature="0"
           id="path49473"
           style="fill:#4c4e52;fill-opacity:1;fill-rule:evenodd;stroke:none"
           d="m 0,0 c 0,-0.386 0.103,-0.644 0.31,-0.825 1.082,-0.824 2.575,-1.184 4.043,-1.184 3.504,0 5.951,3.142 5.951,6.491 0,2.627 -1.495,5.565 -4.456,5.565 -1.521,0 -2.936,-0.722 -3.658,-2.062 v 7.831 l -1.623,-0.54 c -0.644,-0.233 -1.313,-0.361 -2.241,-0.593 v -0.489 c 1.365,0 1.674,0.257 1.674,-1.52 z m 2.19,6.209 c 0,1.158 0.643,2.24 2.55,2.24 2.602,0 3.298,-3.014 3.298,-5.074 0,-2.138 -0.773,-4.56 -3.324,-4.56 -0.462,0 -1.133,0.129 -1.544,0.335 -0.748,0.361 -1.056,0.387 -0.98,1.262 z" />
      </g>
      <g
         transform="matrix(0.35277777,0,0,-0.35277777,-11.264837,149.21689)"
         id="g49475">
        <path
           inkscape:connector-curvature="0"
           id="path49477"
           style="fill:#4c4e52;fill-opacity:1;fill-rule:evenodd;stroke:none"
           d="m 0,0 c -0.258,-0.566 -1.751,-1.133 -2.267,-1.133 -1.236,0 -1.803,0.979 -1.803,2.112 0,2.319 2.447,2.757 4.07,3.426 z m 2.19,5.024 c 0,3.168 -0.85,4.379 -3.684,4.379 -1.623,0 -3.246,-0.413 -4.096,-1.932 -0.54,-0.98 -0.309,-2.01 0.876,-2.01 0.592,0 1.134,0.542 1.134,1.134 0,0.67 -0.129,1.184 0.025,1.494 C -3.297,8.578 -2.396,8.81 -1.88,8.81 -0.258,8.81 0,7.805 0,5.101 -2.19,4.199 -6.337,3.143 -6.337,0.052 c 0,-1.494 1.185,-2.705 2.705,-2.705 1.133,0 2.575,0.901 3.761,1.958 0.025,-0.979 0.515,-1.958 1.854,-1.958 0.722,0 1.726,0.901 2.113,1.366 v 0.669 C 3.504,-1.03 3.039,-1.211 2.73,-1.211 c -0.36,0 -0.54,0.309 -0.54,0.799 z" />
      </g>
      <g
         transform="matrix(0.35277777,0,0,-0.35277777,-9.0972646,149.335)"
         id="g49479">
        <path
           inkscape:connector-curvature="0"
           id="path49481"
           style="fill:#4c4e52;fill-opacity:1;fill-rule:nonzero;stroke:none"
           d="M 0,0 C 0,-1.134 -0.386,-1.596 -1.623,-1.7 V -2.061 H 3.813 V -1.7 C 2.576,-1.596 2.19,-1.134 2.19,0 v 6.878 c 0.643,0.67 1.571,1.494 2.808,1.494 1.828,0 1.984,-1.339 1.957,-2.834 L 6.955,0 c 0,-1.134 -0.386,-1.596 -1.623,-1.7 v -0.361 h 5.437 V -1.7 C 9.532,-1.596 9.146,-1.134 9.146,0 V 5.59 C 9.146,8.346 8.14,9.738 6.131,9.738 4.302,9.738 3.117,8.682 2.19,7.677 V 9.738 L -1.623,8.527 V 8.166 C -0.231,8.243 0,8.269 0,6.312 Z" />
      </g>
      <g
         transform="matrix(0.35277777,0,0,-0.35277777,-4.2890094,149.335)"
         id="g49483">
        <path
           inkscape:connector-curvature="0"
           id="path49485"
           style="fill:#4c4e52;fill-opacity:1;fill-rule:nonzero;stroke:none"
           d="M 0,0 C 0,-1.134 -0.386,-1.596 -1.932,-1.7 V -2.061 H 4.122 V -1.7 C 2.577,-1.596 2.19,-1.134 2.19,0 V 4.328 L 6.053,-0.747 C 6.286,-1.055 6.543,-1.7 5.307,-1.7 v -0.361 h 5.615 V -1.7 C 9.557,-1.623 8.501,-0.567 7.703,0.464 L 3.967,5.203 c 2.344,2.062 3.658,3.916 6.311,3.916 V 9.48 H 5.023 V 9.119 C 6.079,9.119 6.388,8.965 6.311,8.527 6.079,8.14 5.744,7.857 5.436,7.573 L 2.19,4.714 V 15.508 L 0.567,14.967 C -0.077,14.734 -0.747,14.606 -1.674,14.374 V 13.885 C -0.257,13.962 0,14.065 0,12.88 Z" />
      </g>
      <g
         transform="matrix(0.35277777,0,0,-0.35277777,-48.244167,143.8879)"
         id="g49487">
        <path
           inkscape:connector-curvature="0"
           id="path49489"
           style="fill:#a32428;fill-opacity:1;fill-rule:nonzero;stroke:#a32428;stroke-width:0.77999997;stroke-linecap:butt;stroke-linejoin:miter;stroke-miterlimit:3.86400008;stroke-dasharray:none;stroke-opacity:1"
           d="M 0,0 V -17.552" />
      </g>
      <g
         transform="matrix(0.35277777,0,0,-0.35277777,-49.891604,143.8879)"
         id="g49491">
        <path
           inkscape:connector-curvature="0"
           id="path49493"
           style="fill:#a32428;fill-opacity:1;fill-rule:nonzero;stroke:#a32428;stroke-width:3.9000001;stroke-linecap:butt;stroke-linejoin:miter;stroke-miterlimit:3.86400008;stroke-dasharray:none;stroke-opacity:1"
           d="M 0,0 V -17.552" />
      </g>
      <g
         transform="matrix(0.35277777,0,0,-0.35277777,1.3755785,150.07996)"
         id="g49495">
        <path
           inkscape:connector-curvature="0"
           id="path49497"
           style="fill:#a32428;fill-opacity:1;fill-rule:nonzero;stroke:#a32428;stroke-width:0.77999997;stroke-linecap:butt;stroke-linejoin:miter;stroke-miterlimit:3.86400008;stroke-dasharray:none;stroke-opacity:1"
           d="M 0,0 V 17.552" />
      </g>
      <g
         transform="matrix(0.35277777,0,0,-0.35277777,3.0229096,150.07996)"
         id="g49499">
        <path
           inkscape:connector-curvature="0"
           id="path49501"
           style="fill:#a32428;fill-opacity:1;fill-rule:nonzero;stroke:none"
           d="M 0,0 V 17.552" />
      </g>
      <g
         transform="matrix(0.35277777,0,0,-0.35277777,3.0229096,150.07996)"
         id="g49511">
        <path
           inkscape:connector-curvature="0"
           id="path49513"
           style="fill:none;stroke:#a32428;stroke-width:3.9000001;stroke-linecap:butt;stroke-linejoin:miter;stroke-miterlimit:3.86400008;stroke-dasharray:none;stroke-opacity:1"
           d="M 0,0 V 17.552" />
      </g>
    </g>
  </g>
</svg>
