<svg width="34" height="33" viewBox="0 0 34 33" fill="none" xmlns="http://www.w3.org/2000/svg">
<path d="M11.541 0C13.7475 0 15.5469 1.71277 15.5537 3.81738C15.5471 5.91749 13.7477 7.62598 11.541 7.62598H9.90234C8.86854 7.62598 8.0242 8.42697 8.02246 9.41113V10.9727C8.02235 11.9943 7.60456 12.9569 6.84375 13.6855L5.68164 14.7852C5.3327 15.1252 5.13965 15.5756 5.13965 16.0488C5.13972 16.5219 5.3331 16.97 5.68359 17.3115L6.84473 18.4121C7.60565 19.1424 8.02441 20.1063 8.02441 21.125V22.6855C8.02441 23.6713 8.86791 24.4725 9.90332 24.4727H11.543C12.6131 24.4727 13.6238 24.8721 14.3896 25.5977L15.5527 26.6982C15.9034 27.0288 16.3732 27.21 16.876 27.21C17.3788 27.2099 17.8505 27.0289 18.2012 26.6982L19.3623 25.6084C20.1298 24.8829 21.1405 24.4834 22.209 24.4834H23.8486C24.884 24.4832 25.7256 23.6823 25.7256 22.6982V21.1377C25.7256 20.1159 26.1444 19.1536 26.9053 18.4248L28.0684 17.3223C28.4171 16.9807 28.6103 16.5421 28.6104 16.0596C28.6104 15.5769 28.4171 15.1282 28.0664 14.7959L26.9053 13.6963C26.1444 12.9644 25.7256 12.0005 25.7256 10.9834C25.7256 8.87865 27.5369 7.16512 29.7617 7.16504H29.8545C32.0165 7.16504 33.7754 8.83929 33.7754 10.8955V11.0039C33.7753 12.0256 33.3565 12.9881 32.5957 13.7168L31.4111 14.8076C31.0556 15.143 30.8672 15.5961 30.8672 16.0693C30.8673 16.5425 31.0606 16.9905 31.4111 17.332L32.5723 18.4326C33.3331 19.1645 33.752 20.1284 33.752 21.1455C33.7518 23.2502 31.9515 24.9629 29.7383 24.9629H28.0996C27.0641 24.9629 26.2217 25.7642 26.2217 26.75V28.3105C26.2217 30.4153 24.4222 32.1289 22.209 32.1289C21.1387 32.1289 20.1282 31.7286 19.3623 31.0029L18.2012 29.9033C17.8555 29.5758 17.3738 29.3877 16.876 29.3877C16.3781 29.3877 15.8968 29.5758 15.5527 29.9033L14.3916 31.0029C13.6242 31.7285 12.6134 32.1288 11.5449 32.1289L11.543 32.1299C9.32979 32.1299 7.53044 30.4172 7.53027 28.3125V26.751C7.53013 25.7653 6.68776 24.9649 5.65234 24.9648H4.0127C1.79957 24.9647 0 23.2512 0 21.1465C8.18962e-05 20.1279 0.418843 19.1639 1.17969 18.4336L2.34082 17.332C2.68978 16.9935 2.88184 16.542 2.88184 16.0703C2.88179 15.5986 2.68981 15.1502 2.34082 14.8086L1.17969 13.709C0.418851 12.9772 9.10144e-05 12.0131 0 10.9961C0 8.88345 1.79979 7.16504 4.00977 7.16504H5.64941C6.6847 7.16483 7.52629 6.36451 7.52637 5.37891V3.81738C7.52826 1.71282 9.33457 8.42681e-05 11.541 0ZM22.1123 0.109375C24.3305 0.109375 26.1367 1.8274 26.1367 3.93848C26.1365 6.0494 24.3321 7.7666 22.1123 7.7666C19.8926 7.7665 18.0881 6.04934 18.0879 3.93848C18.0879 1.82746 19.8941 0.109472 22.1123 0.109375Z" fill="#160923"/>
</svg>
