<?xml version="1.0" encoding="UTF-8"?><svg id="Layer_2" xmlns="http://www.w3.org/2000/svg" viewBox="0 0 601 601"><defs><style>.cls-1{fill:#fff;}.cls-1,.cls-2{stroke-width:0px;}.cls-2{fill:#e92166;}</style></defs><g id="Layer_1-2"><rect class="cls-2" width="601" height="601" rx="178.2" ry="178.2"/><path class="cls-1" d="m143,166.1c-3.33-.13-6.03.9-8.1,3.1-2.07,2.2-3.1,5.17-3.1,8.9v10.4h9.8c4.13,0,7.37,1,9.7,3,2.33,2,3.5,4.8,3.5,8.4s-1.17,6.17-3.5,8.1c-2.33,1.93-5.57,2.9-9.7,2.9h-9.6v62.2c0,5.33-1.23,9.4-3.7,12.2-2.47,2.8-6.03,4.2-10.7,4.2s-8.03-1.4-10.5-4.2c-2.47-2.8-3.7-6.87-3.7-12.2v-62.2h-8.4c-4.27,0-7.53-.97-9.8-2.9-2.27-1.93-3.4-4.63-3.4-8.1s1.13-6.4,3.4-8.4c2.27-2,5.53-3,9.8-3h8.4v-9.4c0-12.13,3.07-21.2,9.2-27.2,6.13-6,14.47-9,25-9,5.47,0,9.73,1.13,12.8,3.4,2.67,2,4,4.93,4,8.8,0,1.73-.3,3.33-.9,4.8-.6,1.47-1.43,2.67-2.5,3.6-1.87,1.6-4.53,2.47-8,2.6Z"/><path class="cls-1" d="m219.2,187.1c1.73.67,3.13,1.54,4.2,2.6,2.67,2.53,4,5.73,4,9.6s-1.07,6.67-3.2,8.8c-2.4,2.67-5.73,4.13-10,4.4-4.13.27-7.9,1.37-11.3,3.3-3.4,1.93-6.13,4.97-8.2,9.1-2.07,4.13-3.1,9.53-3.1,16.2v32c0,5.33-1.27,9.4-3.8,12.2-2.53,2.8-6.07,4.2-10.6,4.2s-8.03-1.4-10.5-4.2c-2.47-2.8-3.7-6.87-3.7-12.2v-71c0-5.46,1.23-9.6,3.7-12.4,2.47-2.8,5.97-4.2,10.5-4.2,4.13,0,7.43,1.17,9.9,3.5,2.47,2.33,3.83,5.83,4.1,10.5,0,2.27-.2,4.33-.6,6.2,2.53-6.13,5.87-10.93,10-14.4,4.13-3.47,8.47-5.2,13-5.2,2,0,3.87.33,5.6,1Z"/><path class="cls-1" d="m322.7,240.78c2.47-2.67,3.17-7.4,2.1-14.2-1.07-7.33-3.43-14.1-7.1-20.3-3.67-6.2-8.9-11.17-15.7-14.9-6.8-3.73-14.93-5.6-24.4-5.6s-18.43,2.17-26.1,6.5c-7.67,4.33-13.63,10.43-17.9,18.3-4.27,7.87-6.4,17-6.4,27.4,0,10.93,2.17,20.4,6.5,28.4,4.33,8,10.4,14.03,18.2,18.1,7.8,4.07,16.7,6.1,26.7,6.1,9.07,0,17.13-1.63,24.2-4.9,7.07-3.27,12.13-7.43,15.2-12.5,2.4-3.6,3.47-7.1,3.2-10.5-.27-3.4-1.53-6.13-3.8-8.2-2.27-2.07-5.07-3.1-8.4-3.1-2.67,0-5.03.63-7.1,1.9-2.07,1.27-3.83,3.1-5.3,5.5-1.6,3.07-3.97,5.5-7.1,7.3-3.13,1.8-6.7,2.7-10.7,2.7-4.4,0-8.3-1.03-11.7-3.1-3.4-2.07-6.03-4.9-7.9-8.5-1.87-3.6-2.87-7.73-3-12.4h54.6c5.47,0,9.43-1.33,11.9-4Zm-66.7-15c.53-5.73,2.77-10.4,6.7-14,3.93-3.6,8.77-5.4,14.5-5.4s10.43,1.77,14.1,5.3c3.67,3.53,5.57,8.23,5.7,14.1h-41Z"/><path class="cls-1" d="m364,208.1c-2.53,1.6-3.8,3.87-3.8,6.8,0,2.4,1.03,4.27,3.1,5.6,2.07,1.33,5.63,2.6,10.7,3.8l12.2,2.6c9.87,2.27,17.57,5.77,23.1,10.5,5.53,4.73,8.3,11.37,8.3,19.9,0,6.27-1.83,11.9-5.5,16.9-3.67,5-8.7,8.9-15.1,11.7-6.4,2.8-13.87,4.2-22.4,4.2-9.87,0-18.43-1.73-25.7-5.2-7.27-3.47-12.43-8.13-15.5-14-1.87-3.6-2.53-7-2-10.2.53-3.2,1.93-5.73,4.2-7.6,2.27-1.87,4.87-2.8,7.8-2.8s5.47.73,7.6,2.2c2.13,1.47,3.93,3.67,5.4,6.6,1.6,3.33,3.87,5.93,6.8,7.8,2.93,1.87,6.67,2.8,11.2,2.8s8.43-1.03,11.3-3.1c2.87-2.07,4.3-4.7,4.3-7.9,0-2.67-1.07-4.73-3.2-6.2-2.13-1.47-5.53-2.73-10.2-3.8l-12.6-2.6c-10-2.4-17.7-6.07-23.1-11-5.4-4.93-8.1-11.33-8.1-19.2,0-5.87,1.77-11.13,5.3-15.8,3.53-4.67,8.43-8.3,14.7-10.9,6.27-2.6,13.47-3.9,21.6-3.9,8.93,0,16.7,1.43,23.3,4.3,6.6,2.87,11.43,6.9,14.5,12.1,2.13,3.47,2.97,6.73,2.5,9.8-.47,3.07-1.87,5.6-4.2,7.6-2.33,2-4.97,3-7.9,3s-5.33-.73-7.6-2.2c-2.27-1.47-4-3.47-5.2-6-1.47-2.67-3.53-4.7-6.2-6.1-2.67-1.4-5.8-2.1-9.4-2.1-4.27,0-7.67.8-10.2,2.4Z"/><path class="cls-1" d="m430.9,285.3c-2.47-2.8-3.7-6.87-3.7-12.2v-113.2c0-5.33,1.23-9.4,3.7-12.2,2.47-2.8,5.97-4.2,10.5-4.2s8.23,1.4,10.7,4.2c2.47,2.8,3.7,6.87,3.7,12.2v32.4c0,2.93-.27,5.93-.8,9,2.8-4.93,6.63-8.83,11.5-11.7,4.87-2.87,10.9-4.3,18.1-4.3s13.57,1.63,18.7,4.9c5.13,3.27,9.07,7.83,11.8,13.7,2.73,5.87,4.1,12.73,4.1,20.6v48.6c0,5.33-1.23,9.4-3.7,12.2-2.47,2.8-5.97,4.2-10.5,4.2s-8.07-1.4-10.6-4.2c-2.53-2.8-3.8-6.87-3.8-12.2v-44.4c0-6.53-1.43-11.67-4.3-15.4-2.87-3.73-6.9-5.6-12.1-5.6-3.47,0-6.63.93-9.5,2.8-2.87,1.87-5.07,4.4-6.6,7.6-1.53,3.2-2.3,6.87-2.3,11v44c0,5.33-1.23,9.4-3.7,12.2-2.47,2.8-6.03,4.2-10.7,4.2s-8.03-1.4-10.5-4.2Z"/><path class="cls-1" d="m107.53,454.19c-2.75-2.61-4.13-5.94-4.13-9.99s1.38-7.12,4.13-9.78c2.75-2.65,6.16-3.98,10.21-3.98s7.46,1.33,10.21,3.98c2.75,2.66,4.13,5.92,4.13,9.78s-1.38,7.27-4.13,9.92c-2.75,2.65-6.16,3.98-10.21,3.98s-7.46-1.3-10.21-3.91Z"/><path class="cls-1" d="m195.8,334.1c-3.33-.13-6.03.9-8.1,3.1-2.07,2.2-3.1,5.17-3.1,8.9v10.4h9.8c4.13,0,7.37,1,9.7,3,2.33,2,3.5,4.8,3.5,8.4s-1.17,6.17-3.5,8.1c-2.33,1.93-5.57,2.9-9.7,2.9h-9.6v62.2c0,5.33-1.23,9.4-3.7,12.2-2.47,2.8-6.03,4.2-10.7,4.2s-8.03-1.4-10.5-4.2c-2.47-2.8-3.7-6.87-3.7-12.2v-62.2h-8.4c-4.27,0-7.53-.97-9.8-2.9-2.27-1.93-3.4-4.63-3.4-8.1s1.13-6.4,3.4-8.4c2.27-2,5.53-3,9.8-3h8.4v-9.4c0-12.13,3.07-21.2,9.2-27.2,6.13-6,14.47-9,25-9,5.47,0,9.73,1.13,12.8,3.4,2.67,2,4,4.93,4,8.8,0,1.73-.3,3.33-.9,4.8-.6,1.47-1.43,2.67-2.5,3.6-1.87,1.6-4.53,2.47-8,2.6Z"/><path class="cls-1" d="m231.6,453.4c-5.33-3.13-9.47-7.63-12.4-13.5-2.93-5.87-4.4-12.87-4.4-21v-49c0-5.33,1.27-9.4,3.8-12.2,2.53-2.8,6-4.2,10.4-4.2,4.67,0,8.23,1.4,10.7,4.2,2.47,2.8,3.7,6.87,3.7,12.2v44.6c0,6.53,1.4,11.67,4.2,15.4,2.8,3.73,6.8,5.6,12,5.6,3.6,0,6.83-.83,9.7-2.5,2.87-1.67,5.07-4.1,6.6-7.3,1.53-3.2,2.3-6.93,2.3-11.2v-44.6c0-5.33,1.27-9.4,3.8-12.2,2.53-2.8,6-4.2,10.4-4.2,4.67,0,8.2,1.4,10.6,4.2s3.6,6.87,3.6,12.2v71.2c0,5.33-1.2,9.4-3.6,12.2s-5.93,4.2-10.6,4.2c-3.6,0-6.57-1-8.9-3-2.33-2-3.7-4.8-4.1-8.4-.27-1.33-.27-2.73,0-4.2-2.8,4.93-6.53,8.87-11.2,11.8-4.67,2.93-10.73,4.4-18.2,4.4-6.93,0-13.07-1.57-18.4-4.7Z"/><path class="cls-1" d="m320.3,453.3c-2.47-2.8-3.7-6.87-3.7-12.2v-71c0-5.46,1.23-9.6,3.7-12.4,2.47-2.8,6.03-4.2,10.7-4.2,3.6,0,6.53,1.03,8.8,3.1,2.27,2.07,3.6,4.77,4,8.1.4,1.73.53,3.27.4,4.6,2.8-4.8,6.7-8.67,11.7-11.6,5-2.93,11.03-4.4,18.1-4.4s13.57,1.63,18.7,4.9c5.13,3.27,9.07,7.83,11.8,13.7,2.73,5.87,4.1,12.73,4.1,20.6v48.6c0,5.33-1.23,9.4-3.7,12.2-2.47,2.8-5.97,4.2-10.5,4.2s-8.07-1.4-10.6-4.2c-2.53-2.8-3.8-6.87-3.8-12.2v-44.4c0-6.53-1.43-11.67-4.3-15.4-2.87-3.73-6.83-5.6-11.9-5.6-3.73,0-7,.93-9.8,2.8-2.8,1.87-4.97,4.4-6.5,7.6-1.53,3.2-2.3,6.87-2.3,11v44c0,5.33-1.23,9.4-3.7,12.2-2.47,2.8-6.03,4.2-10.7,4.2s-8.03-1.4-10.5-4.2Z"/><path class="cls-1" d="m515.6,315.7c-2.4-2.8-5.93-4.2-10.6-4.2s-8.03,1.4-10.5,4.2c-2.47,2.8-3.7,6.87-3.7,12.2v32c0,4,.27,7.13.8,9.4-3.07-4.67-7.07-8.5-12-11.5-4.93-3-10.87-4.5-17.8-4.5-7.73,0-14.97,1.97-21.7,5.9-6.73,3.93-12.17,9.83-16.3,17.7-4.13,7.87-6.2,17.47-6.2,28.8s1.9,20.93,5.7,28.8c3.8,7.87,9.03,13.77,15.7,17.7,6.67,3.93,14.27,5.9,22.8,5.9,7.47,0,13.67-1.6,18.6-4.8,4.93-3.2,8.67-7,11.2-11.4-.27,1.2-.33,2.47-.2,3.8.4,3.6,1.77,6.47,4.1,8.6,2.33,2.13,5.5,3.2,9.5,3.2,4.67,0,8.2-1.4,10.6-4.2s3.6-6.87,3.6-12.2v-113.2c0-5.33-1.2-9.4-3.6-12.2Zm-26,105.8c-2,4.53-4.73,8.1-8.2,10.7-3.47,2.6-7.4,3.9-11.8,3.9s-8.33-1.3-11.8-3.9c-3.47-2.6-6.2-6.17-8.2-10.7-2-4.53-3-9.8-3-15.8s1-11.27,3-15.8c2-4.53,4.73-8.07,8.2-10.6,3.47-2.53,7.4-3.8,11.8-3.8,6.8,0,12.33,2.73,16.6,8.2,4.27,5.47,6.4,12.8,6.4,22,0,6-1,11.27-3,15.8Z"/></g></svg>