<?xml version="1.0" encoding="UTF-8"?>
<svg xmlns="http://www.w3.org/2000/svg" viewBox="0 0 1000 1000">
  <defs>
    <style>
      .cls-1 {
        fill: #0e842c;
      }

      .cls-2, .cls-3 {
        fill: #fff;
      }

      .cls-4 {
        fill: none;
        stroke-width: 7px;
      }

      .cls-4, .cls-3 {
        stroke: #fff;
        stroke-miterlimit: 10;
      }

      .cls-5 {
        isolation: isolate;
      }

      .cls-6 {
        fill: #006837;
      }

      .cls-7 {
        mix-blend-mode: lighten;
        opacity: .51;
      }

      .cls-8 {
        fill: #004637;
      }

      .cls-9 {
        fill: #13842a;
      }
    </style>
  </defs>
  <g class="cls-5">
    <g id="Layer_1" data-name="Layer 1">
      <g>
        <g>
          <g id="frame">
            <path class="cls-1" d="m500,126.56c51.31,0,101.04,10.03,147.81,29.82,45.22,19.13,85.84,46.52,120.75,81.43,34.9,34.9,62.3,75.53,81.43,120.75,19.78,46.78,29.82,96.51,29.82,147.81s-10.03,101.04-29.82,147.81c-19.13,45.22-46.52,85.84-81.43,120.75-34.9,34.9-75.53,62.3-120.75,81.43-46.78,19.78-96.51,29.82-147.81,29.82s-101.04-10.03-147.81-29.82c-45.22-19.13-85.84-46.52-120.75-81.43-34.9-34.9-62.3-75.53-81.43-120.75-19.78-46.78-29.82-96.51-29.82-147.81s10.03-101.04,29.82-147.81c19.13-45.22,46.52-85.84,81.43-120.75,34.9-34.9,75.53-62.3,120.75-81.43,46.78-19.78,96.51-29.82,147.81-29.82m0-75c-251.18,0-454.8,203.62-454.8,454.8s203.62,454.8,454.8,454.8,454.8-203.62,454.8-454.8S751.18,51.56,500,51.56h0Z"/>
            <path class="cls-4" d="m658.98,120.1c151.77,62.54,258.6,211.92,258.6,386.26,0,230.63-186.96,417.59-417.59,417.59S82.41,736.99,82.41,506.36c0-174.13,106.58-323.37,258.07-386.04"/>
            <circle class="cls-2" cx="340.48" cy="120.32" r="12.24"/>
            <circle class="cls-2" cx="658.95" cy="120.32" r="12.24"/>
          </g>
          <g>
            <path class="cls-3" d="m433.49,93.39c-2.51-.45-4.45-1.33-5.83-2.67-1.38-1.33-2.24-3.05-2.56-5.16-.49-3.18.32-6.04,2.43-8.59,2.11-2.54,5.19-4.13,9.26-4.76,4.08-.63,7.54-.03,10.37,1.8,2.83,1.83,4.49,4.34,4.98,7.51.31,2.03.02,3.88-.89,5.55-.91,1.68-2.45,3.1-4.64,4.27,3,.43,5.41,1.5,7.21,3.22,1.8,1.72,2.91,3.92,3.33,6.63.58,3.74-.35,7.09-2.78,10.08-2.43,2.98-5.96,4.83-10.57,5.54-4.61.71-8.53.01-11.75-2.1-3.22-2.12-5.13-5.08-5.72-8.9-.44-2.84-.04-5.34,1.21-7.5,1.24-2.16,3.24-3.8,5.98-4.94Zm-2.56-8.91c.32,2.07,1.29,3.65,2.92,4.74,1.63,1.09,3.58,1.46,5.85,1.11,2.21-.34,3.92-1.27,5.14-2.79,1.21-1.52,1.67-3.22,1.38-5.11-.3-1.97-1.29-3.51-2.95-4.62-1.66-1.11-3.58-1.51-5.75-1.17-2.19.34-3.91,1.28-5.15,2.81-1.24,1.54-1.72,3.22-1.44,5.04Zm1.27,20.46c.24,1.53.85,2.95,1.85,4.26,1,1.31,2.32,2.24,3.97,2.79,1.65.55,3.36.68,5.13.41,2.74-.42,4.88-1.6,6.41-3.52,1.53-1.93,2.1-4.16,1.71-6.7-.4-2.58-1.65-4.58-3.75-5.98-2.1-1.4-4.53-1.89-7.3-1.46-2.7.42-4.81,1.6-6.33,3.54-1.52,1.94-2.08,4.17-1.69,6.67Z"/>
            <path class="cls-3" d="m495.85,106.01l.3,5.21-31.22,1.81c-.12-1.3.03-2.57.46-3.8.68-2.03,1.84-4.06,3.48-6.09,1.64-2.03,4.04-4.4,7.2-7.12,4.9-4.23,8.19-7.55,9.86-9.95s2.45-4.63,2.33-6.68c-.12-2.15-1.05-3.91-2.78-5.29-1.73-1.38-3.91-1.99-6.56-1.84-2.79.16-4.98,1.07-6.56,2.74-1.58,1.66-2.31,3.88-2.17,6.65l-5.99-.22c.17-4.18,1.52-7.43,4.06-9.77,2.54-2.33,6.05-3.63,10.54-3.89,4.53-.26,8.19.7,10.96,2.9,2.78,2.2,4.27,5.03,4.47,8.5.1,1.77-.18,3.52-.86,5.28-.67,1.75-1.85,3.62-3.54,5.61-1.68,1.99-4.51,4.75-8.49,8.29-3.32,2.93-5.45,4.91-6.38,5.95-.93,1.03-1.69,2.06-2.28,3.08l23.16-1.35Z"/>
            <path class="cls-3" d="m504.15,89.31c.19-5.22.92-9.41,2.18-12.55,1.26-3.14,3.06-5.54,5.39-7.18,2.33-1.65,5.22-2.41,8.66-2.28,2.54.09,4.74.65,6.62,1.67,1.88,1.02,3.41,2.46,4.59,4.3s2.08,4.07,2.7,6.68c.62,2.61.84,6.1.69,10.48-.19,5.18-.91,9.35-2.16,12.49-1.26,3.14-3.05,5.54-5.38,7.2-2.33,1.66-5.23,2.42-8.69,2.3-4.56-.17-8.08-1.82-10.57-4.97-2.98-3.79-4.33-9.83-4.03-18.13Zm5.97.22c-.26,7.25.47,12.11,2.2,14.58,1.73,2.47,3.93,3.75,6.59,3.84,2.67.1,4.95-1.03,6.86-3.37,1.9-2.35,2.99-7.13,3.25-14.37.26-7.27-.47-12.14-2.2-14.6-1.73-2.46-3.95-3.73-6.66-3.83-2.67-.1-4.83.88-6.5,2.93-2.1,2.62-3.28,7.56-3.54,14.81Z"/>
            <path class="cls-3" d="m543.94,91.16c.69-5.18,1.81-9.28,3.37-12.29,1.56-3.01,3.58-5.22,6.05-6.64s5.42-1.9,8.83-1.45c2.52.33,4.66,1.1,6.43,2.3,1.77,1.2,3.16,2.77,4.16,4.72,1,1.95,1.68,4.25,2.05,6.9.36,2.65.26,6.16-.31,10.5-.68,5.14-1.79,9.22-3.34,12.23-1.55,3.01-3.56,5.23-6.04,6.65-2.48,1.43-5.43,1.91-8.87,1.46-4.52-.6-7.87-2.58-10.05-5.95-2.61-4.06-3.37-10.2-2.28-18.43Zm5.92.78c-.95,7.2-.68,12.1.8,14.72,1.49,2.62,3.55,4.11,6.2,4.46,2.64.35,5.03-.55,7.15-2.71,2.12-2.15,3.65-6.82,4.6-13.99.95-7.22.69-12.13-.8-14.74-1.49-2.61-3.58-4.09-6.26-4.45-2.64-.35-4.89.42-6.75,2.3-2.34,2.41-3.98,7.21-4.93,14.41Z"/>
          </g>
        </g>
        <g>
          <g>
            <polygon class="cls-6" points="503.49 606.04 502.74 606.57 502.52 606.72 500 608.5 499.89 608.58 499.71 608.71 497.08 610.56 496.85 610.73 494.51 612.38 493.37 610.76 493.2 610.52 491.97 608.78 491.77 608.5 490.58 606.81 490.34 606.48 486 600.32 484.62 598.37 483.24 596.42 477.99 588.98 476.84 587.36 475.67 585.69 473.24 582.25 404.1 484.33 402.87 482.59 401.71 480.94 385.7 458.27 383.17 454.68 376.89 445.79 358.92 420.34 357.77 418.71 356.63 417.1 298.93 335.37 430.37 354.57 381.98 288.14 374.99 278.55 383.88 272.07 391.49 282.51 443.05 353.29 445.61 356.81 453.78 368.02 454.66 369.23 453.08 369 439.58 367.03 435.3 366.4 322.69 349.96 366.67 412.26 367.84 413.91 369.01 415.56 387.75 442.11 389.3 444.31 391.83 447.89 413.96 479.24 415.48 481.38 417.12 483.71 469.47 557.85 472.3 561.86 473.71 563.86 475.04 565.75 496.48 596.12 497.89 598.11 499.3 600.1 500 601.1 503.49 606.04"/>
            <polygon class="cls-9" points="362.46 252.08 364.07 279.28 366.67 305.48 385.27 284.41 411.19 276.5 386.82 264.29 362.46 252.08"/>
          </g>
          <g>
            <polygon class="cls-6" points="701.07 335.37 643.37 417.1 642.23 418.71 641.08 420.34 623.11 445.79 616.83 454.68 614.3 458.27 598.29 480.94 597.13 482.59 595.9 484.33 526.76 582.25 523.16 587.36 522.01 588.98 516.76 596.42 515.38 598.37 514 600.32 509.66 606.48 509.42 606.81 508.23 608.5 508.03 608.78 506.8 610.52 506.63 610.76 505.49 612.38 503.15 610.73 502.92 610.56 502.91 610.56 500.29 608.71 500.11 608.58 500 608.5 497.48 606.72 497.47 606.72 497.26 606.57 496.51 606.04 500 601.1 500.7 600.1 502.11 598.11 503.51 596.12 503.52 596.12 524.96 565.75 524.96 565.74 526.29 563.86 530.53 557.86 530.53 557.85 582.88 483.71 584.52 481.38 586.03 479.24 586.04 479.24 608.17 447.89 610.7 444.31 612.25 442.11 630.99 415.56 632.16 413.91 633.33 412.26 677.31 349.96 564.7 366.4 560.42 367.03 546.92 369 545.34 369.23 546.22 368.02 554.39 356.81 556.95 353.29 608.51 282.51 616.11 272.07 625.01 278.55 618.02 288.14 569.63 354.57 701.07 335.37"/>
            <polygon class="cls-9" points="637.54 252.08 635.93 279.28 633.33 305.48 614.73 284.41 588.81 276.5 613.18 264.29 637.54 252.08"/>
          </g>
          <path class="cls-2" d="m459.9,462.33c-.31-.18-.62-.34-.93-.51l-1.34-21.05s-7.79-7.09-19.95-14.42c-.3-.18-.6-.36-.9-.54-.33-.19-.67-.39-1-.59-.63-.36-1.26-.72-1.91-1.09-6.54-3.67-14.09-7.22-22.23-9.78-1.31-.42-2.62-.81-3.96-1.16-12.61-3.38-26.4-4.16-39.84.72-3.39,1.22-6.75,2.8-10.07,4.8-3.86,2.32-7.65,5.19-11.35,8.69-23.57,22.32-13.51,53.92,3.56,83.5.76,1.31,1.53,2.62,2.32,3.92,14.07,23.45,31.87,45.28,39.86,59.77,16.12,29.22,14.19,67.59-22.81,44.86,0,0-.14,1.38-.07,3.57.23,8.22,3.34,27.84,27.56,28.68,30.66,1.05,61.92-41.63,16.46-99.79-.98-1.26-1.93-2.51-2.85-3.75-.29-.41-.58-.81-.87-1.21-.33-.46-.66-.91-.97-1.37-.49-.69-.97-1.38-1.43-2.07-.24-.34-.47-.7-.69-1.04-.27-.39-.52-.77-.76-1.15-.33-.5-.65-1-.95-1.49-.7-1.11-1.37-2.2-2-3.29-.23-.38-.45-.76-.66-1.14-.44-.76-.86-1.51-1.26-2.26-.35-.65-.69-1.29-1.02-1.93-.56-1.09-1.1-2.17-1.6-3.24-.5-1.08-.98-2.13-1.42-3.18-3.98-9.34-5.61-17.69-5.17-24.52.02-.24.04-.48.06-.71.04-.48.09-.96.16-1.42.01-.13.03-.27.05-.39.1-.68.22-1.34.37-1.98.04-.18.08-.36.13-.53.06-.28.13-.55.22-.81.05-.2.11-.4.17-.6.09-.27.18-.54.28-.81.07-.21.15-.42.23-.62.1-.25.2-.51.32-.75.1-.25.21-.49.34-.73.12-.24.24-.48.37-.71.06-.11.12-.22.18-.33.07-.13.14-.26.23-.39.13-.21.26-.42.4-.63s.29-.42.44-.63c.14-.21.3-.41.47-.61.16-.2.32-.4.49-.59.19-.22.39-.43.59-.64.11-.12.23-.23.35-.35.15-.14.3-.28.45-.41.1-.09.19-.17.29-.25.06-.06.12-.11.18-.15.24-.2.48-.39.73-.57.16-.12.32-.24.49-.35.48-.33.98-.63,1.5-.91.28-.15.57-.3.87-.43.28-.14.57-.26.86-.38.26-.1.53-.2.79-.29.23-.08.46-.16.69-.23.23-.07.47-.14.7-.2.14-.04.28-.08.43-.11.14-.03.29-.07.44-.1.29-.07.59-.13.89-.18.15-.03.29-.05.43-.07.14-.03.29-.06.44-.07.25-.03.5-.06.76-.09.23-.03.47-.05.71-.07,1.65-.13,3.39-.11,5.25.08.35.03.71.07,1.08.12.32.04.64.09.97.14.65.1,1.31.22,1.99.36.25.05.51.11.76.17.63.13,1.27.29,1.92.47.22.06.43.12.65.18.28.08.56.16.85.25.3.09.6.19.91.29.38.12.76.25,1.14.38,1.14.39,2.3.83,3.5,1.33.4.16.81.33,1.21.51.37.16.75.33,1.13.5.3.13.61.28.92.43.31.14.63.3.94.45.54.26,1.08.53,1.62.81.97.5,1.95,1.02,2.95,1.58.24.13.49.27.74.42.25.14.5.28.76.43,1.01.59,2.03,1.21,3.07,1.85,1.03.65,2.08,1.33,3.15,2.05.27.17.54.35.8.54.26.17.54.36.81.55.33.23.67.46,1,.7.29.2.57.4.86.61s.58.42.87.63c1.74,1.26,3.52,2.61,5.33,4.05.97.77,1.94,1.56,2.93,2.38.48.4.97.81,1.46,1.23.07.05.14.11.22.19.32.26.65.53.97.82.09.08.19.16.28.24.55.48,1.11.97,1.67,1.46l2.51-42.62c-1.51-.83-3-1.65-4.47-2.43Z"/>
          <path class="cls-9" d="m413.3,551.91c45.46,58.16,14.2,100.84-16.46,99.79-24.22-.84-27.33-20.46-27.56-28.68,24.3,32.26,69.84,4.71,46.08-38.74-7.83-14.32-20.7-29.38-24.51-35.05-53.28-79.23-33.9-144.23,73.53-84.47l-2.51,42.62c-63.44-56.04-94.03-13.62-48.56,44.53Z"/>
          <path class="cls-6" d="m457.54,501.08c-.49-.41-.98-.8-1.47-1.19-.98-.79-1.95-1.55-2.91-2.28.4,1.16.79,2.31,1.17,3.45.97.77,1.94,1.56,2.93,2.38.48.4.97.81,1.46,1.23-.38-1.19-.77-2.39-1.18-3.59Zm0,0c-.49-.41-.98-.8-1.47-1.19-.98-.79-1.95-1.55-2.91-2.28.4,1.16.79,2.31,1.17,3.45.97.77,1.94,1.56,2.93,2.38.48.4.97.81,1.46,1.23-.38-1.19-.77-2.39-1.18-3.59Zm0,0c-.49-.41-.98-.8-1.47-1.19-.98-.79-1.95-1.55-2.91-2.28.4,1.16.79,2.31,1.17,3.45.97.77,1.94,1.56,2.93,2.38.48.4.97.81,1.46,1.23-.38-1.19-.77-2.39-1.18-3.59Zm7.8-38.07c-1.49-.83-2.97-1.64-4.44-2.43l-1.32-20.74-.6-.55c-.47-.43-8.64-7.8-21.25-15.26-.29-.17-.59-.34-.89-.51-.33-.2-.66-.39-.99-.58-.62-.35-1.24-.7-1.88-1.05-4.13-2.27-8.64-4.49-13.45-6.46-2.64-1.08-5.25-2.03-7.84-2.85-1.32-.43-2.64-.82-3.95-1.17-15.22-4.17-29.39-3.86-42.06.85-3.46,1.28-6.81,2.89-10.04,4.84-4.06,2.43-7.92,5.38-11.58,8.85-15.82,14.97-18.7,34.99-8.82,61.19,3.22,8.56,7.64,17.24,12.59,25.72.76,1.31,1.54,2.62,2.33,3.92,7.17,11.84,15.2,23.21,22.28,33.23,7.05,9.97,13.14,18.59,16.98,25.55,10.16,18.42,12.43,39.13,5.06,46.17-4.76,4.54-13.43,3.17-25.07-3.98l-2.72-1.67-.32,3.17c0,.06-.15,1.54-.08,3.83.2,6.95,2.9,29.7,29.49,30.62.4,0,.79.02,1.18.02,14.23,0,27.82-8.79,34.88-22.67,5.32-10.45,14.22-39.21-17.95-80.37-23.14-29.59-25.51-54.24-15.89-63.3,1.36-1.28,3.07-2.33,5.11-3.05,3.42-1.23,7.77-1.56,13.02-.62,9.76,1.75,22.62,7.88,38.37,20.86.96.79,1.94,1.61,2.93,2.46.49.42.98.85,1.48,1.29.21.18.42.37.64.56l.82.72,2.26,2,2.82-47.98-1.1-.61Zm-5.24,40.2c-.37-.31-.74-.62-1.1-.92-.49-.42-.98-.82-1.46-1.21-.49-.41-.98-.8-1.47-1.19-.98-.79-1.95-1.55-2.91-2.28-16.05-12.3-29.18-17.59-39.2-18.37-4.8-.38-8.89.28-12.25,1.7-2.11.9-3.94,2.1-5.46,3.53-12.96,12.21-6.6,40.45,15.48,68.67,21.65,27.71,28.05,55.45,17.54,76.09-6.56,12.89-19.27,20.89-32.36,20.47-19.73-.68-24.56-14.28-25.46-24.01h0c-.09-.96-.15-1.87-.17-2.73v-.07c14.94,8.29,22.87,5.62,26.95,1.73,9.77-9.32,5.47-33.25-4.32-51-3.94-7.15-10.09-15.85-17.21-25.92-7.58-10.72-15.97-22.6-23.26-34.81-.78-1.32-1.55-2.64-2.3-3.96-16.45-28.73-25.74-58.87-3.34-80.08,3.54-3.35,7.24-6.19,11.12-8.51,3.25-1.96,6.61-3.55,10.09-4.78,11.34-4.02,23.91-4.23,37.62-.6,1.31.34,2.64.72,3.97,1.14,2.73.85,5.5,1.85,8.32,3,5.36,2.19,10.39,4.73,14.9,7.31.65.37,1.3.75,1.93,1.13.35.2.69.4,1.02.61.31.18.62.37.92.55,9.43,5.8,16.05,11.33,18,13.02l1.21,19.02.15,2.32.98.53c1.41.75,2.84,1.52,4.27,2.31l-2.2,37.31Zm-2.56-2.13c-.49-.41-.98-.8-1.47-1.19-.98-.79-1.95-1.55-2.91-2.28.4,1.16.79,2.31,1.17,3.45.97.77,1.94,1.56,2.93,2.38.48.4.97.81,1.46,1.23-.38-1.19-.77-2.39-1.18-3.59Zm0,0c-.49-.41-.98-.8-1.47-1.19-.98-.79-1.95-1.55-2.91-2.28.4,1.16.79,2.31,1.17,3.45.97.77,1.94,1.56,2.93,2.38.48.4.97.81,1.46,1.23-.38-1.19-.77-2.39-1.18-3.59Z"/>
          <path class="cls-2" d="m653.58,427.4c-3.7-3.5-7.49-6.37-11.35-8.69-3.32-2-6.68-3.58-10.07-4.8-13.44-4.88-27.23-4.1-39.84-.72-1.34.35-2.65.74-3.96,1.16-8.14,2.56-15.69,6.11-22.23,9.78-.99.56-1.96,1.12-2.91,1.68-.3.18-.61.37-.91.54-12.15,7.33-19.94,14.42-19.94,14.42l-1.34,21.05c-.31.17-.62.33-.93.51-1.47.78-2.96,1.6-4.47,2.43l2.51,42.62c.56-.49,1.12-.98,1.67-1.46.09-.08.19-.16.28-.24.32-.29.65-.56.97-.82.08-.08.15-.14.22-.19.37-.32.74-.63,1.11-.93,1.1-.93,2.2-1.82,3.28-2.68,1.81-1.44,3.59-2.79,5.33-4.05.29-.21.58-.42.87-.63.29-.21.57-.41.86-.61.33-.24.67-.47,1-.7.27-.19.55-.38.81-.55.26-.19.53-.37.8-.54,1.07-.72,2.12-1.4,3.15-2.05,1.04-.64,2.06-1.26,3.07-1.85.26-.15.51-.29.76-.43.25-.15.5-.29.74-.42,1-.56,1.98-1.08,2.95-1.58.54-.28,1.08-.55,1.62-.81.31-.15.63-.31.94-.45.31-.15.62-.3.92-.43.38-.17.76-.34,1.13-.5.4-.18.81-.35,1.21-.51,1.2-.5,2.36-.94,3.5-1.33.38-.13.76-.26,1.14-.38.31-.1.61-.2.91-.29.29-.09.57-.17.85-.25.22-.06.43-.12.65-.18.65-.18,1.29-.34,1.92-.47.25-.06.51-.12.76-.17.67-.15,1.34-.27,1.99-.36.33-.05.65-.1.97-.14.37-.05.73-.09,1.08-.12,1.86-.19,3.6-.21,5.25-.08.24.02.48.04.71.07.26.03.51.06.76.09.15.01.3.04.44.07.14.02.28.04.43.07.3.05.6.11.89.18.15.03.3.07.44.1.15.03.29.07.43.11.23.06.47.13.7.2.23.07.46.15.69.23.26.09.53.19.79.29.29.12.58.24.86.38.3.13.59.28.87.43.28.15.57.32.84.48.26.16.52.32.77.5.72.5,1.4,1.06,2.03,1.66.12.12.24.23.35.35.2.21.4.42.59.64.17.19.33.39.49.59.17.2.33.4.47.61.15.21.3.42.44.63.14.21.27.42.4.63.09.13.16.26.23.39.06.11.12.22.18.33.13.23.25.47.37.71.13.24.24.48.34.73.12.24.22.5.32.75.08.2.16.41.23.62.1.27.19.54.28.81.06.2.12.4.17.6.09.26.16.53.22.81.05.17.09.35.13.53.15.64.27,1.3.37,1.98.02.12.04.26.05.39.07.46.12.94.16,1.42.02.23.04.47.06.71.44,6.83-1.19,15.18-5.17,24.52-.44,1.05-.92,2.1-1.42,3.18-.5,1.07-1.04,2.15-1.6,3.24-.33.64-.67,1.28-1.02,1.93-.4.75-.82,1.5-1.26,2.26-.21.38-.43.76-.66,1.14-.63,1.09-1.3,2.18-2,3.29-.3.49-.62.99-.95,1.49-.24.38-.49.76-.76,1.15-.22.34-.45.7-.69,1.04-.46.69-.94,1.38-1.43,2.07-.31.46-.64.91-.97,1.37-.29.4-.58.8-.87,1.21-.92,1.24-1.87,2.49-2.85,3.75-45.46,58.16-14.2,100.84,16.46,99.79,24.22-.84,27.33-20.46,27.56-28.68.07-2.19-.07-3.57-.07-3.57-37,22.73-38.93-15.64-22.81-44.86,7.99-14.49,25.79-36.32,39.86-59.77.79-1.3,1.56-2.61,2.32-3.92,17.07-29.58,27.13-61.18,3.56-83.5Z"/>
          <path class="cls-9" d="m586.7,551.91c-45.46,58.16-14.2,100.84,16.46,99.79,24.22-.84,27.33-20.46,27.56-28.68-24.3,32.26-69.84,4.71-46.08-38.74,7.83-14.32,20.7-29.38,24.51-35.05,53.28-79.23,33.9-144.23-73.53-84.47l2.51,42.62c63.44-56.04,94.03-13.62,48.56,44.53Z"/>
          <path class="cls-6" d="m654.95,425.95c-3.66-3.47-7.53-6.42-11.58-8.85-3.23-1.95-6.58-3.56-10.04-4.84-12.67-4.71-26.84-5.02-42.06-.86-1.31.35-2.62.74-3.95,1.18-2.59.82-5.2,1.77-7.84,2.85-4.81,1.97-9.32,4.19-13.45,6.46-.98.54-1.94,1.08-2.87,1.63-.3.17-.61.35-.9.52-12.6,7.45-20.77,14.82-21.24,15.25l-.6.55-1.32,20.74c-1.46.79-2.95,1.6-4.44,2.43l-1.1.61,2.82,47.98,2.26-2,.82-.72c.22-.19.43-.38.64-.56,1.5-1.32,2.97-2.56,4.41-3.75,15.74-12.98,28.61-19.11,38.37-20.86,5.25-.94,9.6-.61,13.02.62,2.04.72,3.75,1.77,5.11,3.05,3.42,3.22,5.32,8.4,5.32,15.07,0,12.12-6.29,29.15-21.21,48.23-32.17,41.16-23.27,69.92-17.95,80.37,7.06,13.88,20.65,22.67,34.88,22.67.39,0,.79-.01,1.18-.02,26.59-.92,29.29-23.67,29.49-30.62.07-2.29-.08-3.77-.08-3.83l-.33-3.17-2.71,1.67c-11.64,7.14-20.31,8.52-25.07,3.98-7.37-7.04-5.1-27.75,5.06-46.17,3.84-6.96,9.93-15.58,16.97-25.55,7.08-10.02,15.12-21.39,22.29-33.23.79-1.3,1.57-2.61,2.33-3.92,4.95-8.48,9.37-17.16,12.59-25.72,9.88-26.2,7-46.22-8.82-61.19Zm-31.65,121.75c-7.12,10.07-13.27,18.77-17.21,25.92-9.79,17.75-14.09,41.68-4.32,51,4.08,3.89,12.01,6.56,26.95-1.73v.07c-.02.81-.08,1.73-.18,2.74-.86,8.63-5.31,23.3-25.45,24-13.1.47-25.8-7.58-32.36-20.47-10.51-20.64-4.11-48.38,17.54-76.09,22.07-28.22,28.44-56.46,15.48-68.67-1.52-1.43-3.35-2.63-5.46-3.53-3.36-1.42-7.45-2.08-12.25-1.7h-.01c-10.02.78-23.15,6.07-39.19,18.37-1.43,1.09-2.89,2.25-4.38,3.47-.48.39-.97.79-1.46,1.21-.36.3-.73.61-1.1.92l-2.2-37.31c1.44-.79,2.86-1.56,4.27-2.31l.98-.53.15-2.32,1.21-19.02c1.95-1.69,8.57-7.21,17.99-13.01.3-.19.61-.37.93-.56.95-.58,1.94-1.16,2.95-1.74,4.51-2.58,9.54-5.12,14.9-7.31,2.82-1.15,5.59-2.15,8.32-3,1.33-.42,2.66-.8,3.97-1.14,13.71-3.63,26.28-3.42,37.62.6,3.48,1.23,6.84,2.82,10.09,4.78,3.88,2.32,7.58,5.16,11.12,8.51,22.4,21.22,13.11,51.35-3.34,80.08-.75,1.32-1.52,2.64-2.3,3.96-7.29,12.21-15.68,24.09-23.26,34.81Z"/>
          <path class="cls-2" d="m500.99,757.64c-.3,0-.6-.01-.9-.04h-.09s-.09,0-.09,0c-.3.03-.6.04-.9.04-14.58,0-26.21-31.67-26.33-31.99l-.26-.72-.76.06c-1.03.08-2.04.13-3.02.13-22.19,0-26.18-21.57-26.34-22.49l-.17-.99-.99.18s-.71.12-2.11.12c-3.31,0-10.56-.67-21.99-5.14-6.57-2.57-10.37-8.56-9.91-15.62.57-8.88,8.39-20.17,28.63-25.23,34.34-8.58,42.06-32.43,42.06-40.1,0-.38.01-.92.03-1.61.95-40.92-10.36-91.61-32.71-146.59-8.19-20.14-10.38-39.92-6.51-58.77,3.09-15.08,10.05-29.63,20.69-43.23,16.68-21.35,37.31-33.67,40.7-35.61,3.39,1.94,24.06,14.3,40.74,35.66,10.62,13.6,17.57,28.14,20.66,43.22,3.86,18.84,1.66,38.6-6.52,58.73-22.35,54.99-33.66,105.68-32.71,146.59.02.69.03,1.23.03,1.61,0,7.68,7.73,31.52,42.06,40.1,20.24,5.06,28.06,16.35,28.63,25.23.45,7.07-3.35,13.05-9.92,15.62-11.43,4.47-18.68,5.14-21.99,5.14-1.4,0-2.1-.12-2.11-.12l-.99-.17-.17.99c-.16.92-4.15,22.49-26.34,22.49-.98,0-2-.04-3.02-.13l-.76-.06-.26.72c-.12.32-11.75,31.99-26.33,31.99Z"/>
          <g>
            <path class="cls-9" d="m435.85,422.94c-.04.75-.06,1.51-.07,2.28-.02.76-.03,1.54-.03,2.32.02,7.8,1.02,16.02,3.22,24.67,1.3,5.12,3.03,10.39,5.23,15.8,4.56,11.22,8.49,21.85,11.87,31.88.41,1.19.8,2.38,1.19,3.55.39,1.2.78,2.4,1.16,3.59,6.82,21.22,11.14,39.55,13.88,54.83,1.62,9.03,2.68,16.98,3.37,23.83.41,4.09.69,7.78.88,11.07.04.69.08,1.35.11,2,.03.69.06,1.35.08,2,.08,1.89.13,3.62.15,5.17.01.49.01.96.01,1.42.01.2.01.4.01.59v1.4c0,.2,0,.4-.01.59,0,.51,0,.98-.01,1.43-.03,2.18-.08,3.67-.08,4.48,0,.22-.01.45-.02.7-.04.57-.11,1.24-.23,1.98-.11.61-.24,1.27-.42,1.97-2.24,9.1-10.89,25.65-36.79,33.42-1.24.38-2.52.73-3.85,1.06-3.29.82-6.27,1.81-8.96,2.94-25.8,10.78-24.96,33.92-9.88,39.82,16.67,6.52,24.64,5.07,24.64,5.07,0,0,4.35,25.37,30.44,23.19,0,0,12.32,34.06,28.26,32.61v-429.72s-61.34,33.32-64.15,94.06Zm20.63,235.62c4.71,7.19,3.78,10.26.06,16.23-8.15,21.04-34.31,25.88-39.54,10.99-4.64-11.61,11.85-17.68,18.52-22.12,2.06-1.21,5.19-3.8,8.53-5.75,4.27-2.49,8.87-3.91,11.95,0,.17.2.33.42.48.65Z"/>
            <path class="cls-9" d="m573.46,657.91c-2.7-1.13-5.68-2.12-8.97-2.94-1.24-.34-2.44-.7-3.6-1.06-26.29-8.29-34.59-23.01-36.92-33.42-.16-.68-.28-1.34-.39-1.98-.11-.69-.2-1.35-.26-1.98-.12-1.13-.17-2.16-.18-3.09,0,1.38-.32,2.37-.78,3.15-.04.08-.08.14-.14.21h0c-.26.43-.57.79-.89,1.12-.26.27-.52.52-.78.77-.64.62-1.23,1.23-1.52,2.08-.23.68-.28,1.52-.01,2.65,2.72,11.49,5.2,21.4,7.18,30.49.29,1.35.57,2.68.85,4,4.58,22.27,5.83,40.17-.06,65.97-.1.46-.21.92-.32,1.38.26.01.53.02.78.03,29.9,1,31.25-22.49,31.25-22.49,0,0,7.97,1.45,24.63-5.07,15.09-5.9,15.93-29.04-9.87-39.82Zm-17.52,0c3.34,1.94,6.48,4.54,8.54,5.75,6.67,4.44,23.16,10.51,18.52,22.12-5.24,14.89-31.4,10.05-39.55-10.99-3.72-5.97-4.65-9.04.06-16.23.15-.23.31-.45.48-.65,3.08-3.91,7.68-2.49,11.95,0Z"/>
          </g>
          <path class="cls-6" d="m461.36,509.6c-.38-1.22-.77-2.44-1.17-3.67h0c-.39-1.22-.79-2.43-1.19-3.64-.49-.42-.98-.82-1.46-1.21.41,1.2.8,2.4,1.18,3.59.41,1.22.8,2.44,1.18,3.65.05.14.09.28.13.42.35,1.07.68,2.14,1.01,3.2.19.62.39,1.24.57,1.86.51,1.66,1.01,3.31,1.48,4.95.42,1.4.82,2.79,1.21,4.18.03.11.06.21.09.32.19.64.37,1.28.55,1.92.15.53.29,1.05.43,1.57.04.15.08.29.12.44.02.09.05.17.07.26.53,1.96,1.05,3.91,1.55,5.85.31,1.17.6,2.33.88,3.49.3,1.16.58,2.32.85,3.47.56,2.31,1.09,4.62,1.59,6.92.25,1.12.49,2.23.72,3.34.04.21.09.41.13.62.17.78.33,1.57.48,2.34.08.37.15.74.23,1.11.03.16.06.33.09.49.3,1.48.58,2.95.85,4.42.24,1.3.47,2.61.7,3.9.03.16.05.31.08.47l1.33,1.89c-2.92-17.73-7.5-36.54-13.68-56.15Zm13.68,56.15c-2.92-17.73-7.5-36.54-13.68-56.15-.38-1.22-.77-2.44-1.17-3.67h0c-.39-1.22-.79-2.43-1.19-3.64-.49-.42-.98-.82-1.46-1.21.41,1.2.8,2.4,1.18,3.59.41,1.22.8,2.44,1.18,3.65.05.14.09.28.13.42.35,1.07.68,2.14,1.01,3.2.19.62.39,1.24.57,1.86.51,1.66,1.01,3.31,1.48,4.95.42,1.4.82,2.79,1.21,4.18.03.11.06.21.09.32.19.64.37,1.28.55,1.92.15.53.29,1.05.43,1.57.04.15.08.29.12.44.02.09.05.17.07.26.53,1.96,1.05,3.91,1.55,5.85.31,1.17.6,2.33.88,3.49.3,1.16.58,2.32.85,3.47.56,2.31,1.09,4.62,1.59,6.92.25,1.12.49,2.23.72,3.34.04.21.09.41.13.62.17.78.33,1.57.48,2.34.08.37.15.74.23,1.11.03.16.06.33.09.49.3,1.48.58,2.95.85,4.42.24,1.3.47,2.61.7,3.9.03.16.05.31.08.47.06.33.12.67.17,1.01.06.32.11.63.16.95.11.66.22,1.31.32,1.96.11.7.22,1.39.33,2.09.15.99.3,1.98.44,2.97.1.7.2,1.4.29,2.1.09.61.17,1.22.24,1.82.08.58.16,1.15.22,1.73.01.05.01.09.02.14h0s.01.06.01.09c.14,1.07.26,2.14.38,3.2.1.87.19,1.73.27,2.58.11.96.2,1.91.28,2.86l1.15,1.62c-.64-7.5-1.62-15.26-2.95-23.23Zm64.42-56.87l-.82.72c-6.18,19.61-10.76,38.41-13.68,56.14l1.33-1.88c.26-1.5.53-3.01.81-4.53.26-1.41.53-2.83.82-4.26.03-.16.06-.33.09-.49.08-.37.15-.74.23-1.11.2-.98.4-1.97.61-2.96.23-1.11.47-2.22.72-3.34.5-2.3,1.03-4.61,1.59-6.92.28-1.16.56-2.31.85-3.47s.58-2.32.88-3.49c.5-1.94,1.01-3.89,1.55-5.85.41-1.5.83-3,1.26-4.51.39-1.39.79-2.78,1.21-4.18.47-1.64.97-3.29,1.48-4.95.18-.62.38-1.24.57-1.86.33-1.06.65-2.13,1.01-3.2.04-.14.08-.28.13-.42-.21.18-.42.37-.64.56Zm-64.42,56.87c-2.92-17.73-7.5-36.54-13.68-56.15-.38-1.22-.77-2.44-1.17-3.67h0c-.39-1.22-.79-2.43-1.19-3.64-.49-.42-.98-.82-1.46-1.21.41,1.2.8,2.4,1.18,3.59.41,1.22.8,2.44,1.18,3.65.05.14.09.28.13.42.35,1.07.68,2.14,1.01,3.2.19.62.39,1.24.57,1.86.51,1.66,1.01,3.31,1.48,4.95.42,1.4.82,2.79,1.21,4.18.03.11.06.21.09.32.19.64.37,1.28.55,1.92.15.53.29,1.05.43,1.57.04.15.08.29.12.44.02.09.05.17.07.26.53,1.96,1.05,3.91,1.55,5.85.31,1.17.6,2.33.88,3.49.3,1.16.58,2.32.85,3.47.56,2.31,1.09,4.62,1.59,6.92.25,1.12.49,2.23.72,3.34.04.21.09.41.13.62.17.78.33,1.57.48,2.34.08.37.15.74.23,1.11.03.16.06.33.09.49.3,1.48.58,2.95.85,4.42.24,1.3.47,2.61.7,3.9.03.16.05.31.08.47.06.33.12.67.17,1.01.06.32.11.63.16.95.11.66.22,1.31.32,1.96.11.7.22,1.39.33,2.09.15.99.3,1.98.44,2.97.1.7.2,1.4.29,2.1.09.61.17,1.22.24,1.82.08.58.16,1.15.22,1.73.01.05.01.09.02.14h0s.01.06.01.09c.14,1.07.26,2.14.38,3.2.1.87.19,1.73.27,2.58.11.96.2,1.91.28,2.86l1.15,1.62c-.64-7.5-1.62-15.26-2.95-23.23Zm-13.68-56.15l-.82-.72c-.22-.19-.43-.38-.64-.56.05.14.09.28.13.42.36,1.07.68,2.14,1.01,3.2.19.62.39,1.24.57,1.86.51,1.66,1.01,3.31,1.48,4.95.42,1.4.82,2.79,1.21,4.18.03.11.06.21.09.32.19.64.37,1.28.55,1.92.15.53.29,1.05.43,1.57.04.15.08.29.12.44.02.09.05.17.07.26.53,1.96,1.05,3.91,1.55,5.85.31,1.17.6,2.33.88,3.49.3,1.16.58,2.32.85,3.47.56,2.31,1.09,4.62,1.59,6.92.25,1.12.49,2.23.72,3.34.04.21.09.41.13.62.17.78.33,1.57.48,2.34.08.37.15.74.23,1.11.03.16.06.33.09.49.3,1.48.58,2.95.85,4.42.13.64.24,1.28.36,1.92.12.66.23,1.32.34,1.98.03.16.05.31.08.47l1.33,1.89c-2.92-17.73-7.5-36.54-13.68-56.15Zm133.4,167.24c-.58-3.2-2.23-7.7-6.63-12.13-2.34-2.36-5.46-4.69-9.62-6.8-2.89-1.47-6.29-2.82-10.28-4-1.04-.3-2.13-.6-3.25-.88-27.2-6.79-36.75-23.33-39.13-32.68-.18-.7-.32-1.36-.42-1.97-.13-.73-.2-1.4-.22-1.98-.02-.2-.02-.38-.02-.56,0-.39-.01-.95-.03-1.68-.02-.88-.03-1.76-.04-2.66-.01-.56-.01-1.13-.01-1.7v-.32c0-.56,0-1.11.01-1.68h0c0-.11,0-.22.01-.32,0-.56.01-1.13.01-1.69.04-1.61.08-3.24.16-4.89.02-.66.05-1.33.08-2,.03-.66.07-1.33.11-2,.27-4.76.7-9.65,1.27-14.65.9-7.87,2.16-16.01,3.77-24.39h0c3.25-16.96,7.95-34.86,13.98-53.29.38-1.17.76-2.34,1.16-3.51.38-1.14.77-2.29,1.17-3.45,3.26-9.5,6.87-19.14,10.81-28.84,2.45-6.02,4.31-11.87,5.67-17.52h0c2.08-8.74,2.94-17.02,2.86-24.84,0-.76-.02-1.52-.05-2.28-.02-.75-.06-1.5-.1-2.24-1.25-21.59-9.66-39.41-19.11-52.89-.23-.33-.46-.66-.7-.98-1.04-1.46-2.1-2.87-3.16-4.23-18.52-23.7-41.15-36.15-42.1-36.67l-.96-.52-.95.52c-.96.52-23.59,12.97-42.11,36.67-1.06,1.36-2.12,2.77-3.16,4.23-.24.32-.47.65-.7.98-9.45,13.48-17.86,31.3-19.11,52.89-.04.74-.08,1.49-.1,2.24-.03.76-.05,1.52-.05,2.28-.08,7.82.78,16.1,2.86,24.83h0c1.36,5.66,3.22,11.51,5.67,17.53,3.94,9.7,7.55,19.34,10.81,28.84.4,1.16.79,2.31,1.17,3.45.4,1.17.78,2.34,1.16,3.51,6.03,18.43,10.73,36.33,13.98,53.28,1.61,8.38,2.87,16.53,3.77,24.4.57,5,1,9.89,1.27,14.65.04.67.08,1.34.11,2,.03.67.06,1.34.08,2,.08,1.65.12,3.28.16,4.89,0,.56.01,1.13.01,1.69.01.11.01.21.01.32.01.56.01,1.12.01,1.68v.32c0,.57,0,1.14-.01,1.7-.01.9-.02,1.78-.04,2.66-.02.73-.03,1.29-.03,1.68,0,.18,0,.36-.02.56-.02.58-.09,1.25-.22,1.98-.1.61-.24,1.27-.42,1.97-2.38,9.35-11.93,25.89-39.13,32.68-1.12.28-2.2.57-3.24.88-3.99,1.18-7.39,2.53-10.29,4-12.08,6.13-15.45,14.19-16.33,19.16-1.48,8.46,2.5,17.01,10.39,22.32,9.71,6.53,20.03,6.17,24.25,5.67,1.68,6.02,8.59,24.07,30.59,23.02,2.61,6.65,14.23,33.73,29.61,32.53.33.02.65.03.98.03,14.92,0,26.07-26.05,28.63-32.56.6.03,1.19.04,1.77.04,20.63,0,27.2-17.24,28.83-23.08,4.26.48,14.88.82,24.26-5.67,7.89-5.45,11.83-14.08,10.29-22.53Zm-35.67,24l-2.02-.41-.34,2.04c-.17.96-4.33,23.53-28.3,21.53l-1.44-.12h-.09s-.52,1.43-.52,1.43c-3.28,9.07-14.41,32.36-26.2,31.3l-.18-.02-.18.02c-11.8,1.09-22.92-22.23-26.2-31.3l-.52-1.44-1.53.13c-23.92,1.99-28.13-20.58-28.3-21.53l-.35-2.06-2.04.44c-.07.01-4.77.98-10.94-.04h-.03c-1.88-.31-3.9-.81-5.96-1.58-.03,0-.06-.02-.1-.04-2.01-.75-4.06-1.77-6.07-3.12-6.56-4.41-9.89-11.43-8.68-18.31,1.52-8.65,9.95-15.77,23.33-19.85,1.15-.35,2.34-.68,3.56-.99,3.44-.86,6.61-1.87,9.54-3.01,22.23-8.58,30.45-24.15,32.63-33.29.17-.7.3-1.37.4-1.98.12-.73.19-1.39.23-1.98.01-.29.02-.56.02-.82,0-.37.01-.9.03-1.59.03-1,.04-2,.05-3.01.01-.39.01-.79,0-1.19.01-.27.01-.54.01-.82,0-.39,0-.78-.01-1.18,0-.27,0-.54-.01-.82,0-.39,0-.78-.01-1.18-.02-1.79-.07-3.59-.15-5.41-.02-.66-.05-1.33-.09-2-.02-.66-.06-1.33-.1-2-.13-2.52-.32-5.07-.54-7.66-.64-7.5-1.62-15.26-2.95-23.23-2.92-17.73-7.5-36.54-13.68-56.15-.38-1.22-.77-2.44-1.17-3.67h0c-.39-1.22-.79-2.43-1.19-3.64-3.79-11.44-8.11-23.14-12.95-35.03-1.92-4.72-3.51-9.41-4.76-14.05-2.26-8.3-3.46-16.48-3.6-24.51-.02-.78-.02-1.57-.01-2.35,0-.77.01-1.55.05-2.32.66-20.21,8.11-39.5,22.28-57.68,15.9-20.38,35.48-32.53,39.99-35.17,4.5,2.63,24,14.72,39.91,35.07,14.22,18.2,21.69,37.53,22.35,57.79.04.77.05,1.54.05,2.31.02.78.01,1.57-.01,2.36-.14,8.03-1.34,16.2-3.6,24.5h0c-1.24,4.65-2.83,9.33-4.75,14.05-4.84,11.89-9.16,23.59-12.95,35.03-.4,1.21-.8,2.42-1.19,3.63h0c-.4,1.24-.79,2.46-1.17,3.68-6.18,19.61-10.76,38.41-13.68,56.14h0c-1.33,7.98-2.31,15.74-2.95,23.24-.22,2.59-.41,5.14-.54,7.66-.04.67-.08,1.34-.1,2-.04.67-.07,1.34-.09,2-.08,1.82-.13,3.62-.15,5.41-.01.4-.01.79-.01,1.18-.01.28-.01.55-.01.82,0,.4,0,.79,0,1.18,0,.28,0,.55,0,.82,0,.4,0,.8,0,1.19.01,1.01.02,2.01.05,3.01.02.69.03,1.22.03,1.59,0,.26.01.53.02.82.03.39.07.81.12,1.26.04.23.07.47.11.72.1.61.23,1.28.4,1.98,2.18,9.14,10.4,24.71,32.63,33.29,2.93,1.14,6.1,2.15,9.54,3.01,1.25.31,2.44.64,3.58.99,18,5.42,22.3,14.51,23.23,19.65,1.26,6.88-2.05,13.98-8.62,18.53-1.81,1.25-3.68,2.21-5.55,2.94-.02.01-.04.02-.06.03-2.19.85-4.37,1.4-6.41,1.73h-.03c-6.14,1-10.98.07-11.06.05Zm-97.73-191.24l-.82-.72c-.22-.19-.43-.38-.64-.56.05.14.09.28.13.42.36,1.07.68,2.14,1.01,3.2.19.62.39,1.24.57,1.86.51,1.66,1.01,3.31,1.48,4.95.42,1.4.82,2.79,1.21,4.18.03.11.06.21.09.32.19.64.37,1.28.55,1.92.15.53.29,1.05.43,1.57.04.15.08.29.12.44.02.09.05.17.07.26.53,1.96,1.05,3.91,1.55,5.85.31,1.17.6,2.33.88,3.49.3,1.16.58,2.32.85,3.47.56,2.31,1.09,4.62,1.59,6.92.25,1.12.49,2.23.72,3.34.04.21.09.41.13.62.17.78.33,1.57.48,2.34.08.37.15.74.23,1.11.03.16.06.33.09.49.3,1.48.58,2.95.85,4.42.12.64.24,1.28.36,1.92.12.66.23,1.32.34,1.98.03.16.05.31.08.47l1.33,1.89c-2.92-17.73-7.5-36.54-13.68-56.15Zm13.68,56.15c-2.92-17.73-7.5-36.54-13.68-56.15-.38-1.22-.77-2.44-1.17-3.67h0c-.39-1.22-.79-2.43-1.19-3.64-.49-.42-.98-.82-1.46-1.21.41,1.2.8,2.4,1.18,3.59.41,1.22.8,2.44,1.18,3.65.05.14.09.28.13.42.35,1.07.68,2.14,1.01,3.2.19.62.39,1.24.57,1.86.51,1.66,1.01,3.31,1.48,4.95.42,1.4.82,2.79,1.21,4.18.03.11.06.21.09.32.19.64.37,1.28.55,1.92.15.53.29,1.05.43,1.57.04.15.08.29.12.44.02.09.05.17.07.26.53,1.96,1.05,3.91,1.55,5.85.31,1.17.6,2.33.88,3.49.3,1.16.58,2.32.85,3.47.56,2.31,1.09,4.62,1.59,6.92.25,1.12.49,2.23.72,3.34.04.21.09.41.13.62.17.78.33,1.57.48,2.34.08.37.15.74.23,1.11.03.16.06.33.09.49.3,1.48.58,2.95.85,4.42.24,1.3.47,2.61.7,3.9.03.16.05.31.08.47.06.33.12.67.17,1.01.06.32.11.63.16.95.11.66.22,1.31.32,1.96.11.7.22,1.39.33,2.09.15.99.3,1.98.44,2.97.1.7.2,1.4.29,2.1.09.61.17,1.22.24,1.82.08.58.16,1.15.22,1.73.01.05.01.09.02.14h0s.01.06.01.09c.14,1.07.26,2.14.38,3.2.1.87.19,1.73.27,2.58.11.96.2,1.91.28,2.86l1.15,1.62c-.64-7.5-1.62-15.26-2.95-23.23Zm0,0c-2.92-17.73-7.5-36.54-13.68-56.15-.38-1.22-.77-2.44-1.17-3.67h0c-.39-1.22-.79-2.43-1.19-3.64-.49-.42-.98-.82-1.46-1.21.41,1.2.8,2.4,1.18,3.59.41,1.22.8,2.44,1.18,3.65.05.14.09.28.13.42.35,1.07.68,2.14,1.01,3.2.19.62.39,1.24.57,1.86.51,1.66,1.01,3.31,1.48,4.95.42,1.4.82,2.79,1.21,4.18.03.11.06.21.09.32.19.64.37,1.28.55,1.92.15.53.29,1.05.43,1.57.04.15.08.29.12.44.02.09.05.17.07.26.53,1.96,1.05,3.91,1.55,5.85.31,1.17.6,2.33.88,3.49.3,1.16.58,2.32.85,3.47.56,2.31,1.09,4.62,1.59,6.92.25,1.12.49,2.23.72,3.34.04.21.09.41.13.62.17.78.33,1.57.48,2.34.08.37.15.74.23,1.11.03.16.06.33.09.49.3,1.48.58,2.95.85,4.42.24,1.3.47,2.61.7,3.9.03.16.05.31.08.47.06.33.12.67.17,1.01.06.32.11.63.16.95.11.66.22,1.31.32,1.96.11.7.22,1.39.33,2.09.15.99.3,1.98.44,2.97.1.7.2,1.4.29,2.1.09.61.17,1.22.24,1.82.08.58.16,1.15.22,1.73.01.05.01.09.02.14h0s.01.06.01.09c.14,1.07.26,2.14.38,3.2.1.87.19,1.73.27,2.58.11.96.2,1.91.28,2.86l1.15,1.62c-.64-7.5-1.62-15.26-2.95-23.23Z"/>
          <g>
            <g>
              <path class="cls-2" d="m500,608.57c-10.33,0-20.06-.34-27.39-.96-11.29-.95-13.11-2.04-13.11-4.28s1.82-3.33,13.11-4.28c7.32-.62,17.05-.96,27.39-.96s20.06.34,27.38.96c11.29.95,13.11,2.04,13.11,4.28s-1.82,3.33-13.11,4.28c-7.32.62-17.05.96-27.38.96Z"/>
              <path class="cls-6" d="m497.48,606.72h-.01l-.21-.15c-2.37-.01-4.69-.04-6.92-.09l.24.33,1.19,1.69c2.64.05,5.36.08,8.12.08l.11-.08-2.52-1.78Zm-.22-.15c-2.37-.01-4.69-.04-6.92-.09l.24.33c2.24-.05,4.54-.08,6.89-.09l-.21-.15Zm38.99-8.42c-2.09-.41-5.01-.78-8.7-1.09-.67-.06-1.35-.11-2.06-.16-.97-.07-1.98-.14-3.02-.2-.33-.02-.66-.04-1-.06-1.51-.08-3.08-.16-4.71-.22-4.13-.17-8.6-.27-13.24-.3h-.01c-1.16-.02-2.33-.02-3.51-.02s-2.36,0-3.52.02c-4.64.03-9.11.13-13.24.3-1.63.06-3.2.14-4.71.22-.34.02-.67.04-1,.06-.33.02-.66.04-.98.06-.7.04-1.38.09-2.04.14-.71.05-1.39.1-2.06.16-3.69.31-6.61.68-8.7,1.09-1.87.37-6.24,1.25-6.24,5.19s4.37,4.81,6.24,5.18c.21.04.43.08.66.12,2.03.37,4.72.69,8.04.97.13.01.27.02.4.03h0c.66.06,1.33.11,2.03.16.66.05,1.33.09,2.01.13.33.02.66.04,1,.06.33.02.66.04.99.06,4.35.24,9.2.4,14.31.47,1.27.03,2.57.04,3.88.04.97.02,1.94.02,2.92.02s1.94,0,2.91-.02h0c1.31,0,2.61-.01,3.88-.04,5.11-.07,9.96-.23,14.31-.47.33-.02.66-.04.99-.06,1.03-.06,2.04-.12,3.01-.19.7-.05,1.36-.1,2.02-.16h.02c.13-.01.27-.02.4-.03,3.32-.28,6.01-.6,8.04-.97.23-.04.45-.08.66-.12,1.87-.37,6.24-1.24,6.24-5.18s-4.37-4.82-6.24-5.19Zm-11.11,7.64c-.96.07-1.97.14-3.01.2-.33.02-.66.04-1,.06-3.47.19-7.34.34-11.47.43-2.23.05-4.55.08-6.92.09-.9.01-1.82.01-2.74.01s-1.84,0-2.74-.01c-2.37-.01-4.69-.04-6.92-.09-4.13-.09-8-.24-11.47-.43-.34-.02-.67-.04-1-.06-.33-.02-.66-.04-.98-.06-.7-.04-1.37-.09-2.03-.14-8.18-.59-13.35-1.47-13.35-2.45s5.11-1.85,13.19-2.44c.66-.05,1.34-.1,2.04-.14.32-.02.65-.04.98-.06.33-.02.66-.04,1-.06,2.27-.13,4.71-.24,7.28-.32,4.13-.14,8.61-.21,13.3-.22h1.4c4.69.01,9.17.08,13.3.22,2.57.08,5.01.19,7.28.32.34.02.67.04,1,.06,1.05.06,2.05.13,3.02.2,8.08.59,13.19,1.47,13.19,2.44s-5.17,1.86-13.35,2.45Zm-27.88.78c-2.37-.01-4.69-.04-6.92-.09l.24.33c2.24-.05,4.54-.08,6.89-.09l-.21-.15Z"/>
            </g>
            <g>
              <path class="cls-2" d="m500,619.18c-10.33,0-20.06-.34-27.39-.96-11.29-.95-13.11-2.04-13.11-4.28s1.82-3.33,13.11-4.28c7.32-.62,17.05-.96,27.39-.96s20.06.34,27.38.96c11.29.95,13.11,2.04,13.11,4.28s-1.82,3.33-13.11,4.28c-7.32.62-17.05.96-27.38.96Z"/>
              <path class="cls-6" d="m502.92,610.56h0l-2.62-1.85h-.58c-1.44,0-2.87.01-4.28.02-.52,0-1.04.01-1.56.02-.64.01-1.27.02-1.9.03h-.19c-1.03.02-2.05.04-3.05.07-.6.01-1.2.03-1.79.05-.59.02-1.18.04-1.76.06-1.16.04-2.3.08-3.41.13-.56.03-1.1.05-1.64.08-.41.02-.82.04-1.23.06,0,.28,0,.55-.01.82.01.4.01.8,0,1.19,4.3-.24,9.21-.41,14.48-.48,1.14-.02,2.3-.03,3.48-.03,1.04-.02,2.09-.02,3.15-.02s2.11,0,3.15.02l-.23-.17Zm0,0h0l-2.62-1.85h-.58c-1.44,0-2.87.01-4.28.02-.52,0-1.04.01-1.56.02-.64.01-1.27.02-1.9.03h-.19c-1.03.02-2.05.04-3.05.07-.6.01-1.2.03-1.79.05-.59.02-1.18.04-1.76.06-1.16.04-2.3.08-3.41.13-.56.03-1.1.05-1.64.08-.41.02-.82.04-1.23.06,0,.28,0,.55-.01.82.01.4.01.8,0,1.19,4.3-.24,9.21-.41,14.48-.48,1.14-.02,2.3-.03,3.48-.03,1.04-.02,2.09-.02,3.15-.02s2.11,0,3.15.02l-.23-.17Zm0,0h0l-2.62-1.85h-.58c-1.44,0-2.87.01-4.28.02-.52,0-1.04.01-1.56.02-.64.01-1.27.02-1.9.03h-.19c-1.03.02-2.05.04-3.05.07-.6.01-1.2.03-1.79.05-.59.02-1.18.04-1.76.06-1.16.04-2.3.08-3.41.13-.56.03-1.1.05-1.64.08-.41.02-.82.04-1.23.06,0,.28,0,.55-.01.82.01.4.01.8,0,1.19,4.3-.24,9.21-.41,14.48-.48,1.14-.02,2.3-.03,3.48-.03,1.04-.02,2.09-.02,3.15-.02s2.11,0,3.15.02l-.23-.17Zm33.33-1.8c-.21-.04-.43-.08-.66-.12-2.03-.36-4.72-.69-8.04-.97-.13-.01-.27-.02-.4-.03h-.02c-.66-.06-1.31-.11-2-.16-.97-.07-1.97-.13-3.01-.19-.33-.02-.66-.04-1-.06-3.6-.19-7.55-.34-11.7-.42-2.24-.05-4.55-.08-6.9-.09-.83-.01-1.67-.01-2.52-.01s-1.69,0-2.52.01h-.01c-2.35,0-4.65.04-6.89.09-4.15.08-8.1.23-11.7.42-.34.02-.67.04-1,.06s-.66.04-.98.06c-.69.04-1.37.09-2.03.13-.69.05-1.35.1-2.01.16h0c-.13.01-.27.02-.4.03-3.32.28-6.01.61-8.04.97-.23.04-.45.08-.66.12-1.87.37-6.24,1.25-6.24,5.19s4.37,4.81,6.24,5.18c2.09.42,5.01.78,8.7,1.09.55.05,1.12.09,1.7.13.65.05,1.31.1,1.99.14.34.03.68.05,1.02.07.33.02.66.04,1,.06,6.4.37,13.94.57,21.84.57,6.77,0,13.28-.15,19.03-.42.96-.05,1.9-.1,2.81-.15.34-.02.67-.04,1-.06.38-.02.76-.05,1.13-.07.64-.05,1.27-.09,1.88-.14.58-.04,1.15-.08,1.7-.13,3.69-.31,6.61-.67,8.7-1.09,1.87-.37,6.24-1.24,6.24-5.18s-4.37-4.82-6.24-5.19Zm-11.04,7.64c-.61.04-1.24.09-1.89.13-.31.02-.63.04-.96.06-.05,0-.1,0-.15.01-.33.02-.66.04-1,.06-6.08.33-13.37.53-21.21.53s-15.13-.2-21.21-.53c-.34-.02-.67-.04-1-.06-.34-.02-.67-.04-1-.06-.69-.05-1.35-.09-2-.14-8.13-.6-13.28-1.47-13.28-2.45s5.18-1.86,13.37-2.45c.65-.05,1.32-.1,2.01-.14.32-.02.66-.04.99-.06s.67-.04,1.01-.06c4.3-.24,9.21-.41,14.48-.48,1.14-.02,2.3-.03,3.48-.03,1.04-.02,2.09-.02,3.15-.02s2.11,0,3.15.02c1.18,0,2.34.01,3.48.03,5.27.07,10.18.24,14.48.48.34.02.68.04,1.01.06,1.04.06,2.04.13,3,.2,8.19.59,13.37,1.47,13.37,2.45s-5.15,1.85-13.28,2.45Zm-22.29-5.84h0l-2.62-1.85h-.58c-1.44,0-2.87.01-4.28.02-.52,0-1.04.01-1.56.02-.64.01-1.27.02-1.9.03h-.19c-1.03.02-2.05.04-3.05.07-.6.01-1.2.03-1.79.05-.59.02-1.18.04-1.76.06-1.16.04-2.3.08-3.41.13-.56.03-1.1.05-1.64.08-.41.02-.82.04-1.23.06,0,.28,0,.55-.01.82.01.4.01.8,0,1.19,4.3-.24,9.21-.41,14.48-.48,1.14-.02,2.3-.03,3.48-.03,1.04-.02,2.09-.02,3.15-.02s2.11,0,3.15.02l-.23-.17Zm0,0h0l-2.62-1.85h-.58c-1.44,0-2.87.01-4.28.02-.52,0-1.04.01-1.56.02-.64.01-1.27.02-1.9.03h-.19c-1.03.02-2.05.04-3.05.07-.6.01-1.2.03-1.79.05-.59.02-1.18.04-1.76.06-1.16.04-2.3.08-3.41.13-.56.03-1.1.05-1.64.08-.41.02-.82.04-1.23.06,0,.28,0,.55-.01.82.01.4.01.8,0,1.19,4.3-.24,9.21-.41,14.48-.48,1.14-.02,2.3-.03,3.48-.03,1.04-.02,2.09-.02,3.15-.02s2.11,0,3.15.02l-.23-.17Zm0,0h0l-2.62-1.85h-.58c-1.44,0-2.87.01-4.28.02-.52,0-1.04.01-1.56.02-.64.01-1.27.02-1.9.03h-.19c-1.03.02-2.05.04-3.05.07-.6.01-1.2.03-1.79.05-.59.02-1.18.04-1.76.06-1.16.04-2.3.08-3.41.13-.56.03-1.1.05-1.64.08-.41.02-.82.04-1.23.06,0,.28,0,.55-.01.82.01.4.01.8,0,1.19,4.3-.24,9.21-.41,14.48-.48,1.14-.02,2.3-.03,3.48-.03,1.04-.02,2.09-.02,3.15-.02s2.11,0,3.15.02l-.23-.17Zm0,0h0l-2.62-1.85h-.58l-2.63,1.85-.23.17c1.04-.02,2.09-.02,3.15-.02s2.11,0,3.15.02l-.23-.17Z"/>
            </g>
          </g>
          <g>
            <g class="cls-7">
              <path class="cls-2" d="m491.77,608.5l-1.19-1.69-.24-.33c-4.13-.09-8-.24-11.47-.43-.02-1.79-.07-3.59-.15-5.41-.02-.66-.05-1.33-.09-2-.02-.66-.06-1.33-.1-2-.13-2.52-.32-5.07-.54-7.66l-1.15-1.62-1.17-1.67-2.43-3.44c.57,5,1,9.89,1.27,14.65-.71.05-1.39.1-2.06.16-3.69.31-6.61.68-8.7,1.09-1.87.37-6.24,1.25-6.24,5.19s4.37,4.81,6.24,5.18c.21.04.43.08.66.12-.23.04-.45.08-.66.12-1.87.37-6.24,1.25-6.24,5.19s4.37,4.81,6.24,5.18c2.09.42,5.01.78,8.7,1.09.55.05,1.12.09,1.7.13.18-.7.32-1.36.42-1.97.13-.73.2-1.4.22-1.98.02-.2.02-.38.02-.56,0-.39.01-.95.03-1.68.02-.88.03-1.76.04-2.66.65-.05,1.32-.1,2.01-.14.32-.02.66-.04.99-.06s.67-.04,1.01-.06c.01-.39.01-.79,0-1.19.01-.27.01-.54.01-.82.41-.02.82-.04,1.23-.06.54-.03,1.08-.05,1.64-.08,1.11-.05,2.25-.09,3.41-.13.58-.02,1.17-.04,1.76-.06.59-.02,1.19-.04,1.79-.05,1-.03,2.02-.05,3.05-.07h.19l-.2-.28Zm44.48-10.35c-2.09-.41-5.01-.78-8.7-1.09-.67-.06-1.35-.11-2.06-.16.27-4.76.7-9.65,1.27-14.65l69.14-97.92c-3.42-1.23-7.77-1.56-13.02-.62l-52.35,74.14c3.25-16.95,7.95-34.85,13.98-53.28-1.44,1.19-2.91,2.43-4.41,3.75-.05.14-.09.28-.13.42-.36,1.07-.68,2.14-1.01,3.2-.19.62-.39,1.24-.57,1.86-.51,1.66-1.01,3.31-1.48,4.95-.42,1.4-.82,2.79-1.21,4.18-.43,1.51-.85,3.01-1.26,4.51-.54,1.96-1.05,3.91-1.55,5.85-.3,1.17-.59,2.33-.88,3.49s-.57,2.31-.85,3.47c-.56,2.31-1.09,4.62-1.59,6.92-.25,1.12-.49,2.23-.72,3.34-.21.99-.41,1.98-.61,2.96-.08.37-.15.74-.23,1.11-.11.56-.22,1.12-.33,1.67-.2,1.03-.4,2.06-.58,3.08-.14.74-.28,1.49-.41,2.23-.14.77-.27,1.53-.4,2.3l-1.33,1.88h0c-1.33,7.98-2.31,15.74-2.95,23.24l-5.25,7.44-1.38,1.95-1.38,1.95-4.34,6.16c-2.23.05-4.55.08-6.92.09-.9.01-1.82.01-2.74.01s-1.84,0-2.74-.01l.21.15h.01c.83-.01,1.67-.01,2.52-.01s1.69,0,2.52.01c2.35,0,4.66.04,6.9.09,4.15.08,8.1.23,11.7.42.34.02.67.04,1,.06,1.04.06,2.04.12,3.01.19.69.05,1.34.1,2,.16h.02c.13.01.27.02.4.03,3.32.28,6.01.61,8.04.97.23-.04.45-.08.66-.12,1.87-.37,6.24-1.24,6.24-5.18s-4.37-4.82-6.24-5.19Zm-44.48,10.35l-1.19-1.69-.24-.33c-4.13-.09-8-.24-11.47-.43-.02-1.79-.07-3.59-.15-5.41-.02-.66-.05-1.33-.09-2-.02-.66-.06-1.33-.1-2-.13-2.52-.32-5.07-.54-7.66l-1.15-1.62-1.17-1.67-2.43-3.44c.57,5,1,9.89,1.27,14.65-.71.05-1.39.1-2.06.16-3.69.31-6.61.68-8.7,1.09-1.87.37-6.24,1.25-6.24,5.19s4.37,4.81,6.24,5.18c.21.04.43.08.66.12-.23.04-.45.08-.66.12-1.87.37-6.24,1.25-6.24,5.19s4.37,4.81,6.24,5.18c2.09.42,5.01.78,8.7,1.09.55.05,1.12.09,1.7.13.18-.7.32-1.36.42-1.97.13-.73.2-1.4.22-1.98.02-.2.02-.38.02-.56,0-.39.01-.95.03-1.68.02-.88.03-1.76.04-2.66.65-.05,1.32-.1,2.01-.14.32-.02.66-.04.99-.06s.67-.04,1.01-.06c.01-.39.01-.79,0-1.19.01-.27.01-.54.01-.82.41-.02.82-.04,1.23-.06.54-.03,1.08-.05,1.64-.08,1.11-.05,2.25-.09,3.41-.13.58-.02,1.17-.04,1.76-.06.59-.02,1.19-.04,1.79-.05,1-.03,2.02-.05,3.05-.07h.19l-.2-.28Zm44.48-10.35c-2.09-.41-5.01-.78-8.7-1.09-.67-.06-1.35-.11-2.06-.16.27-4.76.7-9.65,1.27-14.65l69.14-97.92c-3.42-1.23-7.77-1.56-13.02-.62l-52.35,74.14c3.25-16.95,7.95-34.85,13.98-53.28-1.44,1.19-2.91,2.43-4.41,3.75-.05.14-.09.28-.13.42-.36,1.07-.68,2.14-1.01,3.2-.19.62-.39,1.24-.57,1.86-.51,1.66-1.01,3.31-1.48,4.95-.42,1.4-.82,2.79-1.21,4.18-.43,1.51-.85,3.01-1.26,4.51-.54,1.96-1.05,3.91-1.55,5.85-.3,1.17-.59,2.33-.88,3.49s-.57,2.31-.85,3.47c-.56,2.31-1.09,4.62-1.59,6.92-.25,1.12-.49,2.23-.72,3.34-.21.99-.41,1.98-.61,2.96-.08.37-.15.74-.23,1.11-.11.56-.22,1.12-.33,1.67-.2,1.03-.4,2.06-.58,3.08-.14.74-.28,1.49-.41,2.23-.14.77-.27,1.53-.4,2.3l-1.33,1.88h0c-1.33,7.98-2.31,15.74-2.95,23.24l-5.25,7.44-1.38,1.95-1.38,1.95-4.34,6.16c-2.23.05-4.55.08-6.92.09-.9.01-1.82.01-2.74.01s-1.84,0-2.74-.01l.21.15h.01c.83-.01,1.67-.01,2.52-.01s1.69,0,2.52.01c2.35,0,4.66.04,6.9.09,4.15.08,8.1.23,11.7.42.34.02.67.04,1,.06,1.04.06,2.04.12,3.01.19.69.05,1.34.1,2,.16h.02c.13.01.27.02.4.03,3.32.28,6.01.61,8.04.97.23-.04.45-.08.66-.12,1.87-.37,6.24-1.24,6.24-5.18s-4.37-4.82-6.24-5.19Zm-44.48,10.35l-1.19-1.69-.24-.33c-4.13-.09-8-.24-11.47-.43-.02-1.79-.07-3.59-.15-5.41-.02-.66-.05-1.33-.09-2-.02-.66-.06-1.33-.1-2-.13-2.52-.32-5.07-.54-7.66l-1.15-1.62-1.17-1.67-2.43-3.44c.57,5,1,9.89,1.27,14.65-.71.05-1.39.1-2.06.16-3.69.31-6.61.68-8.7,1.09-1.87.37-6.24,1.25-6.24,5.19s4.37,4.81,6.24,5.18c.21.04.43.08.66.12-.23.04-.45.08-.66.12-1.87.37-6.24,1.25-6.24,5.19s4.37,4.81,6.24,5.18c2.09.42,5.01.78,8.7,1.09.55.05,1.12.09,1.7.13.18-.7.32-1.36.42-1.97.13-.73.2-1.4.22-1.98.02-.2.02-.38.02-.56,0-.39.01-.95.03-1.68.02-.88.03-1.76.04-2.66.65-.05,1.32-.1,2.01-.14.32-.02.66-.04.99-.06s.67-.04,1.01-.06c.01-.39.01-.79,0-1.19.01-.27.01-.54.01-.82.41-.02.82-.04,1.23-.06.54-.03,1.08-.05,1.64-.08,1.11-.05,2.25-.09,3.41-.13.58-.02,1.17-.04,1.76-.06.59-.02,1.19-.04,1.79-.05,1-.03,2.02-.05,3.05-.07h.19l-.2-.28Zm242.81,45.58l-83.4-141.22-1.16-1.96-1.16-1.97-12.31-20.85-19.72-33.4-6.13-10.37-1.53-2.6-15.8-26.75-1.05-1.77-1.05-1.79-26.57-45-7.75-13.11-54.76-92.73c-.25-.42-.58-.73-.96-.94-.19-.1-.39-.18-.6-.23-.21-.05-.42-.08-.63-.08s-.42.03-.63.08c-.21.05-.41.13-.6.23-.38.21-.71.52-.96.94l-54.76,92.73-7.75,13.11-26.57,45.01-1.05,1.78-1.05,1.77-15.8,26.75-1.53,2.6-6.13,10.37-19.72,33.4-12.31,20.85-1.16,1.97-1.16,1.96-83.4,141.22c-1.01,1.69.22,3.83,2.18,3.83h464.8c1.96,0,3.19-2.14,2.18-3.83Zm-279.09-149.51c6.03,18.43,10.73,36.33,13.98,53.28l-52.35-74.14c9.76,1.75,22.62,7.88,38.37,20.86Zm89.02,0c15.74-12.98,28.61-19.11,38.37-20.86l-52.35,74.14c3.25-16.95,7.95-34.85,13.98-53.28Zm42.81-91.99c-2.59.82-5.2,1.77-7.84,2.85-4.81,1.97-9.32,4.19-13.45,6.46-1.25-21.59-9.66-39.41-19.11-52.89l13.5-1.97,26.9,45.55Zm-87.32-147.86l54.39,92.09-8.17,11.21c-1.04-1.46-2.1-2.87-3.16-4.23-18.52-23.7-41.15-36.15-42.1-36.67l-.96-.52-.95.52c-.96.52-23.59,12.97-42.11,36.67-1.06,1.36-2.12,2.77-3.16,4.23l-8.17-11.21,54.39-92.09Zm-60.42,102.31l13.5,1.97c-9.45,13.48-17.86,31.3-19.11,52.89-4.13-2.27-8.64-4.49-13.45-6.46-2.64-1.08-5.25-2.03-7.84-2.85l26.9-45.55Zm-169.42,286.88l80.99-137.13c7.17,11.84,15.2,23.21,22.28,33.23,7.05,9.97,13.14,18.59,16.98,25.55,10.16,18.42,12.43,39.13,5.06,46.17-4.76,4.54-13.43,3.17-25.07-3.98l-2.72-1.67-.32,3.17c0,.06-.15,1.54-.08,3.83.2,6.95,2.9,29.7,29.49,30.62.4,0,.79.02,1.18.02,14.23,0,27.82-8.79,34.88-22.67,5.32-10.45,14.22-39.21-17.95-80.37-23.14-29.59-25.51-54.24-15.89-63.3,1.36-1.28,3.07-2.33,5.11-3.05l69.14,97.92c.57,5,1,9.89,1.27,14.65-.71.05-1.39.1-2.06.16-3.69.31-6.61.68-8.7,1.09-1.87.37-6.24,1.25-6.24,5.19s4.37,4.81,6.24,5.18c.21.04.43.08.66.12-.23.04-.45.08-.66.12-1.87.37-6.24,1.25-6.24,5.19s4.37,4.81,6.24,5.18c2.09.42,5.01.78,8.7,1.09.55.05,1.12.09,1.7.13-2.38,9.35-11.93,25.89-39.13,32.68-1.12.28-2.2.57-3.24.88h-161.62Zm298.07,0c-1.04-.3-2.13-.6-3.25-.88-27.2-6.79-36.75-23.33-39.13-32.68.58-.04,1.15-.08,1.7-.13,3.69-.31,6.61-.67,8.7-1.09,1.87-.37,6.24-1.24,6.24-5.18s-4.37-4.82-6.24-5.19c-.21-.04-.43-.08-.66-.12.23-.04.45-.08.66-.12,1.87-.37,6.24-1.24,6.24-5.18s-4.37-4.82-6.24-5.19c-2.09-.41-5.01-.78-8.7-1.09-.67-.06-1.35-.11-2.06-.16.27-4.76.7-9.65,1.27-14.65l69.14-97.92c2.04.72,3.75,1.77,5.11,3.05,3.42,3.22,5.32,8.4,5.32,15.07,0,12.12-6.29,29.15-21.21,48.23-32.17,41.16-23.27,69.92-17.95,80.37,7.06,13.88,20.65,22.67,34.88,22.67.39,0,.79-.01,1.18-.02,26.59-.92,29.29-23.67,29.49-30.62.07-2.29-.08-3.77-.08-3.83l-.33-3.17-2.71,1.67c-11.64,7.14-20.31,8.52-25.07,3.98-7.37-7.04-5.1-27.75,5.06-46.17,3.84-6.96,9.93-15.58,16.97-25.55,7.08-10.02,15.12-21.39,22.29-33.23l80.99,137.13h-161.61Zm-76.46-45.41l-1.19-1.69-.24-.33c-4.13-.09-8-.24-11.47-.43-.02-1.79-.07-3.59-.15-5.41-.02-.66-.05-1.33-.09-2-.02-.66-.06-1.33-.1-2-.13-2.52-.32-5.07-.54-7.66l-1.15-1.62-1.17-1.67-2.43-3.44c.57,5,1,9.89,1.27,14.65-.71.05-1.39.1-2.06.16-3.69.31-6.61.68-8.7,1.09-1.87.37-6.24,1.25-6.24,5.19s4.37,4.81,6.24,5.18c.21.04.43.08.66.12-.23.04-.45.08-.66.12-1.87.37-6.24,1.25-6.24,5.19s4.37,4.81,6.24,5.18c2.09.42,5.01.78,8.7,1.09.55.05,1.12.09,1.7.13.18-.7.32-1.36.42-1.97.13-.73.2-1.4.22-1.98.02-.2.02-.38.02-.56,0-.39.01-.95.03-1.68.02-.88.03-1.76.04-2.66.65-.05,1.32-.1,2.01-.14.32-.02.66-.04.99-.06s.67-.04,1.01-.06c.01-.39.01-.79,0-1.19.01-.27.01-.54.01-.82.41-.02.82-.04,1.23-.06.54-.03,1.08-.05,1.64-.08,1.11-.05,2.25-.09,3.41-.13.58-.02,1.17-.04,1.76-.06.59-.02,1.19-.04,1.79-.05,1-.03,2.02-.05,3.05-.07h.19l-.2-.28Zm44.48-10.35c-2.09-.41-5.01-.78-8.7-1.09-.67-.06-1.35-.11-2.06-.16.27-4.76.7-9.65,1.27-14.65l69.14-97.92c-3.42-1.23-7.77-1.56-13.02-.62l-52.35,74.14c3.25-16.95,7.95-34.85,13.98-53.28-1.44,1.19-2.91,2.43-4.41,3.75-.05.14-.09.28-.13.42-.36,1.07-.68,2.14-1.01,3.2-.19.62-.39,1.24-.57,1.86-.51,1.66-1.01,3.31-1.48,4.95-.42,1.4-.82,2.79-1.21,4.18-.43,1.51-.85,3.01-1.26,4.51-.54,1.96-1.05,3.91-1.55,5.85-.3,1.17-.59,2.33-.88,3.49s-.57,2.31-.85,3.47c-.56,2.31-1.09,4.62-1.59,6.92-.25,1.12-.49,2.23-.72,3.34-.21.99-.41,1.98-.61,2.96-.08.37-.15.74-.23,1.11-.11.56-.22,1.12-.33,1.67-.2,1.03-.4,2.06-.58,3.08-.14.74-.28,1.49-.41,2.23-.14.77-.27,1.53-.4,2.3l-1.33,1.88h0c-1.33,7.98-2.31,15.74-2.95,23.24l-5.25,7.44-1.38,1.95-1.38,1.95-4.34,6.16c-2.23.05-4.55.08-6.92.09-.9.01-1.82.01-2.74.01s-1.84,0-2.74-.01l.21.15h.01c.83-.01,1.67-.01,2.52-.01s1.69,0,2.52.01c2.35,0,4.66.04,6.9.09,4.15.08,8.1.23,11.7.42.34.02.67.04,1,.06,1.04.06,2.04.12,3.01.19.69.05,1.34.1,2,.16h.02c.13.01.27.02.4.03,3.32.28,6.01.61,8.04.97.23-.04.45-.08.66-.12,1.87-.37,6.24-1.24,6.24-5.18s-4.37-4.82-6.24-5.19Zm-44.48,10.35l-1.19-1.69-.24-.33c-4.13-.09-8-.24-11.47-.43-.02-1.79-.07-3.59-.15-5.41-.02-.66-.05-1.33-.09-2-.02-.66-.06-1.33-.1-2-.13-2.52-.32-5.07-.54-7.66l-1.15-1.62-1.17-1.67-2.43-3.44c.57,5,1,9.89,1.27,14.65-.71.05-1.39.1-2.06.16-3.69.31-6.61.68-8.7,1.09-1.87.37-6.24,1.25-6.24,5.19s4.37,4.81,6.24,5.18c.21.04.43.08.66.12-.23.04-.45.08-.66.12-1.87.37-6.24,1.25-6.24,5.19s4.37,4.81,6.24,5.18c2.09.42,5.01.78,8.7,1.09.55.05,1.12.09,1.7.13.18-.7.32-1.36.42-1.97.13-.73.2-1.4.22-1.98.02-.2.02-.38.02-.56,0-.39.01-.95.03-1.68.02-.88.03-1.76.04-2.66.65-.05,1.32-.1,2.01-.14.32-.02.66-.04.99-.06s.67-.04,1.01-.06c.01-.39.01-.79,0-1.19.01-.27.01-.54.01-.82.41-.02.82-.04,1.23-.06.54-.03,1.08-.05,1.64-.08,1.11-.05,2.25-.09,3.41-.13.58-.02,1.17-.04,1.76-.06.59-.02,1.19-.04,1.79-.05,1-.03,2.02-.05,3.05-.07h.19l-.2-.28Zm0,0l-1.19-1.69-.24-.33c-4.13-.09-8-.24-11.47-.43-.02-1.79-.07-3.59-.15-5.41-.02-.66-.05-1.33-.09-2-.02-.66-.06-1.33-.1-2-.13-2.52-.32-5.07-.54-7.66l-1.15-1.62-1.17-1.67-2.43-3.44c.57,5,1,9.89,1.27,14.65-.71.05-1.39.1-2.06.16-3.69.31-6.61.68-8.7,1.09-1.87.37-6.24,1.25-6.24,5.19s4.37,4.81,6.24,5.18c.21.04.43.08.66.12-.23.04-.45.08-.66.12-1.87.37-6.24,1.25-6.24,5.19s4.37,4.81,6.24,5.18c2.09.42,5.01.78,8.7,1.09.55.05,1.12.09,1.7.13.18-.7.32-1.36.42-1.97.13-.73.2-1.4.22-1.98.02-.2.02-.38.02-.56,0-.39.01-.95.03-1.68.02-.88.03-1.76.04-2.66.65-.05,1.32-.1,2.01-.14.32-.02.66-.04.99-.06s.67-.04,1.01-.06c.01-.39.01-.79,0-1.19.01-.27.01-.54.01-.82.41-.02.82-.04,1.23-.06.54-.03,1.08-.05,1.64-.08,1.11-.05,2.25-.09,3.41-.13.58-.02,1.17-.04,1.76-.06.59-.02,1.19-.04,1.79-.05,1-.03,2.02-.05,3.05-.07h.19l-.2-.28Z"/>
            </g>
            <path class="cls-8" d="m734.58,654.08l-83.4-141.22-1.16-1.96-1.16-1.97-12.31-20.85-19.72-33.4-6.13-10.37-1.53-2.6-15.8-26.75-1.05-1.77-1.05-1.79-26.57-45-7.75-13.11-54.76-92.73c-.25-.42-.58-.73-.96-.94-.19-.1-.39-.18-.6-.23-.21-.05-.42-.08-.63-.08s-.42.03-.63.08c-.21.05-.41.13-.6.23-.38.21-.71.52-.96.94l-54.76,92.73-7.75,13.11-26.57,45.01-1.05,1.78-1.05,1.77-15.8,26.75-1.53,2.6-6.13,10.37-19.72,33.4-12.31,20.85-1.16,1.97-1.16,1.96-83.4,141.22c-1.01,1.69.22,3.83,2.18,3.83h464.8c1.96,0,3.19-2.14,2.18-3.83Zm-464.42-.17l80.99-137.13,1.15-1.96,1.14-1.93,11.23-19.02,21.03-35.6,6.13-10.38,3.79-6.41h0s14.98-25.38,14.98-25.38l1.04-1.75,1.04-1.77,26.9-45.55,6.03-10.22,54.39-92.09,54.39,92.09,6.03,10.22,26.9,45.55,1.04,1.77,1.04,1.75,14.98,25.37h0s3.79,6.42,3.79,6.42l6.13,10.38,21.03,35.6,11.23,19.02,1.14,1.93,1.15,1.96,80.99,137.13h-459.68Z"/>
          </g>
        </g>
      </g>
    </g>
  </g>
</svg>